STARTFONT 2.1
COMMENT
COMMENT Converted from OpenType font "UbuntuMono-BoldItalic.ttf" by "otf2bdf 3.0".
COMMENT
FONT -FreeType-Ubuntu Mono-Bold-I-Normal--33-240-100-100-P-166-ISO10646-1
SIZE 24 100 100
FONTBOUNDINGBOX 32 34 -9 -6
STARTPROPERTIES 19
FOUNDRY "FreeType"
FAMILY_NAME "Ubuntu Mono"
WEIGHT_NAME "Bold"
SLANT "I"
SETWIDTH_NAME "Normal"
ADD_STYLE_NAME ""
PIXEL_SIZE 33
POINT_SIZE 240
RESOLUTION_X 100
RESOLUTION_Y 100
SPACING "P"
AVERAGE_WIDTH 166
CHARSET_REGISTRY "ISO10646"
CHARSET_ENCODING "1"
FONT_ASCENT 27
FONT_DESCENT 5
COPYRIGHT "Copyright 2011 Canonical Ltd.  Licensed under the Ubuntu Font Licence 1.0"
_OTF_FONTFILE "UbuntuMono-BoldItalic.ttf"
_OTF_PSNAME "UbuntuMono-BoldItalic"
ENDPROPERTIES
CHARS 1224
STARTCHAR 0000
ENCODING 0
SWIDTH 480 0
DWIDTH 16 0
BBX 0 0 0 0
BITMAP
ENDCHAR
STARTCHAR 0008
ENCODING 8
SWIDTH 480 0
DWIDTH 16 0
BBX 0 0 0 0
BITMAP
ENDCHAR
STARTCHAR 0009
ENCODING 9
SWIDTH 480 0
DWIDTH 16 0
BBX 0 0 0 0
BITMAP
ENDCHAR
STARTCHAR 000D
ENCODING 13
SWIDTH 480 0
DWIDTH 16 0
BBX 0 0 0 0
BITMAP
ENDCHAR
STARTCHAR 001D
ENCODING 29
SWIDTH 480 0
DWIDTH 16 0
BBX 0 0 0 0
BITMAP
ENDCHAR
STARTCHAR 0020
ENCODING 32
SWIDTH 480 0
DWIDTH 16 0
BBX 0 0 0 0
BITMAP
ENDCHAR
STARTCHAR 0021
ENCODING 33
SWIDTH 480 0
DWIDTH 16 0
BBX 9 21 6 0
BITMAP
0F80
0F80
0F00
1F00
1F00
1F00
1E00
3E00
3E00
3E00
3C00
3C00
3800
3800
0000
0000
7000
F800
F800
F800
F000
ENDCHAR
STARTCHAR 0022
ENCODING 34
SWIDTH 480 0
DWIDTH 16 0
BBX 12 10 6 13
BITMAP
3CF0
7CF0
78F0
78F0
79E0
79E0
71E0
71C0
E1C0
E180
ENDCHAR
STARTCHAR 0023
ENCODING 35
SWIDTH 480 0
DWIDTH 16 0
BBX 18 21 1 0
BITMAP
00F3C0
00E380
01E380
01C780
01C700
1FFFC0
3FFFC0
3FFF80
3FFF80
071C00
0F3C00
0E3800
1E3800
7FFF00
FFFF00
FFFE00
38E000
78E000
71E000
71C000
F3C000
ENDCHAR
STARTCHAR 0024
ENCODING 36
SWIDTH 480 0
DWIDTH 16 0
BBX 16 26 2 -3
BITMAP
0078
0078
0070
03FC
07FF
0FFE
1F0E
1E00
1E00
1E00
1F00
1FC0
0FF0
07F8
01F8
007C
003C
003C
407C
FFF8
FFF0
FFE0
1F80
0E00
0E00
1E00
ENDCHAR
STARTCHAR 0025
ENCODING 37
SWIDTH 480 0
DWIDTH 16 0
BBX 19 21 1 0
BITMAP
0780E0
0FC1C0
1FC1C0
19C380
39C700
39CE00
399C00
3BB800
3F3800
1E7000
00E000
01CE00
039F00
073F00
077300
0E7300
1C6300
386700
706700
E07E00
E07C00
ENDCHAR
STARTCHAR 0026
ENCODING 38
SWIDTH 480 0
DWIDTH 16 0
BBX 16 21 1 0
BITMAP
00F8
03FC
07FE
079E
070E
0F1E
0F1C
0F3C
07F8
07E0
0FC7
1FC7
3DEF
78FE
70FE
707C
F07C
78FC
7FFC
7FDE
3F9E
ENDCHAR
STARTCHAR 0027
ENCODING 39
SWIDTH 480 0
DWIDTH 16 0
BBX 6 10 9 13
BITMAP
3C
7C
7C
78
78
78
70
F0
F0
E0
ENDCHAR
STARTCHAR 0028
ENCODING 40
SWIDTH 480 0
DWIDTH 16 0
BBX 12 29 5 -5
BITMAP
0070
00F0
01F0
03E0
07C0
0F80
1F00
1E00
3C00
7C00
7800
7800
F000
F000
F000
F000
E000
E000
E000
F000
F000
F000
F000
7800
7800
3C00
3E00
1C00
0800
ENDCHAR
STARTCHAR 0029
ENCODING 41
SWIDTH 480 0
DWIDTH 16 0
BBX 13 28 2 -5
BITMAP
0180
03C0
03E0
01E0
01F0
00F0
00F0
0070
0078
0078
0078
0078
0078
0070
00F0
00F0
00F0
01E0
03E0
03C0
07C0
0F80
1F00
3E00
7E00
F800
F000
E000
ENDCHAR
STARTCHAR 002A
ENCODING 42
SWIDTH 480 0
DWIDTH 16 0
BBX 14 13 4 8
BITMAP
0780
0780
0780
6788
7338
FFF8
FFFC
0780
0FC0
1FE0
3CF0
3CF0
1860
ENDCHAR
STARTCHAR 002B
ENCODING 43
SWIDTH 480 0
DWIDTH 16 0
BBX 15 15 2 1
BITMAP
01E0
01E0
01E0
01C0
01C0
03C0
7FFE
7FFE
FFFC
0780
0780
0700
0700
0F00
0F00
ENDCHAR
STARTCHAR 002C
ENCODING 44
SWIDTH 480 0
DWIDTH 16 0
BBX 8 11 3 -5
BITMAP
04
1F
1F
3F
1F
1F
0F
1E
FC
F8
E0
ENDCHAR
STARTCHAR 002D
ENCODING 45
SWIDTH 480 0
DWIDTH 16 0
BBX 10 4 5 7
BITMAP
7FC0
FF80
FF80
FF80
ENDCHAR
STARTCHAR 002E
ENCODING 46
SWIDTH 480 0
DWIDTH 16 0
BBX 6 6 5 0
BITMAP
10
7C
7C
FC
7C
78
ENDCHAR
STARTCHAR 002F
ENCODING 47
SWIDTH 480 0
DWIDTH 16 0
BBX 19 29 0 -6
BITMAP
0001E0
0003C0
0003C0
000780
000F80
000F00
001F00
001E00
003E00
003C00
007C00
007800
00F800
00F000
01E000
01E000
03C000
03C000
078000
0F8000
0F0000
1F0000
1E0000
3E0000
3C0000
7C0000
780000
F00000
F00000
ENDCHAR
STARTCHAR 0030
ENCODING 48
SWIDTH 480 0
DWIDTH 16 0
BBX 16 21 2 0
BITMAP
01F8
07FC
0FFE
0F9E
1E0F
3E0F
3C0F
3C0F
79CF
79CF
7BCE
73DE
F01E
F01E
F03C
F03C
F078
78F8
7FF0
3FE0
1FC0
ENDCHAR
STARTCHAR 0031
ENCODING 49
SWIDTH 480 0
DWIDTH 16 0
BBX 13 21 2 0
BITMAP
0038
0078
01F8
07F8
1FF8
1FF0
1EF0
18F0
01F0
01E0
01E0
01E0
03E0
03C0
03C0
03C0
03C0
0780
7FF8
FFF8
FFF8
ENDCHAR
STARTCHAR 0032
ENCODING 50
SWIDTH 480 0
DWIDTH 16 0
BBX 17 21 1 0
BITMAP
00FC00
07FE00
0FFF00
0FDF80
060F80
000780
000F00
000F00
001F00
003E00
00FC00
01F800
03E000
0FC000
1F0000
3E0000
3C0000
780000
7FFC00
7FFC00
FFFC00
ENDCHAR
STARTCHAR 0033
ENCODING 51
SWIDTH 480 0
DWIDTH 16 0
BBX 16 21 1 0
BITMAP
01FC
07FE
07FF
071F
000F
000F
000F
001E
007E
03F8
03F8
03FC
003C
001E
001E
001E
003E
607C
7FFC
FFF8
7FE0
ENDCHAR
STARTCHAR 0034
ENCODING 52
SWIDTH 480 0
DWIDTH 16 0
BBX 17 21 1 0
BITMAP
000780
000F80
001F80
003F00
007F00
00FF00
01EF00
038E00
079E00
0F1E00
1E1E00
3C1C00
783C00
7FFF00
7FFF00
FFFF00
007800
007800
007800
007800
00F000
ENDCHAR
STARTCHAR 0035
ENCODING 53
SWIDTH 480 0
DWIDTH 16 0
BBX 17 21 1 0
BITMAP
01FF80
03FF80
03FF80
03FF80
078000
078000
070000
0F0000
0FC000
0FF000
1FFC00
01FC00
003E00
001E00
001E00
001E00
003E00
607C00
7FFC00
FFF800
7FE000
ENDCHAR
STARTCHAR 0036
ENCODING 54
SWIDTH 480 0
DWIDTH 16 0
BBX 17 21 2 0
BITMAP
000F80
007F00
01FF00
07FF00
0FC000
1F0000
1E0000
3C0000
3DF000
7FF800
7FFC00
7C3E00
781E00
F01E00
F01E00
781E00
783C00
7C7C00
3FF800
3FF000
1FE000
ENDCHAR
STARTCHAR 0037
ENCODING 55
SWIDTH 480 0
DWIDTH 16 0
BBX 16 21 4 0
BITMAP
7FFF
7FFF
7FFE
7FFE
007C
00F8
00F0
01E0
03C0
03C0
0780
0F80
0F00
1E00
1E00
3C00
3C00
7800
7800
F800
F000
ENDCHAR
STARTCHAR 0038
ENCODING 56
SWIDTH 480 0
DWIDTH 16 0
BBX 16 21 2 0
BITMAP
01F8
07FE
0FFE
0F1F
1E0F
1E0F
1E0F
1E1E
0F3C
0FF8
0FF0
1FF8
3C7C
783C
F03C
F03C
F03C
F87C
FFF8
7FF0
3FE0
ENDCHAR
STARTCHAR 0039
ENCODING 57
SWIDTH 480 0
DWIDTH 16 0
BBX 16 21 2 0
BITMAP
03F0
0FFC
1FFE
1F3E
3C1E
3C0F
380F
780F
3C0F
3C1F
3FFE
1FFE
0FDE
003C
003C
0078
01F0
0FF0
FFC0
FF80
FC00
ENDCHAR
STARTCHAR 003A
ENCODING 58
SWIDTH 480 0
DWIDTH 16 0
BBX 9 16 5 0
BITMAP
0600
0F00
1F80
1F80
1F00
1F00
0000
0000
0000
0000
1000
7C00
7C00
FC00
7C00
7800
ENDCHAR
STARTCHAR 003B
ENCODING 59
SWIDTH 480 0
DWIDTH 16 0
BBX 11 21 3 -5
BITMAP
0180
03C0
07E0
07E0
07C0
07C0
0000
0000
0000
0000
0400
1F00
1F00
3F00
1F00
1F00
0F00
1E00
FC00
F800
E000
ENDCHAR
STARTCHAR 003C
ENCODING 60
SWIDTH 480 0
DWIDTH 16 0
BBX 15 14 3 1
BITMAP
0002
001E
00FE
03FE
1FF8
7FC0
FE00
F800
FE00
7F80
1FE0
07F8
01F0
0070
ENDCHAR
STARTCHAR 003D
ENCODING 61
SWIDTH 480 0
DWIDTH 16 0
BBX 16 10 2 4
BITMAP
3FFF
3FFF
7FFE
7FFE
0000
0000
0000
FFFC
FFFC
FFFC
ENDCHAR
STARTCHAR 003E
ENCODING 62
SWIDTH 480 0
DWIDTH 16 0
BBX 15 14 2 1
BITMAP
1000
1C00
3F00
3FC0
0FF0
03FC
00FE
007E
01FC
0FF8
7FE0
FF00
F800
E000
ENDCHAR
STARTCHAR 003F
ENCODING 63
SWIDTH 480 0
DWIDTH 16 0
BBX 13 21 5 0
BITMAP
0FC0
7FF0
3FF0
39F8
00F8
00F8
00F0
03F0
07E0
0F80
1F00
3E00
3C00
3C00
0000
0000
7800
F800
FC00
F800
7800
ENDCHAR
STARTCHAR 0040
ENCODING 64
SWIDTH 480 0
DWIDTH 16 0
BBX 17 26 2 -5
BITMAP
00FC00
03FF00
07FF00
0F0700
1E0780
3C0780
383F80
78FF00
71FF00
73EF00
F38F00
E78E00
E78E00
E71E00
E71E00
E71C00
E79C00
E3FC00
E3FC00
E0F000
F00000
780000
7F3000
3FF000
0FF000
010000
ENDCHAR
STARTCHAR 0041
ENCODING 65
SWIDTH 480 0
DWIDTH 16 0
BBX 16 21 0 0
BITMAP
003E
003E
007E
007E
00FE
01EE
01EE
03CE
03CE
078F
078F
0F0F
0F0F
1FFF
1FFF
3FFF
3C0F
780F
780F
F80F
F00F
ENDCHAR
STARTCHAR 0042
ENCODING 66
SWIDTH 480 0
DWIDTH 16 0
BBX 17 21 1 0
BITMAP
03F800
07FE00
07FF00
0FFF80
0F0780
0F0780
0F0780
1E0F00
1E3F00
1FFC00
1FFC00
3FFE00
3C1E00
3C0F00
3C0F00
3C0F00
781E00
787E00
7FFC00
7FF800
FFE000
ENDCHAR
STARTCHAR 0043
ENCODING 67
SWIDTH 480 0
DWIDTH 16 0
BBX 16 21 3 0
BITMAP
00FC
03FF
0FFF
1FDE
1F02
3E00
3C00
7800
7800
F800
F000
F000
F000
F000
F000
F000
F800
FC30
7FF0
3FF0
1FE0
ENDCHAR
STARTCHAR 0044
ENCODING 68
SWIDTH 480 0
DWIDTH 16 0
BBX 17 21 1 0
BITMAP
03F000
07FC00
0FFE00
0FFF00
0F0F00
0F0F00
1F0F80
1E0F80
1E0F80
1E0F80
1E0F00
3C0F00
3C0F00
3C1F00
3C1E00
783E00
787C00
79FC00
7FF800
FFE000
FF8000
ENDCHAR
STARTCHAR 0045
ENCODING 69
SWIDTH 480 0
DWIDTH 16 0
BBX 17 21 2 0
BITMAP
07FF80
0FFF80
0FFF00
0FFF00
0F0000
1F0000
1E0000
1E0000
1FFC00
1FFC00
3FF800
3FF800
3C0000
3C0000
780000
780000
780000
780000
FFF800
FFF800
FFF800
ENDCHAR
STARTCHAR 0046
ENCODING 70
SWIDTH 480 0
DWIDTH 16 0
BBX 17 21 2 0
BITMAP
07FF80
07FF80
0FFF80
0FFF80
0F0000
0F0000
1F0000
1E0000
1E0000
1FFC00
3FFC00
3FFC00
3C0000
3C0000
7C0000
780000
780000
780000
F80000
F00000
F00000
ENDCHAR
STARTCHAR 0047
ENCODING 71
SWIDTH 480 0
DWIDTH 16 0
BBX 16 21 3 0
BITMAP
01FC
07FF
0FFF
1FDE
3F02
3C00
7C00
7800
F800
F000
F03C
F03C
F03C
F078
F078
F078
F078
F8F0
FFF0
7FF0
3FF0
ENDCHAR
STARTCHAR 0048
ENCODING 72
SWIDTH 480 0
DWIDTH 16 0
BBX 19 21 1 0
BITMAP
0783E0
0783C0
0F03C0
0F03C0
0F07C0
0F0780
1E0780
1E0780
1FFF80
1FFF00
3FFF00
3FFF00
3C0F00
3C1E00
7C1E00
781E00
781E00
783C00
F83C00
F03C00
F03C00
ENDCHAR
STARTCHAR 0049
ENCODING 73
SWIDTH 480 0
DWIDTH 16 0
BBX 18 21 1 0
BITMAP
07FFC0
07FFC0
07FFC0
0FFF80
007800
00F800
00F000
00F000
00F000
01F000
01E000
01E000
01E000
03E000
03C000
03C000
03C000
03C000
7FFC00
FFFC00
FFF800
ENDCHAR
STARTCHAR 004A
ENCODING 74
SWIDTH 480 0
DWIDTH 16 0
BBX 17 21 2 0
BITMAP
03FF80
03FF00
07FF00
07FF00
001F00
001E00
001E00
001E00
001E00
003C00
003C00
003C00
003C00
007800
007800
007800
40F800
E1F000
FFF000
FFE000
7F8000
ENDCHAR
STARTCHAR 004B
ENCODING 75
SWIDTH 480 0
DWIDTH 16 0
BBX 19 21 1 0
BITMAP
0783E0
0783C0
0F8780
0F0F80
0F1F00
0F3E00
1F7C00
1E7800
1FF000
1FE000
1FC000
3FE000
3DF000
3CF000
3CF800
787800
787C00
783C00
783C00
F83E00
F01E00
ENDCHAR
STARTCHAR 004C
ENCODING 76
SWIDTH 480 0
DWIDTH 16 0
BBX 13 21 2 0
BITMAP
0F80
0F00
0F00
0F00
1F00
1E00
1E00
1E00
3E00
3C00
3C00
3C00
3C00
7800
7800
7800
7800
F000
FFF8
FFF8
FFF0
ENDCHAR
STARTCHAR 004D
ENCODING 77
SWIDTH 480 0
DWIDTH 16 0
BBX 19 21 0 0
BITMAP
03C1E0
03C1E0
07C3E0
07C3E0
07C7E0
07C6C0
0ECFC0
0ECDC0
0EDDC0
1EDBC0
1CFBC0
1CF380
1CF380
3CE780
380780
380780
780700
780F00
780F00
700F00
F00E00
ENDCHAR
STARTCHAR 004E
ENCODING 78
SWIDTH 480 0
DWIDTH 16 0
BBX 18 21 1 0
BITMAP
0701C0
0781C0
0F83C0
0F83C0
0FC3C0
0FC380
1FC780
1FC780
1CE780
1CE700
3CEF00
3CEF00
3C6F00
387E00
787E00
787E00
787E00
703C00
F03C00
F03C00
F03C00
ENDCHAR
STARTCHAR 004F
ENCODING 79
SWIDTH 480 0
DWIDTH 16 0
BBX 16 21 2 0
BITMAP
01F8
07FC
0FFE
0FFF
1F1F
3E0F
3C0F
3C0F
780F
780F
781F
781E
F01E
F01E
F03C
F03C
F87C
78F8
7FF0
3FE0
1FC0
ENDCHAR
STARTCHAR 0050
ENCODING 80
SWIDTH 480 0
DWIDTH 16 0
BBX 17 21 1 0
BITMAP
03F800
07FF00
07FF80
0FFF80
0F0780
0F0780
0F0780
0F0780
1E0780
1E0F80
1FFF00
1FFE00
3FFC00
3FE000
3C0000
3C0000
780000
780000
780000
780000
F00000
ENDCHAR
STARTCHAR 0051
ENCODING 81
SWIDTH 480 0
DWIDTH 16 0
BBX 16 27 2 -6
BITMAP
01F8
07FC
0FFE
0FFF
1F1F
3E0F
3C0F
3C0F
780F
780F
781F
781E
F01E
F01E
F03C
F03C
F87C
78F8
7FF0
3FE0
1FC0
0E00
0F00
0FC0
07F0
03E0
0020
ENDCHAR
STARTCHAR 0052
ENCODING 82
SWIDTH 480 0
DWIDTH 16 0
BBX 17 21 1 0
BITMAP
03F800
07FE00
07FF00
0FFF00
0F0F80
0F0780
0F0780
1E0F80
1E0F00
1E1F00
1FFE00
3FFC00
3FF000
3CF000
3C7800
7C7800
787800
783C00
783C00
F83C00
F01E00
ENDCHAR
STARTCHAR 0053
ENCODING 83
SWIDTH 480 0
DWIDTH 16 0
BBX 17 21 1 0
BITMAP
00FE00
03FF80
07FF80
0FCF00
0F0100
0F0000
0F0000
0F0000
0FC000
0FF000
07F800
01FC00
007C00
003E00
001E00
001E00
003E00
707C00
7FFC00
FFF800
7FE000
ENDCHAR
STARTCHAR 0054
ENCODING 84
SWIDTH 480 0
DWIDTH 16 0
BBX 16 21 4 0
BITMAP
7FFF
7FFF
7FFF
FFFE
03C0
0780
0780
0780
0780
0F00
0F00
0F00
0F00
1F00
1E00
1E00
1E00
3E00
3C00
3C00
3C00
ENDCHAR
STARTCHAR 0055
ENCODING 85
SWIDTH 480 0
DWIDTH 16 0
BBX 17 21 2 0
BITMAP
0F0780
1F0780
1E0780
1E0F80
1E0F00
3E0F00
3C0F00
3C1F00
3C1E00
7C1E00
781E00
783E00
783C00
783C00
F03C00
F07C00
F07800
F8F800
7FF000
7FE000
3FC000
ENDCHAR
STARTCHAR 0056
ENCODING 86
SWIDTH 480 0
DWIDTH 16 0
BBX 16 21 5 0
BITMAP
F01F
F01E
F03E
F03C
F03C
F078
F078
F0F0
F0F0
F1E0
F1E0
F3C0
F3C0
F780
F780
FF00
FF00
FE00
FE00
FC00
7800
ENDCHAR
STARTCHAR 0057
ENCODING 87
SWIDTH 480 0
DWIDTH 16 0
BBX 19 21 1 0
BITMAP
0F00E0
0F01E0
0E01E0
1E01C0
1E01C0
1E03C0
1C03C0
1C0380
3CE380
3DE780
39E780
3BE700
3BF700
7F7700
767E00
7E7E00
7C7E00
7C7C00
783C00
F83C00
F03C00
ENDCHAR
STARTCHAR 0058
ENCODING 88
SWIDTH 480 0
DWIDTH 16 0
BBX 20 21 0 0
BITMAP
0780F0
07C1F0
03C1E0
03C3C0
01E780
01EF80
01EF00
00FE00
00FC00
007800
00F800
01F800
01FC00
03FC00
07BC00
0F9E00
1F1E00
1E1E00
3E1E00
7C0F00
F80F00
ENDCHAR
STARTCHAR 0059
ENCODING 89
SWIDTH 480 0
DWIDTH 16 0
BBX 16 21 5 0
BITMAP
F01F
F01E
F03C
F07C
F078
70F0
79F0
79E0
7BC0
7FC0
3F80
3F00
3E00
3E00
3C00
3C00
3C00
3C00
7800
7800
7800
ENDCHAR
STARTCHAR 005A
ENCODING 90
SWIDTH 480 0
DWIDTH 16 0
BBX 18 21 1 0
BITMAP
07FFC0
07FFC0
07FFC0
0FFF80
000F80
001F00
003E00
007C00
00F800
00F000
01E000
03C000
07C000
0F8000
1F0000
1E0000
3C0000
780000
7FFC00
FFFC00
FFFC00
ENDCHAR
STARTCHAR 005B
ENCODING 91
SWIDTH 480 0
DWIDTH 16 0
BBX 16 29 3 -6
BITMAP
01FF
03FF
03FF
03C0
03C0
0780
0780
0780
0780
0700
0F00
0F00
0F00
0F00
1E00
1E00
1E00
1E00
3C00
3C00
3C00
3C00
7800
7800
7800
7FC0
FFC0
FF80
FF80
ENDCHAR
STARTCHAR 005C
ENCODING 92
SWIDTH 480 0
DWIDTH 16 0
BBX 6 29 7 -6
BITMAP
F0
F0
F0
F0
F0
F0
F0
78
78
78
78
78
78
78
78
78
78
78
3C
3C
3C
3C
3C
3C
3C
3C
3C
3C
3C
ENDCHAR
STARTCHAR 005D
ENCODING 93
SWIDTH 480 0
DWIDTH 16 0
BBX 17 29 0 -6
BITMAP
01FF80
01FF00
01FF00
000F00
000F00
001E00
001E00
001E00
001E00
003C00
003C00
003C00
003C00
007800
007800
007800
007800
00F000
00F000
00F000
00F000
01E000
01E000
01E000
01E000
7FE000
7FC000
7FC000
FFC000
ENDCHAR
STARTCHAR 005E
ENCODING 94
SWIDTH 480 0
DWIDTH 16 0
BBX 15 12 3 9
BITMAP
00E0
01F0
03F0
07F0
0FF8
0F78
1E78
3E3C
7C3C
F83C
F01E
6018
ENDCHAR
STARTCHAR 005F
ENCODING 95
SWIDTH 480 0
DWIDTH 16 0
BBX 15 4 -1 -6
BITMAP
7FFE
FFFE
FFFE
FFFE
ENDCHAR
STARTCHAR 0060
ENCODING 96
SWIDTH 480 0
DWIDTH 16 0
BBX 7 6 8 17
BITMAP
20
70
F8
7E
1E
0C
ENDCHAR
STARTCHAR 0061
ENCODING 97
SWIDTH 480 0
DWIDTH 16 0
BBX 15 16 2 0
BITMAP
01FC
07FE
1FFE
3FBE
3C1E
7C3C
783C
F83C
F03C
F078
F078
F078
F8F8
7FF8
7FF8
3F3C
ENDCHAR
STARTCHAR 0062
ENCODING 98
SWIDTH 480 0
DWIDTH 16 0
BBX 16 23 1 0
BITMAP
03C0
0780
0780
0780
0780
0F80
0F00
0F78
0FFC
1FFE
1FBE
1E1F
1E0F
3E0F
3C0F
3C1F
3C1E
7C1E
783E
78FC
7FF8
7FF0
FFC0
ENDCHAR
STARTCHAR 0063
ENCODING 99
SWIDTH 480 0
DWIDTH 16 0
BBX 14 16 3 0
BITMAP
03FC
0FFC
1FFC
3FFC
7C00
7800
F000
F000
F000
F000
F000
F000
FC30
FFF0
7FF0
1FF0
ENDCHAR
STARTCHAR 0064
ENCODING 100
SWIDTH 480 0
DWIDTH 16 0
BBX 17 23 2 0
BITMAP
000380
000780
000780
000F80
000F00
000F00
000F00
01FF00
07FE00
1FFE00
3FBE00
3C1E00
7C3C00
783C00
F83C00
F03C00
F07800
F07800
F07800
F8F800
7FF800
7FF800
3F3C00
ENDCHAR
STARTCHAR 0065
ENCODING 101
SWIDTH 480 0
DWIDTH 16 0
BBX 15 16 2 0
BITMAP
01F8
07FC
0FFE
1F3E
3C1E
781E
783E
7BFC
7FF8
FFE0
7800
7800
7C08
7FF8
3FF8
1FF8
ENDCHAR
STARTCHAR 0066
ENCODING 102
SWIDTH 480 0
DWIDTH 16 0
BBX 20 29 -1 -6
BITMAP
0007F0
000FF0
001FF0
003F20
003C00
007C00
007800
03FFE0
03FFE0
07FFC0
07FFC0
00F000
00F000
00F000
00F000
01F000
01E000
01E000
01E000
01E000
03E000
03C000
03C000
03C000
07C000
7F8000
FF0000
FE0000
380000
ENDCHAR
STARTCHAR 0067
ENCODING 103
SWIDTH 480 0
DWIDTH 16 0
BBX 18 22 0 -6
BITMAP
007F00
01FFC0
07FF80
07E780
0F8780
1F0780
1E0F00
1E0F00
1E0F00
1E0F00
1E1E00
1F3E00
1FFE00
0FFE00
07FE00
003C00
003C00
607800
7FF800
FFF000
FFE000
040000
ENDCHAR
STARTCHAR 0068
ENCODING 104
SWIDTH 480 0
DWIDTH 16 0
BBX 15 23 2 0
BITMAP
0780
0780
0F00
0F00
0F00
0F00
1F00
1FF0
1FFC
1FFC
3FFC
3C3E
3C3E
3C3C
7C3C
783C
783C
7878
7878
F078
F078
F0F0
F0F0
ENDCHAR
STARTCHAR 0069
ENCODING 105
SWIDTH 480 0
DWIDTH 16 0
BBX 11 23 4 0
BITMAP
0380
07C0
07C0
07C0
0780
0000
0000
FF80
FF80
FF00
FF00
0F00
0F00
1F00
1E00
1E00
1E00
3E00
3E00
3E20
1FE0
1FE0
0FE0
ENDCHAR
STARTCHAR 006A
ENCODING 106
SWIDTH 480 0
DWIDTH 16 0
BBX 16 29 0 -6
BITMAP
000E
001F
001F
001F
001E
0000
0000
07FF
07FF
07FE
07FE
001E
003E
003C
003C
003C
007C
0078
0078
0078
0078
00F0
00F0
00F0
61F0
7FE0
FFC0
FF80
0E00
ENDCHAR
STARTCHAR 006B
ENCODING 107
SWIDTH 480 0
DWIDTH 16 0
BBX 17 23 2 0
BITMAP
038000
078000
078000
0F8000
0F0000
0F0000
0F0000
0F0F80
1E1F00
1E3E00
1E7C00
1EF800
3DF000
3FE000
3FC000
3FC000
7BE000
79E000
78F000
78F000
F8F800
F07800
F07C00
ENDCHAR
STARTCHAR 006C
ENCODING 108
SWIDTH 480 0
DWIDTH 16 0
BBX 10 23 5 0
BITMAP
7F80
FF80
FF00
0F00
0F00
0F00
1F00
1E00
1E00
1E00
3E00
3C00
3C00
3C00
3C00
7800
7800
7800
7800
7C40
7FC0
7FC0
3FC0
ENDCHAR
STARTCHAR 006D
ENCODING 109
SWIDTH 480 0
DWIDTH 16 0
BBX 17 16 1 0
BITMAP
078E00
1FFF00
1FFF80
1CE780
3CE780
3CE700
39E700
39C700
79CF00
79CE00
700E00
700E00
701E00
F01C00
E01C00
E01C00
ENDCHAR
STARTCHAR 006E
ENCODING 110
SWIDTH 480 0
DWIDTH 16 0
BBX 15 16 2 0
BITMAP
07F0
1FFC
1FFC
3FFC
3C3E
3C3E
3C3C
7C3C
783C
783C
7878
7878
F078
F078
F0F0
F0F0
ENDCHAR
STARTCHAR 006F
ENCODING 111
SWIDTH 480 0
DWIDTH 16 0
BBX 15 16 2 0
BITMAP
03F0
0FF8
1FFC
3F7E
3C3E
781E
781E
781E
F03E
F03C
F03C
F87C
F8F8
7FF0
7FE0
3FC0
ENDCHAR
STARTCHAR 0070
ENCODING 112
SWIDTH 480 0
DWIDTH 16 0
BBX 17 22 0 -6
BITMAP
01FC00
07FE00
0FFF00
0F9F80
0F0F80
0F0780
0F0780
1E0780
1E0F80
1E0F00
1E1F00
3C1F00
3C7E00
3FFC00
3FF800
7FE000
780000
780000
780000
F80000
F00000
F00000
ENDCHAR
STARTCHAR 0071
ENCODING 113
SWIDTH 480 0
DWIDTH 16 0
BBX 16 22 2 -6
BITMAP
01FC
07FF
0FFE
1FBE
3E1E
7C1E
783C
783C
783C
F03C
F07C
F878
78F8
7FF8
7FF8
3FF0
00F0
00F0
01F0
01E0
01E0
01E0
ENDCHAR
STARTCHAR 0072
ENCODING 114
SWIDTH 480 0
DWIDTH 16 0
BBX 15 16 2 0
BITMAP
01FE
0FFE
0FFE
1FFE
1E00
1E00
1E00
3C00
3C00
3C00
3C00
7C00
7800
7800
7800
F800
ENDCHAR
STARTCHAR 0073
ENCODING 115
SWIDTH 480 0
DWIDTH 16 0
BBX 15 16 2 0
BITMAP
03FC
0FFE
1FFC
1F1C
1E00
1E00
1F80
1FE0
0FF0
03F8
00F8
0078
60F8
FFF0
FFF0
7FC0
ENDCHAR
STARTCHAR 0074
ENCODING 116
SWIDTH 480 0
DWIDTH 16 0
BBX 14 20 4 0
BITMAP
0F80
0F00
0F00
0F00
FFFC
FFF8
FFF8
FFF8
1E00
3C00
3C00
3C00
3C00
7C00
7800
7800
7C20
7FE0
3FE0
1FE0
ENDCHAR
STARTCHAR 0075
ENCODING 117
SWIDTH 480 0
DWIDTH 16 0
BBX 14 16 3 0
BITMAP
3C3C
3C3C
783C
783C
787C
7878
F878
F078
F0F8
F0F0
F0F0
F0F0
F3F0
FFF0
FFF0
7E78
ENDCHAR
STARTCHAR 0076
ENCODING 118
SWIDTH 480 0
DWIDTH 16 0
BBX 14 16 4 0
BITMAP
F03C
F03C
F07C
F078
F0F8
F0F0
F1F0
F1E0
F3E0
F3C0
7F80
7F80
7F00
7E00
7E00
3C00
ENDCHAR
STARTCHAR 0077
ENCODING 119
SWIDTH 480 0
DWIDTH 16 0
BBX 17 16 2 0
BITMAP
780380
780780
780780
71C700
71C700
73CF00
73CE00
77CE00
F7DE00
EEDC00
EEDC00
FCF800
F8F800
F8F800
F0F000
F0F000
ENDCHAR
STARTCHAR 0078
ENCODING 120
SWIDTH 480 0
DWIDTH 16 0
BBX 17 16 1 0
BITMAP
1E0780
1E0F00
0F1F00
0F1E00
07BC00
07F800
03F800
03F000
03E000
07F000
0FF000
1FF800
3E7800
3C7C00
783C00
F03C00
ENDCHAR
STARTCHAR 0079
ENCODING 121
SWIDTH 480 0
DWIDTH 16 0
BBX 19 22 -1 -6
BITMAP
0781E0
0781E0
0783C0
0783C0
0787C0
078780
078780
07CF00
03CF00
03DE00
03DE00
03FC00
03FC00
01F800
01F000
01F000
03E000
07C000
FF8000
FF0000
FE0000
300000
ENDCHAR
STARTCHAR 007A
ENCODING 122
SWIDTH 480 0
DWIDTH 16 0
BBX 16 16 2 0
BITMAP
0FFF
1FFE
1FFE
1FFE
007C
00F8
01F0
03C0
07C0
0F00
1F00
3C00
7C00
FFF8
FFF8
FFF0
ENDCHAR
STARTCHAR 007B
ENCODING 123
SWIDTH 480 0
DWIDTH 16 0
BBX 16 29 3 -6
BITMAP
007F
00FF
01FF
01E0
01E0
03C0
03C0
03C0
03C0
0380
0780
0780
7F00
7E00
7C00
FE00
1E00
0E00
1E00
1E00
1E00
1C00
3C00
3C00
3C00
3FC0
3FC0
1FC0
03C0
ENDCHAR
STARTCHAR 007C
ENCODING 124
SWIDTH 480 0
DWIDTH 16 0
BBX 11 29 4 -6
BITMAP
01E0
01E0
03E0
03C0
03C0
03C0
07C0
0780
0780
0780
0F80
0F00
0F00
0F00
0F00
1E00
1E00
1E00
1E00
3C00
3C00
3C00
3C00
7C00
7800
7800
7800
F800
F000
ENDCHAR
STARTCHAR 007D
ENCODING 125
SWIDTH 480 0
DWIDTH 16 0
BBX 16 29 0 -6
BITMAP
03F8
03FC
03FC
003C
003C
003C
003C
003C
0038
0078
0078
0078
003F
003F
003F
00FE
00F0
01E0
01E0
01E0
01C0
03C0
03C0
03C0
0780
7F80
7F80
FF00
F000
ENDCHAR
STARTCHAR 007E
ENCODING 126
SWIDTH 480 0
DWIDTH 16 0
BBX 15 6 2 6
BITMAP
1E04
3F8E
7FFE
FFFE
E3FC
E0F8
ENDCHAR
STARTCHAR 00A0
ENCODING 160
SWIDTH 480 0
DWIDTH 16 0
BBX 0 0 0 0
BITMAP
ENDCHAR
STARTCHAR 00A1
ENCODING 161
SWIDTH 480 0
DWIDTH 16 0
BBX 10 21 4 -5
BITMAP
0300
0780
0FC0
0FC0
0F80
0700
0000
0000
0E00
0E00
1E00
1E00
3E00
3E00
3E00
3C00
7C00
7C00
7C00
7800
F800
ENDCHAR
STARTCHAR 00A2
ENCODING 162
SWIDTH 480 0
DWIDTH 16 0
BBX 15 24 3 -3
BITMAP
0078
0078
0078
00F0
00F0
07FE
1FFC
3FFC
7F0C
7C00
F800
F000
F000
F000
F000
F800
FF70
7FF0
3FF0
1FE0
0F00
0F00
0F00
1F00
ENDCHAR
STARTCHAR 00A3
ENCODING 163
SWIDTH 480 0
DWIDTH 16 0
BBX 16 21 3 0
BITMAP
007E
01FF
03FF
07E6
0780
0F00
0F00
0F00
1F00
7FF8
FFF0
FFF0
FFF0
3C00
3C00
3C00
7800
7800
7FF8
FFF8
FFF0
ENDCHAR
STARTCHAR 00A4
ENCODING 164
SWIDTH 480 0
DWIDTH 16 0
BBX 15 15 3 3
BITMAP
2008
701C
FFFE
FFFC
7FF8
7C78
7878
7838
7838
7878
7FF8
FFFC
FFFE
713C
2008
ENDCHAR
STARTCHAR 00A5
ENCODING 165
SWIDTH 480 0
DWIDTH 16 0
BBX 19 21 2 0
BITMAP
3E03E0
1E03C0
1E0780
1E0F80
1F0F00
0F1E00
0F3C00
0F7C00
07F800
07F000
3FFE00
3FFE00
7FFC00
07C000
078000
7FFC00
FFF800
FFF800
0F8000
0F0000
0F0000
ENDCHAR
STARTCHAR 00A6
ENCODING 166
SWIDTH 480 0
DWIDTH 16 0
BBX 11 29 4 -6
BITMAP
01E0
01E0
01E0
03C0
03C0
03C0
03C0
07C0
0780
0780
0780
0F80
0000
0000
0000
0000
0000
1E00
1E00
3E00
3C00
3C00
3C00
3C00
7800
7800
7800
7800
F000
ENDCHAR
STARTCHAR 00A7
ENCODING 167
SWIDTH 480 0
DWIDTH 16 0
BBX 17 24 1 -3
BITMAP
00FF00
01FF80
03FF00
07C300
078000
078000
03E000
03F800
0FFC00
1E3E00
1C1E00
3C0E00
3C1E00
3E1E00
1FBC00
0FF800
07F000
01F000
00F000
007000
60F000
7FF000
FFE000
7F8000
ENDCHAR
STARTCHAR 00A8
ENCODING 168
SWIDTH 480 0
DWIDTH 16 0
BBX 11 4 7 18
BITMAP
F1E0
F1E0
F1E0
E1C0
ENDCHAR
STARTCHAR 00A9
ENCODING 169
SWIDTH 480 0
DWIDTH 16 0
BBX 15 16 2 0
BITMAP
07C0
1FF0
3C78
701C
63CC
E7CE
CE06
CC06
CC06
CC06
EFC6
67CE
701C
383C
3FF8
0FE0
ENDCHAR
STARTCHAR 00AA
ENCODING 170
SWIDTH 480 0
DWIDTH 16 0
BBX 12 12 5 9
BITMAP
07F0
1FF0
3FF0
78E0
70E0
70E0
F1E0
F1C0
71C0
7FC0
7FE0
1EC0
ENDCHAR
STARTCHAR 00AB
ENCODING 171
SWIDTH 480 0
DWIDTH 16 0
BBX 14 13 3 2
BITMAP
060C
0F1C
1E38
3C78
38F0
71E0
F1C0
F1E0
70E0
78E0
3870
3870
1870
ENDCHAR
STARTCHAR 00AC
ENCODING 172
SWIDTH 480 0
DWIDTH 16 0
BBX 14 11 3 1
BITMAP
7FFC
FFFC
FFFC
0038
0038
0078
0078
0070
0070
00F0
00F0
ENDCHAR
STARTCHAR 00AD
ENCODING 173
SWIDTH 480 0
DWIDTH 16 0
BBX 10 4 5 7
BITMAP
7FC0
FF80
FF80
FF80
ENDCHAR
STARTCHAR 00AE
ENCODING 174
SWIDTH 480 0
DWIDTH 16 0
BBX 15 16 2 0
BITMAP
07C0
1FF0
3C78
701C
678C
E7CE
C666
C666
C7C6
C7C6
E6C6
666E
701C
383C
3FF8
0FE0
ENDCHAR
STARTCHAR 00AF
ENCODING 175
SWIDTH 480 0
DWIDTH 16 0
BBX 10 3 7 19
BITMAP
7FC0
7FC0
FFC0
ENDCHAR
STARTCHAR 00B0
ENCODING 176
SWIDTH 480 0
DWIDTH 16 0
BBX 9 9 7 14
BITMAP
3E00
7F00
FF80
E380
E380
E380
FF80
7F00
3E00
ENDCHAR
STARTCHAR 00B1
ENCODING 177
SWIDTH 480 0
DWIDTH 16 0
BBX 17 19 1 0
BITMAP
007800
007800
007000
007000
00F000
00F000
1FFF80
3FFF00
3FFF00
01E000
01E000
01C000
03C000
03C000
000000
000000
FFFC00
FFFC00
FFFC00
ENDCHAR
STARTCHAR 00B2
ENCODING 178
SWIDTH 480 0
DWIDTH 16 0
BBX 10 12 6 9
BITMAP
1F00
3F80
3FC0
21C0
0380
0780
1F00
3E00
7800
FF80
FF80
FF80
ENDCHAR
STARTCHAR 00B3
ENCODING 179
SWIDTH 480 0
DWIDTH 16 0
BBX 10 12 6 9
BITMAP
1F80
3FC0
3FC0
01C0
0380
1F00
1F80
0380
0380
EF80
FF00
FE00
ENDCHAR
STARTCHAR 00B4
ENCODING 180
SWIDTH 480 0
DWIDTH 16 0
BBX 6 6 10 17
BITMAP
08
38
7C
FC
F0
C0
ENDCHAR
STARTCHAR 00B5
ENCODING 181
SWIDTH 480 0
DWIDTH 16 0
BBX 18 22 0 -6
BITMAP
0787C0
078780
078780
0F0780
0F0F80
0F0F00
0F0F00
1E0F00
1E0F00
1E1E00
1E1E00
3E1E00
3E3E00
3FFF00
3FFF00
7FEE00
780000
780000
780000
F80000
F00000
F00000
ENDCHAR
STARTCHAR 00B6
ENCODING 182
SWIDTH 480 0
DWIDTH 16 0
BBX 16 27 3 -6
BITMAP
01FE
07FF
1FFF
3FFF
7F8F
7F8E
FF8E
FF9E
FF9E
FF1C
FF1C
7F3C
3F3C
0E38
0E38
1E78
1E78
1C70
1C70
3C70
3CF0
38E0
38E0
38E0
79E0
71C0
71C0
ENDCHAR
STARTCHAR 00B7
ENCODING 183
SWIDTH 480 0
DWIDTH 16 0
BBX 6 6 7 6
BITMAP
30
F8
FC
FC
F8
F0
ENDCHAR
STARTCHAR 00B8
ENCODING 184
SWIDTH 480 0
DWIDTH 16 0
BBX 7 7 4 -6
BITMAP
0E
1C
1E
0E
7E
FE
78
ENDCHAR
STARTCHAR 00B9
ENCODING 185
SWIDTH 480 0
DWIDTH 16 0
BBX 10 12 5 9
BITMAP
03C0
0780
3F80
3F80
3780
0700
0700
0F00
0F00
7FC0
7FC0
FFC0
ENDCHAR
STARTCHAR 00BA
ENCODING 186
SWIDTH 480 0
DWIDTH 16 0
BBX 11 12 6 9
BITMAP
0F80
3FC0
7FE0
70E0
F0E0
E0E0
E0E0
E1C0
E3C0
FF80
7F00
3E00
ENDCHAR
STARTCHAR 00BB
ENCODING 187
SWIDTH 480 0
DWIDTH 16 0
BBX 15 13 2 2
BITMAP
1830
1C70
1C38
1E38
0E3C
0E1C
0F1E
0E3C
1C78
3C70
78E0
F1E0
60C0
ENDCHAR
STARTCHAR 00BC
ENCODING 188
SWIDTH 480 0
DWIDTH 16 0
BBX 18 21 1 0
BITMAP
0381C0
078380
1F0780
1F0700
070E00
071C00
063C00
0E3800
007000
00E000
01E000
01C000
038000
070E00
0F1E00
0E3600
1C6E00
38CC00
78FE00
71FE00
E01C00
ENDCHAR
STARTCHAR 00BD
ENCODING 189
SWIDTH 480 0
DWIDTH 16 0
BBX 18 21 1 0
BITMAP
0381C0
078380
1F0700
1F0700
070E00
071C00
063800
0E3800
007000
00E000
01C000
01C000
038C00
073E00
0E7F00
0E0700
1C0E00
383C00
707000
70FE00
E0FE00
ENDCHAR
STARTCHAR 00BE
ENCODING 190
SWIDTH 480 0
DWIDTH 16 0
BBX 19 21 1 0
BITMAP
0F81E0
0FC1C0
01C380
078700
0F8F00
018E00
139C00
3FB800
1E7800
007000
00E000
01C000
03C000
038E00
071E00
0E3600
1E6E00
1CCC00
38FE00
71FE00
F01C00
ENDCHAR
STARTCHAR 00BF
ENCODING 191
SWIDTH 480 0
DWIDTH 16 0
BBX 12 22 2 -6
BITMAP
0060
00F0
01F0
01F0
01F0
00E0
0000
0000
01E0
03C0
07C0
0F80
1F00
7E00
7800
F000
F000
F060
FFE0
FFE0
7FC0
0C00
ENDCHAR
STARTCHAR 00C0
ENCODING 192
SWIDTH 480 0
DWIDTH 16 0
BBX 16 27 0 1
BITMAP
0038
003C
007E
001F
0007
0000
003E
003E
007E
007E
00FE
01EE
01EE
03CE
03CE
078F
078F
0F0F
0F0F
1FFF
1FFF
3FFF
3C0F
780F
780F
F80F
F00F
ENDCHAR
STARTCHAR 00C1
ENCODING 193
SWIDTH 480 0
DWIDTH 16 0
BBX 18 28 0 0
BITMAP
000100
000300
000780
001FC0
003F00
001C00
000000
003E00
003E00
007E00
007E00
00FE00
01EE00
01EE00
03CE00
03CE00
078F00
078F00
0F0F00
0F0F00
1FFF00
1FFF00
3FFF00
3C0F00
780F00
780F00
F80F00
F00F00
ENDCHAR
STARTCHAR 00C2
ENCODING 194
SWIDTH 480 0
DWIDTH 16 0
BBX 18 27 0 1
BITMAP
000600
001F00
003F80
007BC0
002180
000000
003E00
003E00
007E00
007E00
00FE00
01EE00
01EE00
03CE00
03CE00
078F00
078F00
0F0F00
0F0F00
1FFF00
1FFF00
3FFF00
3C0F00
780F00
780F00
F80F00
F00F00
ENDCHAR
STARTCHAR 00C3
ENCODING 195
SWIDTH 480 0
DWIDTH 16 0
BBX 19 27 0 0
BITMAP
0038C0
007FE0
00FFC0
00EF80
000000
000000
003E00
003E00
007E00
007E00
00FE00
01EE00
01EE00
03CE00
03CE00
078F00
078F00
0F0F00
0F0F00
1FFF00
1FFF00
3FFF00
3C0F00
780F00
780F00
F80F00
F00F00
ENDCHAR
STARTCHAR 00C4
ENCODING 196
SWIDTH 480 0
DWIDTH 16 0
BBX 19 27 0 0
BITMAP
0070E0
00F1E0
00F1E0
00F1E0
000000
000000
003E00
003E00
007E00
007E00
00FE00
01EE00
01EE00
03CE00
03CE00
078F00
078F00
0F0F00
0F0F00
1FFF00
1FFF00
3FFF00
3C0F00
780F00
780F00
F80F00
F00F00
ENDCHAR
STARTCHAR 00C5
ENCODING 197
SWIDTH 480 0
DWIDTH 16 0
BBX 16 26 0 0
BITMAP
001E
003F
0073
0063
003F
003E
003E
007E
007E
00FE
01EE
01EE
03CE
03CE
078F
078F
0F0F
0F0F
1FFF
1FFF
3FFF
3C0F
780F
780F
F80F
F00F
ENDCHAR
STARTCHAR 00C6
ENCODING 198
SWIDTH 480 0
DWIDTH 16 0
BBX 20 21 0 0
BITMAP
001FF0
003FF0
007FF0
007FE0
00EE00
01EE00
01DE00
03DE00
039F80
079F80
073F80
0F3F80
0E3C00
1FF800
1FF800
3FF800
3C7800
787000
78FF00
F0FF00
F0FF00
ENDCHAR
STARTCHAR 00C7
ENCODING 199
SWIDTH 480 0
DWIDTH 16 0
BBX 16 27 3 -6
BITMAP
00FC
03FF
0FFF
1FDE
1F02
3E00
3C00
7800
7800
F800
F000
F000
F000
F000
F000
F000
F800
FC30
7FF0
3FF0
1FE0
0E00
0F00
0700
3F00
3F00
1C00
ENDCHAR
STARTCHAR 00C8
ENCODING 200
SWIDTH 480 0
DWIDTH 16 0
BBX 17 28 2 0
BITMAP
004000
006000
00F000
00FC00
007E00
001C00
000000
07FF80
0FFF80
0FFF00
0FFF00
0F0000
1F0000
1E0000
1E0000
1FFC00
1FFC00
3FF800
3FF800
3C0000
3C0000
780000
780000
780000
780000
FFF800
FFF800
FFF800
ENDCHAR
STARTCHAR 00C9
ENCODING 201
SWIDTH 480 0
DWIDTH 16 0
BBX 17 28 2 0
BITMAP
000400
000C00
001E00
007F00
007C00
007000
000000
07FF80
0FFF80
0FFF00
0FFF00
0F0000
1F0000
1E0000
1E0000
1FFC00
1FFC00
3FF800
3FF800
3C0000
3C0000
780000
780000
780000
780000
FFF800
FFF800
FFF800
ENDCHAR
STARTCHAR 00CA
ENCODING 202
SWIDTH 480 0
DWIDTH 16 0
BBX 17 27 2 1
BITMAP
001800
003C00
00FE00
01EF00
00C600
000000
07FF80
0FFF80
0FFF00
0FFF00
0F0000
1F0000
1E0000
1E0000
1FFC00
1FFC00
3FF800
3FF800
3C0000
3C0000
780000
780000
780000
780000
FFF800
FFF800
FFF800
ENDCHAR
STARTCHAR 00CB
ENCODING 203
SWIDTH 480 0
DWIDTH 16 0
BBX 17 27 2 0
BITMAP
01C380
03C780
03C780
03C780
000000
000000
07FF80
0FFF80
0FFF00
0FFF00
0F0000
1F0000
1E0000
1E0000
1FFC00
1FFC00
3FF800
3FF800
3C0000
3C0000
780000
780000
780000
780000
FFF800
FFF800
FFF800
ENDCHAR
STARTCHAR 00CC
ENCODING 204
SWIDTH 480 0
DWIDTH 16 0
BBX 18 27 1 1
BITMAP
007000
007800
00FC00
003E00
000E00
000000
07FFC0
07FFC0
07FFC0
0FFF80
007800
00F800
00F000
00F000
00F000
01F000
01E000
01E000
01E000
03E000
03C000
03C000
03C000
03C000
7FFC00
FFFC00
FFF800
ENDCHAR
STARTCHAR 00CD
ENCODING 205
SWIDTH 480 0
DWIDTH 16 0
BBX 18 28 1 0
BITMAP
000200
000600
000F00
003F80
003E00
003800
000000
07FFC0
07FFC0
07FFC0
0FFF80
007800
00F800
00F000
00F000
00F000
01F000
01E000
01E000
01E000
03E000
03C000
03C000
03C000
03C000
7FFC00
FFFC00
FFF800
ENDCHAR
STARTCHAR 00CE
ENCODING 206
SWIDTH 480 0
DWIDTH 16 0
BBX 18 27 1 1
BITMAP
000C00
003E00
007F00
00F780
006300
000000
07FFC0
07FFC0
07FFC0
0FFF80
007800
00F800
00F000
00F000
00F000
01F000
01E000
01E000
01E000
03E000
03C000
03C000
03C000
03C000
7FFC00
FFFC00
FFF800
ENDCHAR
STARTCHAR 00CF
ENCODING 207
SWIDTH 480 0
DWIDTH 16 0
BBX 18 27 1 0
BITMAP
00E1C0
01F3C0
01F3C0
01E3C0
000000
000000
07FFC0
07FFC0
07FFC0
0FFF80
007800
00F800
00F000
00F000
00F000
01F000
01E000
01E000
01E000
03E000
03C000
03C000
03C000
03C000
7FFC00
FFFC00
FFF800
ENDCHAR
STARTCHAR 00D0
ENCODING 208
SWIDTH 480 0
DWIDTH 16 0
BBX 16 21 2 0
BITMAP
07E0
0FF8
0FFC
0FFE
0F1E
1E1E
1E1F
1E0F
1E1F
FF1F
FF1E
FF1E
3C1E
783E
783C
787C
78F8
F3F8
FFF0
FFC0
FF80
ENDCHAR
STARTCHAR 00D1
ENCODING 209
SWIDTH 480 0
DWIDTH 16 0
BBX 18 27 1 0
BITMAP
007980
00FFC0
01FF80
01DF00
000000
000000
0701C0
0781C0
0F83C0
0F83C0
0FC3C0
0FC380
1FC780
1FC780
1CE780
1CE700
3CEF00
3CEF00
3C6F00
387E00
787E00
787E00
787E00
703C00
F03C00
F03C00
F03C00
ENDCHAR
STARTCHAR 00D2
ENCODING 210
SWIDTH 480 0
DWIDTH 16 0
BBX 16 27 2 1
BITMAP
0060
00F8
00FC
003E
001C
0000
01F8
07FC
0FFE
0FFF
1F1F
3E0F
3C0F
3C0F
780F
780F
781F
781E
F01E
F01E
F03C
F03C
F87C
78F8
7FF0
3FE0
1FC0
ENDCHAR
STARTCHAR 00D3
ENCODING 211
SWIDTH 480 0
DWIDTH 16 0
BBX 16 27 2 1
BITMAP
001C
003C
007E
00F8
00E0
0000
01F8
07FC
0FFE
0FFF
1F1F
3E0F
3C0F
3C0F
780F
780F
781F
781E
F01E
F01E
F03C
F03C
F87C
78F8
7FF0
3FE0
1FC0
ENDCHAR
STARTCHAR 00D4
ENCODING 212
SWIDTH 480 0
DWIDTH 16 0
BBX 16 27 2 1
BITMAP
0038
007C
00FC
03EE
0186
0000
01F8
07FC
0FFE
0FFF
1F1F
3E0F
3C0F
3C0F
780F
780F
781F
781E
F01E
F01E
F03C
F03C
F87C
78F8
7FF0
3FE0
1FC0
ENDCHAR
STARTCHAR 00D5
ENCODING 213
SWIDTH 480 0
DWIDTH 16 0
BBX 17 27 2 0
BITMAP
00F300
01FF80
03FF00
03BE00
000000
000000
01F800
07FC00
0FFE00
0FFF00
1F1F00
3E0F00
3C0F00
3C0F00
780F00
780F00
781F00
781E00
F01E00
F01E00
F03C00
F03C00
F87C00
78F800
7FF000
3FE000
1FC000
ENDCHAR
STARTCHAR 00D6
ENCODING 214
SWIDTH 480 0
DWIDTH 16 0
BBX 17 27 2 0
BITMAP
01C700
03C780
03C780
03C700
000000
000000
01F800
07FC00
0FFE00
0FFF00
1F1F00
3E0F00
3C0F00
3C0F00
780F00
780F00
781F00
781E00
F01E00
F01E00
F03C00
F03C00
F87C00
78F800
7FF000
3FE000
1FC000
ENDCHAR
STARTCHAR 00D7
ENCODING 215
SWIDTH 480 0
DWIDTH 16 0
BBX 14 13 3 3
BITMAP
1818
3C3C
3E7C
1EF8
1FF0
0FE0
0FC0
1FC0
3FE0
FDF0
F0F8
E060
4000
ENDCHAR
STARTCHAR 00D8
ENCODING 216
SWIDTH 480 0
DWIDTH 16 0
BBX 16 23 2 -1
BITMAP
0002
01FF
07FF
0FFE
0F9F
1E3F
3E3F
3C7F
38FF
78EF
79EF
79CF
739E
F79E
F71E
FE3C
FC3C
FC7C
78F8
7FF0
7FE0
FFC0
E000
ENDCHAR
STARTCHAR 00D9
ENCODING 217
SWIDTH 480 0
DWIDTH 16 0
BBX 17 28 2 0
BITMAP
008000
00C000
01E000
03F800
00F800
003800
000000
0F0780
1F0780
1E0780
1E0F80
1E0F00
3E0F00
3C0F00
3C1F00
3C1E00
7C1E00
781E00
783E00
783C00
783C00
F03C00
F07C00
F07800
F8F800
7FF000
7FE000
3FC000
ENDCHAR
STARTCHAR 00DA
ENCODING 218
SWIDTH 480 0
DWIDTH 16 0
BBX 17 27 2 1
BITMAP
000C00
003E00
007E00
00F800
006000
000000
0F0780
1F0780
1E0780
1E0F80
1E0F00
3E0F00
3C0F00
3C1F00
3C1E00
7C1E00
781E00
783E00
783C00
783C00
F03C00
F07C00
F07800
F8F800
7FF000
7FE000
3FC000
ENDCHAR
STARTCHAR 00DB
ENCODING 219
SWIDTH 480 0
DWIDTH 16 0
BBX 17 27 2 1
BITMAP
001800
007C00
00FE00
01EF00
00C600
000000
0F0780
1F0780
1E0780
1E0F80
1E0F00
3E0F00
3C0F00
3C1F00
3C1E00
7C1E00
781E00
783E00
783C00
783C00
F03C00
F07C00
F07800
F8F800
7FF000
7FE000
3FC000
ENDCHAR
STARTCHAR 00DC
ENCODING 220
SWIDTH 480 0
DWIDTH 16 0
BBX 17 27 2 0
BITMAP
01C380
03E780
03E780
03C780
000000
000000
0F0780
1F0780
1E0780
1E0F80
1E0F00
3E0F00
3C0F00
3C1F00
3C1E00
7C1E00
781E00
783E00
783C00
783C00
F03C00
F07C00
F07800
F8F800
7FF000
7FE000
3FC000
ENDCHAR
STARTCHAR 00DD
ENCODING 221
SWIDTH 480 0
DWIDTH 16 0
BBX 16 27 5 1
BITMAP
0070
00F0
01F8
03E0
0180
0000
F01F
F01E
F03C
F07C
F078
70F0
79F0
79E0
7BC0
7FC0
3F80
3F00
3E00
3E00
3C00
3C00
3C00
3C00
7800
7800
7800
ENDCHAR
STARTCHAR 00DE
ENCODING 222
SWIDTH 480 0
DWIDTH 16 0
BBX 17 21 1 0
BITMAP
078000
078000
078000
0FE000
0FFE00
0FFF00
0FFF00
0F0F80
1E0F80
1E0780
1E0F80
1E0F00
3C1F00
3CFE00
3FFE00
3FF800
7FE000
780000
780000
780000
F00000
ENDCHAR
STARTCHAR 00DF
ENCODING 223
SWIDTH 480 0
DWIDTH 16 0
BBX 22 29 -4 -6
BITMAP
0007F0
000FF8
001FFC
003FFC
007C3C
00783C
007878
007878
00F0F0
00F1E0
00F3C0
00F3C0
00F3C0
01E3E0
01E3E0
01E1F0
01E0F8
03E078
03C078
03C8F8
03CFF0
03CFF0
07DFE0
078000
0F8000
7F0000
FF0000
FE0000
300000
ENDCHAR
STARTCHAR 00E0
ENCODING 224
SWIDTH 480 0
DWIDTH 16 0
BBX 15 23 2 0
BITMAP
0040
00E0
01F0
00FC
003C
0018
0000
01FC
07FE
1FFE
3FBE
3C1E
7C3C
783C
F83C
F03C
F078
F078
F078
F8F8
7FF8
7FF8
3F3C
ENDCHAR
STARTCHAR 00E1
ENCODING 225
SWIDTH 480 0
DWIDTH 16 0
BBX 15 23 2 0
BITMAP
0004
001C
003E
007E
0078
0060
0000
01FC
07FE
1FFE
3FBE
3C1E
7C3C
783C
F83C
F03C
F078
F078
F078
F8F8
7FF8
7FF8
3F3C
ENDCHAR
STARTCHAR 00E2
ENCODING 226
SWIDTH 480 0
DWIDTH 16 0
BBX 15 23 2 0
BITMAP
0010
0038
00FC
01FE
01CE
0104
0000
01FC
07FE
1FFE
3FBE
3C1E
7C3C
783C
F83C
F03C
F078
F078
F078
F8F8
7FF8
7FF8
3F3C
ENDCHAR
STARTCHAR 00E3
ENCODING 227
SWIDTH 480 0
DWIDTH 16 0
BBX 16 22 2 0
BITMAP
01F3
03FF
03FF
011C
0000
0000
01FC
07FE
1FFE
3FBE
3C1E
7C3C
783C
F83C
F03C
F078
F078
F078
F8F8
7FF8
7FF8
3F3C
ENDCHAR
STARTCHAR 00E4
ENCODING 228
SWIDTH 480 0
DWIDTH 16 0
BBX 17 22 2 0
BITMAP
03C780
03C780
03C780
038700
000000
000000
01FC00
07FE00
1FFE00
3FBE00
3C1E00
7C3C00
783C00
F83C00
F03C00
F07800
F07800
F07800
F8F800
7FF800
7FF800
3F3C00
ENDCHAR
STARTCHAR 00E5
ENCODING 229
SWIDTH 480 0
DWIDTH 16 0
BBX 15 24 2 0
BITMAP
007C
00FE
00C6
00C6
00EE
007C
0010
0000
01FC
07FE
1FFE
3FBE
3C1E
7C3C
783C
F83C
F03C
F078
F078
F078
F8F8
7FF8
7FF8
3F3C
ENDCHAR
STARTCHAR 00E6
ENCODING 230
SWIDTH 480 0
DWIDTH 16 0
BBX 17 16 1 0
BITMAP
1F0F00
3F9F80
3FBF80
21F380
01E380
01E380
07C700
1FDF00
3FFE00
71F800
E3C000
E3C000
E7C000
FEFE00
FEFE00
7C7E00
ENDCHAR
STARTCHAR 00E7
ENCODING 231
SWIDTH 480 0
DWIDTH 16 0
BBX 14 22 3 -6
BITMAP
03FC
0FFC
1FFC
3FFC
7C00
7800
F000
F000
F000
F000
F000
F000
FC30
FFF0
7FF0
3FF0
0700
0F00
0380
3F80
3F00
1C00
ENDCHAR
STARTCHAR 00E8
ENCODING 232
SWIDTH 480 0
DWIDTH 16 0
BBX 15 23 2 0
BITMAP
0080
00E0
01F0
01F8
0078
0018
0000
01F8
07FC
0FFE
1F3E
3C1E
781E
783E
7BFC
7FF8
FFE0
7800
7800
7C08
7FF8
3FF8
1FF8
ENDCHAR
STARTCHAR 00E9
ENCODING 233
SWIDTH 480 0
DWIDTH 16 0
BBX 15 23 2 0
BITMAP
0008
001C
007C
00FC
00F0
0040
0000
01F8
07FC
0FFE
1F3E
3C1E
781E
783E
7BFC
7FF8
FFE0
7800
7800
7C08
7FF8
3FF8
1FF8
ENDCHAR
STARTCHAR 00EA
ENCODING 234
SWIDTH 480 0
DWIDTH 16 0
BBX 15 23 2 0
BITMAP
0010
0078
00F8
01FC
03CE
0104
0000
01F8
07FC
0FFE
1F3E
3C1E
781E
783E
7BFC
7FF8
FFE0
7800
7800
7C08
7FF8
3FF8
1FF8
ENDCHAR
STARTCHAR 00EB
ENCODING 235
SWIDTH 480 0
DWIDTH 16 0
BBX 16 22 2 0
BITMAP
038F
078F
078F
070E
0000
0000
01F8
07FC
0FFE
1F3E
3C1E
781E
783E
7BFC
7FF8
FFE0
7800
7800
7C08
7FF8
3FF8
1FF8
ENDCHAR
STARTCHAR 00EC
ENCODING 236
SWIDTH 480 0
DWIDTH 16 0
BBX 11 23 4 0
BITMAP
0C00
0E00
1F00
0FC0
07C0
0180
0000
FF80
FF80
FF00
FF00
0F00
0F00
1F00
1E00
1E00
1E00
3E00
3E00
3E20
1FE0
1FE0
0FE0
ENDCHAR
STARTCHAR 00ED
ENCODING 237
SWIDTH 480 0
DWIDTH 16 0
BBX 11 23 4 0
BITMAP
0040
01C0
03E0
07E0
0F80
0600
0000
FF80
FF80
FF00
FF00
0F00
0F00
1F00
1E00
1E00
1E00
3E00
3E00
3E20
1FE0
1FE0
0FE0
ENDCHAR
STARTCHAR 00EE
ENCODING 238
SWIDTH 480 0
DWIDTH 16 0
BBX 12 23 4 0
BITMAP
0100
0380
07C0
1FE0
1CF0
0840
0000
FF80
FF80
FF00
FF00
0F00
0F00
1F00
1E00
1E00
1E00
3E00
3E00
3E20
1FE0
1FE0
0FE0
ENDCHAR
STARTCHAR 00EF
ENCODING 239
SWIDTH 480 0
DWIDTH 16 0
BBX 13 22 4 0
BITMAP
3C78
3CF8
3CF8
3870
0000
0000
FF80
FF80
FF00
FF00
0F00
0F00
1F00
1E00
1E00
1E00
3E00
3E00
3E20
1FE0
1FE0
0FE0
ENDCHAR
STARTCHAR 00F0
ENCODING 240
SWIDTH 480 0
DWIDTH 16 0
BBX 17 23 2 0
BITMAP
002000
00F000
00F980
007F80
00FF80
01FC00
01DE00
001E00
001E00
07FE00
1FFE00
3FFE00
3E7E00
783E00
783C00
F03C00
F03C00
F07800
F0F800
F9F000
7FF000
7FE000
3F8000
ENDCHAR
STARTCHAR 00F1
ENCODING 241
SWIDTH 480 0
DWIDTH 16 0
BBX 15 22 2 0
BITMAP
03E6
07FE
07FE
0238
0000
0000
07F0
1FFC
1FFC
3FFC
3C3E
3C3E
3C3C
7C3C
783C
783C
7878
7878
F078
F078
F0F0
F0F0
ENDCHAR
STARTCHAR 00F2
ENCODING 242
SWIDTH 480 0
DWIDTH 16 0
BBX 15 23 2 0
BITMAP
0080
01C0
03E0
01F8
0078
0030
0000
03F0
0FF8
1FFC
3F7E
3C3E
781E
781E
781E
F03E
F03C
F03C
F87C
F8F8
7FF0
7FE0
3FC0
ENDCHAR
STARTCHAR 00F3
ENCODING 243
SWIDTH 480 0
DWIDTH 16 0
BBX 15 23 2 0
BITMAP
0010
0038
007C
01F8
01F0
00C0
0000
03F0
0FF8
1FFC
3F7E
3C3E
781E
781E
781E
F03E
F03C
F03C
F87C
F8F8
7FF0
7FE0
3FC0
ENDCHAR
STARTCHAR 00F4
ENCODING 244
SWIDTH 480 0
DWIDTH 16 0
BBX 15 23 2 0
BITMAP
0020
0070
00F8
01FC
039E
010C
0000
03F0
0FF8
1FFC
3F7E
3C3E
781E
781E
781E
F03E
F03C
F03C
F87C
F8F8
7FF0
7FE0
3FC0
ENDCHAR
STARTCHAR 00F5
ENCODING 245
SWIDTH 480 0
DWIDTH 16 0
BBX 15 22 2 0
BITMAP
03E6
07FE
07FE
0238
0000
0000
03F0
0FF8
1FFC
3F7E
3C3E
781E
781E
781E
F03E
F03C
F03C
F87C
F8F8
7FF0
7FE0
3FC0
ENDCHAR
STARTCHAR 00F6
ENCODING 246
SWIDTH 480 0
DWIDTH 16 0
BBX 16 22 2 0
BITMAP
078F
078F
078F
070E
0000
0000
03F0
0FF8
1FFC
3F7E
3C3E
781E
781E
781E
F03E
F03C
F03C
F87C
F8F8
7FF0
7FE0
3FC0
ENDCHAR
STARTCHAR 00F7
ENCODING 247
SWIDTH 480 0
DWIDTH 16 0
BBX 14 17 3 0
BITMAP
01E0
03E0
03E0
03C0
0180
0000
0000
FFFC
FFFC
FFFC
0000
0000
0E00
1F00
1F00
1F00
0C00
ENDCHAR
STARTCHAR 00F8
ENCODING 248
SWIDTH 480 0
DWIDTH 16 0
BBX 15 18 3 -2
BITMAP
0004
03FE
0FFC
1FFC
3E7C
7C7E
78FE
71DE
F3DE
F7BC
FF3C
FE3C
FC78
F8F8
FFF0
7FE0
FFC0
C000
ENDCHAR
STARTCHAR 00F9
ENCODING 249
SWIDTH 480 0
DWIDTH 16 0
BBX 14 23 3 0
BITMAP
0200
0780
07C0
07E0
01E0
0060
0000
3C3C
3C3C
783C
783C
787C
7878
F878
F078
F0F8
F0F0
F0F0
F0F0
F3F0
FFF0
FFF0
7E78
ENDCHAR
STARTCHAR 00FA
ENCODING 250
SWIDTH 480 0
DWIDTH 16 0
BBX 14 23 3 0
BITMAP
0020
0070
00F8
03F0
03C0
0100
0000
3C3C
3C3C
783C
783C
787C
7878
F878
F078
F0F8
F0F0
F0F0
F0F0
F3F0
FFF0
FFF0
7E78
ENDCHAR
STARTCHAR 00FB
ENCODING 251
SWIDTH 480 0
DWIDTH 16 0
BBX 14 23 3 0
BITMAP
0040
00E0
01F0
07F8
0738
0610
0000
3C3C
3C3C
783C
783C
787C
7878
F878
F078
F0F8
F0F0
F0F0
F0F0
F3F0
FFF0
FFF0
7E78
ENDCHAR
STARTCHAR 00FC
ENCODING 252
SWIDTH 480 0
DWIDTH 16 0
BBX 14 22 3 0
BITMAP
0F1C
1F3C
1F3C
0E18
0000
0000
3C3C
3C3C
783C
783C
787C
7878
F878
F078
F0F8
F0F0
F0F0
F0F0
F3F0
FFF0
FFF0
7E78
ENDCHAR
STARTCHAR 00FD
ENCODING 253
SWIDTH 480 0
DWIDTH 16 0
BBX 19 29 -1 -6
BITMAP
000200
000700
000F80
003F00
003C00
001000
000000
0781E0
0781E0
0783C0
0783C0
0787C0
078780
078780
07CF00
03CF00
03DE00
03DE00
03FC00
03FC00
01F800
01F000
01F000
03E000
07C000
FF8000
FF0000
FE0000
300000
ENDCHAR
STARTCHAR 00FE
ENCODING 254
SWIDTH 480 0
DWIDTH 16 0
BBX 17 29 0 -6
BITMAP
01E000
03E000
03C000
03C000
03C000
07C000
078000
07FC00
07FE00
07FF00
0FDF80
0F0780
0F0780
0F0780
1E0780
1E0F80
1E0F00
1E1F00
3C1F00
3C7E00
3FFC00
3FF800
7FE000
780000
780000
780000
F80000
F00000
F00000
ENDCHAR
STARTCHAR 00FF
ENCODING 255
SWIDTH 480 0
DWIDTH 16 0
BBX 19 28 -1 -6
BITMAP
00F1C0
01F3C0
01F3C0
00E380
000000
000000
0781E0
0781E0
0783C0
0783C0
0787C0
078780
078780
07CF00
03CF00
03DE00
03DE00
03FC00
03FC00
01F800
01F000
01F000
03E000
07C000
FF8000
FF0000
FE0000
300000
ENDCHAR
STARTCHAR 0100
ENCODING 256
SWIDTH 480 0
DWIDTH 16 0
BBX 18 26 0 0
BITMAP
007FC0
007FC0
00FFC0
000000
000000
003E00
003E00
007E00
007E00
00FE00
01EE00
01EE00
03CE00
03CE00
078F00
078F00
0F0F00
0F0F00
1FFF00
1FFF00
3FFF00
3C0F00
780F00
780F00
F80F00
F00F00
ENDCHAR
STARTCHAR 0101
ENCODING 257
SWIDTH 480 0
DWIDTH 16 0
BBX 17 22 2 0
BITMAP
01FF80
01FF00
01FF00
000000
000000
000000
01FC00
07FE00
1FFE00
3FBE00
3C1E00
7C3C00
783C00
F83C00
F03C00
F07800
F07800
F07800
F8F800
7FF800
7FF800
3F3C00
ENDCHAR
STARTCHAR 0102
ENCODING 258
SWIDTH 480 0
DWIDTH 16 0
BBX 19 27 0 0
BITMAP
0071E0
0079C0
003FC0
003F80
000400
000000
003E00
003E00
007E00
007E00
00FE00
01EE00
01EE00
03CE00
03CE00
078F00
078F00
0F0F00
0F0F00
1FFF00
1FFF00
3FFF00
3C0F00
780F00
780F00
F80F00
F00F00
ENDCHAR
STARTCHAR 0103
ENCODING 259
SWIDTH 480 0
DWIDTH 16 0
BBX 16 23 2 0
BITMAP
01C7
01C7
01FF
01FE
00FC
0000
0000
01FC
07FE
1FFE
3FBE
3C1E
7C3C
783C
F83C
F03C
F078
F078
F078
F8F8
7FF8
7FF8
3F3C
ENDCHAR
STARTCHAR 0104
ENCODING 260
SWIDTH 480 0
DWIDTH 16 0
BBX 16 27 0 -6
BITMAP
001E
003E
003E
007E
00FF
00EF
01EF
01CF
03CF
03CF
078F
078F
0F0F
0FFF
1FFF
1FFF
3C0F
3C0F
780F
780F
F80F
000F
001C
003C
007F
003F
001C
ENDCHAR
STARTCHAR 0105
ENCODING 261
SWIDTH 480 0
DWIDTH 16 0
BBX 15 22 2 -6
BITMAP
01FC
07FE
1FFE
3FBE
3C1E
7C3C
783C
F83C
F03C
F078
F078
F078
F8F8
7FF8
7FF8
3F3C
0078
00E0
01E0
03F8
01F8
00E0
ENDCHAR
STARTCHAR 0106
ENCODING 262
SWIDTH 480 0
DWIDTH 16 0
BBX 16 27 3 1
BITMAP
001C
003C
007E
00F8
0060
0000
00FC
03FF
0FFF
1FDE
1F02
3E00
3C00
7800
7800
F800
F000
F000
F000
F000
F000
F000
F800
FC30
7FF0
3FF0
1FE0
ENDCHAR
STARTCHAR 0107
ENCODING 263
SWIDTH 480 0
DWIDTH 16 0
BBX 14 23 3 0
BITMAP
0008
001C
007C
00FC
00F0
00C0
0000
03FC
0FFC
1FFC
3FFC
7C00
7800
F000
F000
F000
F000
F000
F000
FC30
FFF0
7FF0
1FF0
ENDCHAR
STARTCHAR 0108
ENCODING 264
SWIDTH 480 0
DWIDTH 16 0
BBX 16 28 3 0
BITMAP
0008
0018
003C
00FE
01EF
00C6
0000
00FC
03FF
0FFF
1FDE
1F02
3E00
3C00
7800
7800
F800
F000
F000
F000
F000
F000
F000
F800
FC30
7FF0
3FF0
1FE0
ENDCHAR
STARTCHAR 0109
ENCODING 265
SWIDTH 480 0
DWIDTH 16 0
BBX 15 23 3 0
BITMAP
0010
0070
00F8
01FC
039E
0104
0000
03FC
0FFC
1FFC
3FFC
7C00
7800
F000
F000
F000
F000
F000
F000
FC30
FFF0
7FF0
1FF0
ENDCHAR
STARTCHAR 010A
ENCODING 266
SWIDTH 480 0
DWIDTH 16 0
BBX 16 27 3 0
BITMAP
0038
007C
007C
0078
0000
0000
00FC
03FF
0FFF
1FDE
1F02
3E00
3C00
7800
7800
F800
F000
F000
F000
F000
F000
F000
F800
FC30
7FF0
3FF0
1FE0
ENDCHAR
STARTCHAR 010B
ENCODING 267
SWIDTH 480 0
DWIDTH 16 0
BBX 14 22 3 1
BITMAP
0070
00F8
00F8
0070
0000
0000
03FC
0FFC
1FFC
3FFC
7C00
7800
F000
F000
F000
F000
F000
F000
FC30
FFF0
7FF0
1FF0
ENDCHAR
STARTCHAR 010C
ENCODING 268
SWIDTH 480 0
DWIDTH 16 0
BBX 16 27 3 1
BITMAP
00C7
00EF
007E
0078
0030
0000
00FC
03FF
0FFF
1FDE
1F02
3E00
3C00
7800
7800
F800
F000
F000
F000
F000
F000
F000
F800
FC30
7FF0
3FF0
1FE0
ENDCHAR
STARTCHAR 010D
ENCODING 269
SWIDTH 480 0
DWIDTH 16 0
BBX 15 23 3 0
BITMAP
0084
03CE
01FE
00F8
0070
0020
0000
03FC
0FFC
1FFC
3FFC
7C00
7800
F000
F000
F000
F000
F000
F000
FC30
FFF0
7FF0
1FF0
ENDCHAR
STARTCHAR 010E
ENCODING 270
SWIDTH 480 0
DWIDTH 16 0
BBX 17 27 1 1
BITMAP
00C700
00EF00
007E00
007800
003000
000000
03F000
07FC00
0FFE00
0FFF00
0F0F00
0F0F00
1F0F80
1E0F80
1E0F80
1E0F80
1E0F00
3C0F00
3C0F00
3C1F00
3C1E00
783E00
787C00
79FC00
7FF800
FFE000
FF8000
ENDCHAR
STARTCHAR 010F
ENCODING 271
SWIDTH 480 0
DWIDTH 16 0
BBX 21 23 1 0
BITMAP
000F78
000F78
001F70
001E70
001EE0
001EE0
003EE0
03FC00
0FFC00
1FFC00
3F7C00
3C7800
787800
787800
F87800
F0F000
F0F000
F0F000
F0F000
F9F000
FFF000
7FF000
3E7000
ENDCHAR
STARTCHAR 0110
ENCODING 272
SWIDTH 480 0
DWIDTH 16 0
BBX 16 21 2 0
BITMAP
07E0
0FF8
0FFC
0FFE
0F1E
1E1E
1E1F
1E0F
1E1F
FF1F
FF1E
FF1E
3C1E
783E
783C
787C
78F8
F3F8
FFF0
FFC0
FF80
ENDCHAR
STARTCHAR 0111
ENCODING 273
SWIDTH 480 0
DWIDTH 16 0
BBX 18 23 2 0
BITMAP
000780
000F00
01FFC0
01FFC0
01FFC0
001F00
001E00
01FE00
07FE00
1FFE00
3FFC00
3C3C00
783C00
787C00
F87800
F07800
F07800
F07800
F0F800
F9F800
7FF800
7FF800
3F7800
ENDCHAR
STARTCHAR 0112
ENCODING 274
SWIDTH 480 0
DWIDTH 16 0
BBX 17 26 2 0
BITMAP
01FF80
01FF80
01FF80
000000
000000
07FF80
0FFF80
0FFF00
0FFF00
0F0000
1F0000
1E0000
1E0000
1FFC00
1FFC00
3FF800
3FF800
3C0000
3C0000
780000
780000
780000
780000
FFF800
FFF800
FFF800
ENDCHAR
STARTCHAR 0113
ENCODING 275
SWIDTH 480 0
DWIDTH 16 0
BBX 16 22 2 0
BITMAP
01FF
01FF
03FF
0000
0000
0000
01F8
07FC
0FFE
1F3E
3C1E
781E
783E
7BFC
7FF8
FFE0
7800
7800
7C08
7FF8
3FF8
1FF8
ENDCHAR
STARTCHAR 0114
ENCODING 276
SWIDTH 480 0
DWIDTH 16 0
BBX 17 27 2 0
BITMAP
00E380
00F780
00FF00
007E00
001000
000000
07FF80
0FFF80
0FFF00
0FFF00
0F0000
1F0000
1E0000
1E0000
1FFC00
1FFC00
3FF800
3FF800
3C0000
3C0000
780000
780000
780000
780000
FFF800
FFF800
FFF800
ENDCHAR
STARTCHAR 0115
ENCODING 277
SWIDTH 480 0
DWIDTH 16 0
BBX 17 23 2 0
BITMAP
01C780
01C700
01FF00
00FE00
007C00
000000
000000
01F800
07FC00
0FFE00
1F3E00
3C1E00
781E00
783E00
7BFC00
7FF800
FFE000
780000
780000
7C0800
7FF800
3FF800
1FF800
ENDCHAR
STARTCHAR 0116
ENCODING 278
SWIDTH 480 0
DWIDTH 16 0
BBX 17 27 2 0
BITMAP
003C00
003C00
003C00
003C00
001000
000000
07FF80
0FFF80
0FFF00
0FFF00
0F0000
1F0000
1E0000
1E0000
1FFC00
1FFC00
3FF800
3FF800
3C0000
3C0000
780000
780000
780000
780000
FFF800
FFF800
FFF800
ENDCHAR
STARTCHAR 0117
ENCODING 279
SWIDTH 480 0
DWIDTH 16 0
BBX 15 23 2 0
BITMAP
0010
0078
007C
0078
0078
0000
0000
01F8
07FC
0FFE
1F3E
3C1E
781E
783E
7BFC
7FF8
FFE0
7800
7800
7C08
7FF8
3FF8
1FF8
ENDCHAR
STARTCHAR 0118
ENCODING 280
SWIDTH 480 0
DWIDTH 16 0
BBX 17 27 2 -6
BITMAP
07FF80
0FFF80
0FFF00
0FFF00
0F0000
1F0000
1E0000
1E0000
1FFC00
1FFC00
3FF800
3FF800
3C0000
3C0000
780000
780000
780000
780000
FFF800
FFF800
FFF800
00F000
01E000
03C000
03F000
03F000
01E000
ENDCHAR
STARTCHAR 0119
ENCODING 281
SWIDTH 480 0
DWIDTH 16 0
BBX 15 22 2 -6
BITMAP
01F8
07FC
0FFE
1F3E
3C1E
781E
783E
7BFC
7FF8
FFE0
7800
7800
7C08
7FF8
3FF8
1FF8
00E0
03C0
0780
07E0
07E0
01C0
ENDCHAR
STARTCHAR 011A
ENCODING 282
SWIDTH 480 0
DWIDTH 16 0
BBX 17 28 2 0
BITMAP
000100
00E380
007F80
007E00
003C00
001800
000000
07FF80
0FFF80
0FFF00
0FFF00
0F0000
1F0000
1E0000
1E0000
1FFC00
1FFC00
3FF800
3FF800
3C0000
3C0000
780000
780000
780000
780000
FFF800
FFF800
FFF800
ENDCHAR
STARTCHAR 011B
ENCODING 283
SWIDTH 480 0
DWIDTH 16 0
BBX 15 23 2 0
BITMAP
0086
01CE
01FE
00F8
0070
0020
0000
01F8
07FC
0FFE
1F3E
3C1E
781E
783E
7BFC
7FF8
FFE0
7800
7800
7C08
7FF8
3FF8
1FF8
ENDCHAR
STARTCHAR 011C
ENCODING 284
SWIDTH 480 0
DWIDTH 16 0
BBX 16 27 3 1
BITMAP
0038
007C
00FC
01EE
0186
0000
01FC
07FF
0FFF
1FDE
3F02
3C00
7C00
7800
F800
F000
F03C
F03C
F03C
F078
F078
F078
F078
F8F0
FFF0
7FF0
3FF0
ENDCHAR
STARTCHAR 011D
ENCODING 285
SWIDTH 480 0
DWIDTH 16 0
BBX 18 29 0 -6
BITMAP
000200
000E00
001F00
003F80
0073C0
002080
000000
007F00
01FFC0
07FF80
07E780
0F8780
1F0780
1E0F00
1E0F00
1E0F00
1E0F00
1E1E00
1F3E00
1FFE00
0FFE00
07FE00
003C00
003C00
607800
7FF800
FFF000
FFE000
040000
ENDCHAR
STARTCHAR 011E
ENCODING 286
SWIDTH 480 0
DWIDTH 16 0
BBX 16 27 3 0
BITMAP
01C7
01EF
01FE
00FC
0020
0000
01FC
07FF
0FFF
1FDE
3F02
3C00
7C00
7800
F800
F000
F03C
F03C
F03C
F078
F078
F078
F078
F8F0
FFF0
7FF0
3FF0
ENDCHAR
STARTCHAR 011F
ENCODING 287
SWIDTH 480 0
DWIDTH 16 0
BBX 19 29 0 -6
BITMAP
0070E0
0071E0
007FC0
003F80
001F00
000000
000000
007F00
01FFC0
07FF80
07E780
0F8780
1F0780
1E0F00
1E0F00
1E0F00
1E0F00
1E1E00
1F3E00
1FFE00
0FFE00
07FE00
003C00
003C00
607800
7FF800
FFF000
FFE000
040000
ENDCHAR
STARTCHAR 0120
ENCODING 288
SWIDTH 480 0
DWIDTH 16 0
BBX 16 27 3 0
BITMAP
0038
007C
007C
0078
0000
0000
01FC
07FF
0FFF
1FDE
3F02
3C00
7C00
7800
F800
F000
F03C
F03C
F03C
F078
F078
F078
F078
F8F0
FFF0
7FF0
3FF0
ENDCHAR
STARTCHAR 0121
ENCODING 289
SWIDTH 480 0
DWIDTH 16 0
BBX 18 28 0 -5
BITMAP
000E00
001F00
001F00
000E00
000000
000000
007F00
01FFC0
07FF80
07E780
0F8780
1F0780
1E0F00
1E0F00
1E0F00
1E0F00
1E1E00
1F3E00
1FFE00
0FFE00
07FE00
003C00
003C00
607800
7FF800
FFF000
FFE000
040000
ENDCHAR
STARTCHAR 0122
ENCODING 290
SWIDTH 480 0
DWIDTH 16 0
BBX 16 27 3 -6
BITMAP
01FC
07FF
0FFF
1FDE
3F02
3C00
7C00
7800
F800
F000
F03C
F03C
F03C
F078
F078
F078
F078
F8F0
FFF0
7FF0
3FF0
0000
0E00
0E00
7E00
7C00
7000
ENDCHAR
STARTCHAR 0123
ENCODING 291
SWIDTH 480 0
DWIDTH 16 0
BBX 18 29 0 -5
BITMAP
000700
000F80
000E00
001E00
001E00
000000
000000
007F00
01FFC0
07FF80
07E780
0F8780
1F0780
1E0F00
1E0F00
1E0F00
1E0F00
1E1E00
1F3E00
1FFE00
0FFE00
07FE00
003C00
003C00
607800
7FF800
FFF000
FFE000
040000
ENDCHAR
STARTCHAR 0124
ENCODING 292
SWIDTH 480 0
DWIDTH 16 0
BBX 19 27 1 1
BITMAP
000C00
003E00
007F00
00F780
006300
000000
0783E0
0783C0
0F03C0
0F03C0
0F07C0
0F0780
1E0780
1E0780
1FFF80
1FFF00
3FFF00
3FFF00
3C0F00
3C1E00
7C1E00
781E00
781E00
783C00
F83C00
F03C00
F03C00
ENDCHAR
STARTCHAR 0125
ENCODING 293
SWIDTH 480 0
DWIDTH 16 0
BBX 15 27 2 1
BITMAP
00E0
01F0
03FC
0318
0000
0180
0F00
0F00
0F00
0F00
1F00
1FF0
1FFC
1FFC
3FFC
3C3E
3C3E
3C3C
7C3C
783C
783C
7878
7878
F078
F078
F0F0
F0F0
ENDCHAR
STARTCHAR 0126
ENCODING 294
SWIDTH 480 0
DWIDTH 16 0
BBX 18 21 2 0
BITMAP
078F80
0F8F00
0F0F00
3FFFC0
3FFF80
3FFF80
1E1E00
1E1E00
1FFE00
1FFC00
3FFC00
3FFC00
3C3C00
3C7800
787800
787800
787800
78F800
F0F000
F0F000
F0F000
ENDCHAR
STARTCHAR 0127
ENCODING 295
SWIDTH 480 0
DWIDTH 16 0
BBX 15 23 2 0
BITMAP
0380
0780
1FF8
1FF8
1FF8
0F00
0F00
0FF0
1FFC
1FFC
1FFC
1E3E
3E3C
3C3C
3C3C
3C3C
7C3C
7878
7878
7878
F878
F0F0
F0F0
ENDCHAR
STARTCHAR 0128
ENCODING 296
SWIDTH 480 0
DWIDTH 16 0
BBX 18 27 1 0
BITMAP
007180
00FFC0
01FF80
01DF00
000000
000000
07FFC0
07FFC0
07FFC0
0FFF80
007800
00F800
00F000
00F000
00F000
01F000
01E000
01E000
01E000
03E000
03C000
03C000
03C000
03C000
7FFC00
FFFC00
FFF800
ENDCHAR
STARTCHAR 0129
ENCODING 297
SWIDTH 480 0
DWIDTH 16 0
BBX 13 22 4 0
BITMAP
0FB8
1FF8
3FF0
19E0
0000
0000
FF80
FF80
FF00
FF00
0F00
0F00
1F00
1E00
1E00
1E00
3E00
3E00
3E20
1FE0
1FE0
0FE0
ENDCHAR
STARTCHAR 012A
ENCODING 298
SWIDTH 480 0
DWIDTH 16 0
BBX 18 26 1 0
BITMAP
00FFC0
00FFC0
00FF80
000000
000000
07FFC0
07FFC0
07FFC0
0FFF80
007800
00F800
00F000
00F000
00F000
01F000
01E000
01E000
01E000
03E000
03C000
03C000
03C000
03C000
7FFC00
FFFC00
FFF800
ENDCHAR
STARTCHAR 012B
ENCODING 299
SWIDTH 480 0
DWIDTH 16 0
BBX 13 22 4 0
BITMAP
1FF8
1FF8
1FF0
0000
0000
0000
FF80
FF80
FF00
FF00
0F00
0F00
1F00
1E00
1E00
1E00
3E00
3E00
3E20
1FE0
1FE0
0FE0
ENDCHAR
STARTCHAR 012C
ENCODING 300
SWIDTH 480 0
DWIDTH 16 0
BBX 18 27 1 0
BITMAP
00E3C0
00F380
007F80
007F00
000800
000000
07FFC0
07FFC0
07FFC0
0FFF80
007800
00F800
00F000
00F000
00F000
01F000
01E000
01E000
01E000
03E000
03C000
03C000
03C000
03C000
7FFC00
FFFC00
FFF800
ENDCHAR
STARTCHAR 012D
ENCODING 301
SWIDTH 480 0
DWIDTH 16 0
BBX 13 23 4 0
BITMAP
0E38
0E78
0FF0
0FF0
07C0
0000
0000
FF80
FF80
FF00
FF00
0F00
0F00
1F00
1E00
1E00
1E00
3E00
3E00
3E20
1FE0
1FE0
0FE0
ENDCHAR
STARTCHAR 012E
ENCODING 302
SWIDTH 480 0
DWIDTH 16 0
BBX 18 27 1 -6
BITMAP
07FFC0
07FFC0
07FFC0
0FFF80
007800
00F800
00F000
00F000
00F000
01F000
01E000
01E000
01E000
03E000
03C000
03C000
03C000
03C000
7FFC00
FFFC00
FFF800
0F0000
1E0000
3C0000
3F0000
3F0000
0E0000
ENDCHAR
STARTCHAR 012F
ENCODING 303
SWIDTH 480 0
DWIDTH 16 0
BBX 11 29 4 -6
BITMAP
0380
07C0
07C0
07C0
0780
0000
0000
FF80
FF80
FF00
FF00
0F00
0F00
1F00
1E00
1E00
1E00
3E00
3E00
3E20
1FE0
1FE0
0FE0
03C0
0780
0F00
0FC0
0FC0
0780
ENDCHAR
STARTCHAR 0130
ENCODING 304
SWIDTH 480 0
DWIDTH 16 0
BBX 18 27 1 0
BITMAP
001C00
003E00
003E00
003C00
000000
000000
07FFC0
07FFC0
07FFC0
0FFF80
007800
00F800
00F000
00F000
00F000
01F000
01E000
01E000
01E000
03E000
03C000
03C000
03C000
03C000
7FFC00
FFFC00
FFF800
ENDCHAR
STARTCHAR 0131
ENCODING 305
SWIDTH 480 0
DWIDTH 16 0
BBX 11 16 4 0
BITMAP
FF80
FF80
FF00
FF00
0F00
0F00
1F00
1E00
1E00
1E00
3E00
3E00
3E20
1FE0
1FE0
0FE0
ENDCHAR
STARTCHAR 0132
ENCODING 306
SWIDTH 480 0
DWIDTH 16 0
BBX 19 21 1 0
BITMAP
0F01E0
0F01E0
0F01E0
0E03C0
1E03C0
1E03C0
1E03C0
1E0380
3C0780
3C0780
3C0780
3C0700
780F00
780F00
780F00
780E00
701E00
F21E00
F7FC00
FFFC00
E3F800
ENDCHAR
STARTCHAR 0133
ENCODING 307
SWIDTH 480 0
DWIDTH 16 0
BBX 17 29 2 -6
BITMAP
030700
078F80
0FCF80
0F8F80
078F00
000000
000000
0F1F00
0F1E00
1F1E00
1E1E00
1E3E00
1E3C00
1E3C00
3C3C00
3C7C00
3C7800
3C7800
787800
78F800
78F000
78F000
F0F000
01F000
03E000
1FE000
1FC000
1F8000
040000
ENDCHAR
STARTCHAR 0134
ENCODING 308
SWIDTH 480 0
DWIDTH 16 0
BBX 17 27 2 1
BITMAP
000C00
003E00
007F00
00F700
00C300
000000
03FF80
03FF00
07FF00
07FF00
001F00
001E00
001E00
001E00
001E00
003C00
003C00
003C00
003C00
007800
007800
007800
40F800
E1F000
FFF000
FFE000
7F8000
ENDCHAR
STARTCHAR 0135
ENCODING 309
SWIDTH 480 0
DWIDTH 16 0
BBX 17 29 0 -6
BITMAP
000800
001C00
003E00
007F00
00E780
004300
000000
07FF00
07FF00
07FE00
07FE00
001E00
003E00
003C00
003C00
003C00
007C00
007800
007800
007800
007800
00F000
00F000
00F000
61F000
7FE000
FFC000
FF8000
0E0000
ENDCHAR
STARTCHAR 0136
ENCODING 310
SWIDTH 480 0
DWIDTH 16 0
BBX 19 27 1 -6
BITMAP
0783E0
0783C0
0F8780
0F0F80
0F1F00
0F3E00
1F7C00
1E7800
1FF000
1FE000
1FC000
3FE000
3DF000
3CF000
3CF800
787800
787C00
783C00
783C00
F83E00
F01E00
000000
070000
070000
3F0000
3E0000
380000
ENDCHAR
STARTCHAR 0137
ENCODING 311
SWIDTH 480 0
DWIDTH 16 0
BBX 17 29 2 -6
BITMAP
038000
078000
078000
0F8000
0F0000
0F0000
0F0000
0F0F80
1E1F00
1E3E00
1E7C00
1EF800
3DF000
3FE000
3FC000
3FC000
7BE000
79E000
78F000
78F000
F8F800
F07800
F07C00
000000
070000
0F0000
3E0000
7E0000
300000
ENDCHAR
STARTCHAR 0138
ENCODING 312
SWIDTH 480 0
DWIDTH 16 0
BBX 17 16 2 0
BITMAP
0F0F80
1E1F00
1E3E00
1E7C00
1EF800
3DF000
3FE000
3FC000
3FC000
7BE000
79E000
78F000
78F000
F8F800
F07800
F07C00
ENDCHAR
STARTCHAR 0139
ENCODING 313
SWIDTH 480 0
DWIDTH 16 0
BBX 13 27 2 1
BITMAP
0060
01F0
03F0
07C0
0300
0000
0F80
0F00
0F00
0F00
1F00
1E00
1E00
1E00
3E00
3C00
3C00
3C00
3C00
7800
7800
7800
7800
F000
FFF8
FFF8
FFF0
ENDCHAR
STARTCHAR 013A
ENCODING 314
SWIDTH 480 0
DWIDTH 16 0
BBX 11 27 5 1
BITMAP
00E0
03E0
0FE0
0F00
0000
FF80
FF00
FF00
FF00
0F00
1F00
1E00
1E00
1E00
3E00
3C00
3C00
3C00
3C00
7800
7800
7800
7800
7C40
7FC0
7FC0
3FC0
ENDCHAR
STARTCHAR 013B
ENCODING 315
SWIDTH 480 0
DWIDTH 16 0
BBX 13 27 2 -6
BITMAP
0F80
0F00
0F00
0F00
1F00
1E00
1E00
1E00
3E00
3C00
3C00
3C00
3C00
7800
7800
7800
7800
F000
FFF8
FFF8
FFF0
0000
0700
0F00
3E00
7E00
3000
ENDCHAR
STARTCHAR 013C
ENCODING 316
SWIDTH 480 0
DWIDTH 16 0
BBX 10 29 5 -6
BITMAP
7F80
FF80
FF00
0F00
0F00
0F00
1F00
1E00
1E00
1E00
3E00
3C00
3C00
3C00
3C00
7800
7800
7800
7800
7C40
7FC0
7FC0
3FC0
0000
1E00
1C00
7C00
F800
E000
ENDCHAR
STARTCHAR 013D
ENCODING 317
SWIDTH 480 0
DWIDTH 16 0
BBX 15 21 2 0
BITMAP
0F9E
0F1E
0F1C
0F1C
1F3C
1E38
1E38
1E30
3E00
3C00
3C00
3C00
3C00
7800
7800
7800
7800
F000
FFF8
FFF8
FFF0
ENDCHAR
STARTCHAR 013E
ENCODING 318
SWIDTH 480 0
DWIDTH 16 0
BBX 15 23 5 0
BITMAP
7F8E
FF9E
FF1E
0F1C
0F1C
0F38
1F38
1E00
1E00
1E00
3E00
3C00
3C00
3C00
3C00
7800
7800
7800
7800
7C40
7FC0
7FC0
3FC0
ENDCHAR
STARTCHAR 013F
ENCODING 319
SWIDTH 480 0
DWIDTH 16 0
BBX 14 21 2 0
BITMAP
0F80
0F00
0F00
0F00
1F00
1E00
1E00
1E00
3E3C
3C3C
3C3C
3C3C
3C00
7800
7800
7800
7800
F000
FFF8
FFF8
FFF0
ENDCHAR
STARTCHAR 0140
ENCODING 320
SWIDTH 480 0
DWIDTH 16 0
BBX 15 23 5 0
BITMAP
7F80
FF80
FF00
0F00
0F00
0F00
1F00
1E00
1E00
1E00
3E1C
3C3E
3C3E
3C3C
3C00
7800
7800
7800
7800
7C40
7FC0
7FC0
3FC0
ENDCHAR
STARTCHAR 0141
ENCODING 321
SWIDTH 480 0
DWIDTH 16 0
BBX 13 21 2 0
BITMAP
03C0
0780
0780
0780
0780
0F80
0F70
0FF0
0FF0
1FC0
7F00
FE00
FE00
FE00
3C00
3C00
3C00
3C00
7FF8
7FF8
7FF0
ENDCHAR
STARTCHAR 0142
ENCODING 322
SWIDTH 480 0
DWIDTH 16 0
BBX 11 23 4 0
BITMAP
3FC0
7FC0
7FC0
0780
0780
0780
0F80
0F60
0FE0
0FE0
3F80
FE00
FE00
5E00
1E00
3C00
3C00
3C00
3C00
3E20
3FE0
3FE0
1FE0
ENDCHAR
STARTCHAR 0143
ENCODING 323
SWIDTH 480 0
DWIDTH 16 0
BBX 18 28 1 0
BITMAP
000200
000600
000F00
003F80
003E00
003800
000000
0701C0
0781C0
0F83C0
0F83C0
0FC3C0
0FC380
1FC780
1FC780
1CE780
1CE700
3CEF00
3CEF00
3C6F00
387E00
787E00
787E00
787E00
703C00
F03C00
F03C00
F03C00
ENDCHAR
STARTCHAR 0144
ENCODING 324
SWIDTH 480 0
DWIDTH 16 0
BBX 15 23 2 0
BITMAP
0008
0038
007C
00FC
00F0
00C0
0000
07F0
1FFC
1FFC
3FFC
3C3E
3C3E
3C3C
7C3C
783C
783C
7878
7878
F078
F078
F0F0
F0F0
ENDCHAR
STARTCHAR 0145
ENCODING 325
SWIDTH 480 0
DWIDTH 16 0
BBX 18 27 1 -6
BITMAP
0701C0
0781C0
0F83C0
0F83C0
0FC3C0
0FC380
1FC780
1FC780
1CE780
1CE700
3CEF00
3CEF00
3C6F00
387E00
787E00
787E00
787E00
703C00
F03C00
F03C00
F03C00
000000
070000
070000
3F0000
3E0000
380000
ENDCHAR
STARTCHAR 0146
ENCODING 326
SWIDTH 480 0
DWIDTH 16 0
BBX 15 22 2 -6
BITMAP
07F0
1FFC
1FFC
3FFC
3C3E
3C3E
3C3C
7C3C
783C
783C
7878
7878
F078
F078
F0F0
F0F0
0000
0E00
0E00
7E00
7C00
7000
ENDCHAR
STARTCHAR 0147
ENCODING 327
SWIDTH 480 0
DWIDTH 16 0
BBX 18 27 1 1
BITMAP
006380
007F80
003F00
001C00
001800
000000
0701C0
0781C0
0F83C0
0F83C0
0FC3C0
0FC380
1FC780
1FC780
1CE780
1CE700
3CEF00
3CEF00
3C6F00
387E00
787E00
787E00
787E00
703C00
F03C00
F03C00
F03C00
ENDCHAR
STARTCHAR 0148
ENCODING 328
SWIDTH 480 0
DWIDTH 16 0
BBX 15 23 2 0
BITMAP
0184
03CE
01FC
00F8
0070
0060
0000
07F0
1FFC
1FFC
3FFC
3C3E
3C3E
3C3C
7C3C
783C
783C
7878
7878
F078
F078
F0F0
F0F0
ENDCHAR
STARTCHAR 0149
ENCODING 329
SWIDTH 480 0
DWIDTH 16 0
BBX 15 23 2 0
BITMAP
0F00
0E00
1E00
1C00
3C00
3800
0000
07F8
1FFC
1FFE
1FFE
1E1E
3E1E
3C1E
3C3E
3C3C
7C3C
783C
787C
7878
F878
F078
F078
ENDCHAR
STARTCHAR 014A
ENCODING 330
SWIDTH 480 0
DWIDTH 16 0
BBX 18 27 1 -6
BITMAP
0701C0
0781C0
0F83C0
0F83C0
0FC3C0
0FC380
1FC780
1FC780
1CE780
1CE700
3CEF00
3CEF00
3C6F00
387E00
787E00
787E00
787E00
703C00
F03C00
F03C00
F03C00
003800
007800
03F800
07F000
07E000
010000
ENDCHAR
STARTCHAR 014B
ENCODING 331
SWIDTH 480 0
DWIDTH 16 0
BBX 15 22 2 -6
BITMAP
07F0
1FFC
1FFC
3FFC
3C3E
3C3E
3C3C
7C3C
783C
783C
7878
7878
F078
F078
F0F0
F0F0
00F0
01F0
0FE0
0FE0
0FC0
0200
ENDCHAR
STARTCHAR 014C
ENCODING 332
SWIDTH 480 0
DWIDTH 16 0
BBX 17 26 2 0
BITMAP
01FF80
01FF80
01FF00
000000
000000
01F800
07FC00
0FFE00
0FFF00
1F1F00
3E0F00
3C0F00
3C0F00
780F00
780F00
781F00
781E00
F01E00
F01E00
F03C00
F03C00
F87C00
78F800
7FF000
3FE000
1FC000
ENDCHAR
STARTCHAR 014D
ENCODING 333
SWIDTH 480 0
DWIDTH 16 0
BBX 15 22 2 0
BITMAP
03FE
03FE
07FE
0000
0000
0000
03F0
0FF8
1FFC
3F7E
3C3E
781E
781E
781E
F03E
F03C
F03C
F87C
F8F8
7FF0
7FE0
3FC0
ENDCHAR
STARTCHAR 014E
ENCODING 334
SWIDTH 480 0
DWIDTH 16 0
BBX 17 27 2 0
BITMAP
00E380
00E780
00FF00
007E00
001000
000000
01F800
07FC00
0FFE00
0FFF00
1F1F00
3E0F00
3C0F00
3C0F00
780F00
780F00
781F00
781E00
F01E00
F01E00
F03C00
F03C00
F87C00
78F800
7FF000
3FE000
1FC000
ENDCHAR
STARTCHAR 014F
ENCODING 335
SWIDTH 480 0
DWIDTH 16 0
BBX 16 23 2 0
BITMAP
038F
038E
03FE
01FC
00F8
0000
0000
03F0
0FF8
1FFC
3F7E
3C3E
781E
781E
781E
F03E
F03C
F03C
F87C
F8F8
7FF0
7FE0
3FC0
ENDCHAR
STARTCHAR 0150
ENCODING 336
SWIDTH 480 0
DWIDTH 16 0
BBX 19 28 2 0
BITMAP
002000
0060C0
00F1E0
01F3C0
03C780
018600
000000
01F800
07FC00
0FFE00
0FFF00
1F1F00
3E0F00
3C0F00
3C0F00
780F00
780F00
781F00
781E00
F01E00
F01E00
F03C00
F03C00
F87C00
78F800
7FF000
3FE000
1FC000
ENDCHAR
STARTCHAR 0151
ENCODING 337
SWIDTH 480 0
DWIDTH 16 0
BBX 18 23 2 0
BITMAP
008100
01C380
03E7C0
07CF00
071E00
060800
000000
03F000
0FF800
1FFC00
3F7E00
3C3E00
781E00
781E00
781E00
F03E00
F03C00
F03C00
F87C00
F8F800
7FF000
7FE000
3FC000
ENDCHAR
STARTCHAR 0152
ENCODING 338
SWIDTH 480 0
DWIDTH 16 0
BBX 18 21 2 0
BITMAP
01FFC0
07FFC0
0FFFC0
1FFFC0
1E3C00
3C3800
3C7800
787800
787F00
787E00
F0FE00
F0FE00
F0F000
F0E000
F1E000
F1E000
F1E000
F9C000
FFFC00
7FFC00
3FFC00
ENDCHAR
STARTCHAR 0153
ENCODING 339
SWIDTH 480 0
DWIDTH 16 0
BBX 18 16 1 0
BITMAP
07CF00
0FDF80
1FFF80
3DF1C0
38F180
78E380
70E380
70EF00
F0FE00
E1FC00
E1C000
E3C000
F3E000
FFFE00
7FFE00
3E7E00
ENDCHAR
STARTCHAR 0154
ENCODING 340
SWIDTH 480 0
DWIDTH 16 0
BBX 17 27 1 1
BITMAP
000600
001E00
003F00
007C00
003000
000000
03F800
07FE00
07FF00
0FFF00
0F0F80
0F0780
0F0780
1E0F80
1E0F00
1E1F00
1FFE00
3FFC00
3FF000
3CF000
3C7800
7C7800
787800
783C00
783C00
F83C00
F01E00
ENDCHAR
STARTCHAR 0155
ENCODING 341
SWIDTH 480 0
DWIDTH 16 0
BBX 15 23 2 0
BITMAP
0008
001C
003E
00FC
00F8
0060
0000
01FE
0FFE
0FFE
1FFE
1E00
1E00
1E00
3C00
3C00
3C00
3C00
7C00
7800
7800
7800
F800
ENDCHAR
STARTCHAR 0156
ENCODING 342
SWIDTH 480 0
DWIDTH 16 0
BBX 17 27 1 -6
BITMAP
03F800
07FE00
07FF00
0FFF00
0F0F80
0F0780
0F0780
1E0F80
1E0F00
1E1F00
1FFE00
3FFC00
3FF000
3CF000
3C7800
7C7800
787800
783C00
783C00
F83C00
F01E00
000000
070000
070000
3F0000
3E0000
380000
ENDCHAR
STARTCHAR 0157
ENCODING 343
SWIDTH 480 0
DWIDTH 16 0
BBX 18 22 -1 -6
BITMAP
003FC0
01FFC0
01FFC0
03FFC0
03C000
03C000
03C000
078000
078000
078000
078000
0F8000
0F0000
0F0000
0F0000
1F0000
000000
1C0000
1C0000
FC0000
F80000
E00000
ENDCHAR
STARTCHAR 0158
ENCODING 344
SWIDTH 480 0
DWIDTH 16 0
BBX 17 27 1 1
BITMAP
00C700
00EF00
007E00
007800
003000
000000
03F800
07FE00
07FF00
0FFF00
0F0F80
0F0780
0F0780
1E0F80
1E0F00
1E1F00
1FFE00
3FFC00
3FF000
3CF000
3C7800
7C7800
787800
783C00
783C00
F83C00
F01E00
ENDCHAR
STARTCHAR 0159
ENCODING 345
SWIDTH 480 0
DWIDTH 16 0
BBX 16 23 2 0
BITMAP
00C2
01E7
00FE
007C
0038
0030
0000
01FE
0FFE
0FFE
1FFE
1E00
1E00
1E00
3C00
3C00
3C00
3C00
7C00
7800
7800
7800
F800
ENDCHAR
STARTCHAR 015A
ENCODING 346
SWIDTH 480 0
DWIDTH 16 0
BBX 17 27 1 1
BITMAP
000600
001E00
003F00
007C00
003000
000000
00FE00
03FF80
07FF80
0FCF00
0F0100
0F0000
0F0000
0F0000
0FC000
0FF000
07F800
01FC00
007C00
003E00
001E00
001E00
003E00
707C00
7FFC00
FFF800
7FE000
ENDCHAR
STARTCHAR 015B
ENCODING 347
SWIDTH 480 0
DWIDTH 16 0
BBX 15 23 2 0
BITMAP
0008
0038
007C
00FC
00F0
00C0
0000
03FC
0FFE
1FFC
1F1C
1E00
1E00
1F80
1FE0
0FF0
03F8
00F8
0078
60F8
FFF0
FFF0
7FC0
ENDCHAR
STARTCHAR 015C
ENCODING 348
SWIDTH 480 0
DWIDTH 16 0
BBX 17 27 1 1
BITMAP
000C00
003E00
007F00
00F780
006300
000000
00FE00
03FF80
07FF80
0FCF00
0F0100
0F0000
0F0000
0F0000
0FC000
0FF000
07F800
01FC00
007C00
003E00
001E00
001E00
003E00
707C00
7FFC00
FFF800
7FE000
ENDCHAR
STARTCHAR 015D
ENCODING 349
SWIDTH 480 0
DWIDTH 16 0
BBX 15 23 2 0
BITMAP
0010
0078
00F8
01FC
03CE
0104
0000
03FC
0FFE
1FFC
1F1C
1E00
1E00
1F80
1FE0
0FF0
03F8
00F8
0078
60F8
FFF0
FFF0
7FC0
ENDCHAR
STARTCHAR 015E
ENCODING 350
SWIDTH 480 0
DWIDTH 16 0
BBX 17 27 1 -6
BITMAP
00FE00
03FF80
07FF80
0FCF00
0F0100
0F0000
0F0000
0F0000
0FC000
0FF000
07F800
01FC00
007C00
003E00
001E00
001E00
003E00
707C00
7FFC00
FFF800
3FE000
070000
0F0000
038000
3F8000
3F0000
1C0000
ENDCHAR
STARTCHAR 015F
ENCODING 351
SWIDTH 480 0
DWIDTH 16 0
BBX 15 22 2 -6
BITMAP
03FC
0FFE
1FFC
1F1C
1E00
1E00
1F80
1FE0
0FF0
03F8
00F8
0078
60F8
FFF0
FFF0
7FC0
0E00
0E00
0700
3F00
7E00
3800
ENDCHAR
STARTCHAR 0160
ENCODING 352
SWIDTH 480 0
DWIDTH 16 0
BBX 17 27 1 1
BITMAP
006380
007780
003F00
003C00
001800
000000
00FE00
03FF80
07FF80
0FCF00
0F0100
0F0000
0F0000
0F0000
0FC000
0FF000
07F800
01FC00
007C00
003E00
001E00
001E00
003E00
707C00
7FFC00
FFF800
7FE000
ENDCHAR
STARTCHAR 0161
ENCODING 353
SWIDTH 480 0
DWIDTH 16 0
BBX 15 23 2 0
BITMAP
0086
01CE
01FE
00F8
0070
0020
0000
03FC
0FFE
1FFC
1F1C
1E00
1E00
1F80
1FE0
0FF0
03F8
00F8
0078
60F8
FFF0
FFF0
7FC0
ENDCHAR
STARTCHAR 0162
ENCODING 354
SWIDTH 480 0
DWIDTH 16 0
BBX 17 27 3 -6
BITMAP
3FFF80
3FFF80
3FFF80
7FFF00
01E000
03C000
03C000
03C000
03C000
078000
078000
078000
078000
0F8000
0F0000
0F0000
0F0000
1F0000
1E0000
1E0000
1E0000
1C0000
1C0000
0E0000
7E0000
FC0000
700000
ENDCHAR
STARTCHAR 0163
ENCODING 355
SWIDTH 480 0
DWIDTH 16 0
BBX 14 26 3 -6
BITMAP
0780
0780
0780
0F00
7FFC
7FFC
7FFC
FFF8
1E00
1E00
1E00
3E00
3C00
3C00
3C00
3C00
3E30
3FF0
3FF0
1FF0
0700
0780
0380
1F80
3F00
1E00
ENDCHAR
STARTCHAR 0164
ENCODING 356
SWIDTH 480 0
DWIDTH 16 0
BBX 16 27 4 1
BITMAP
031C
03FC
01F8
00E0
00C0
0000
7FFF
7FFF
7FFF
FFFE
03C0
0780
0780
0780
0780
0F00
0F00
0F00
0F00
1F00
1E00
1E00
1E00
3E00
3C00
3C00
3C00
ENDCHAR
STARTCHAR 0165
ENCODING 357
SWIDTH 480 0
DWIDTH 16 0
BBX 15 23 4 0
BITMAP
001E
001C
001C
0F9C
0F38
0F38
0F00
FFFC
FFF8
FFF8
FFF8
1E00
3C00
3C00
3C00
3C00
7C00
7800
7800
7C20
7FE0
3FE0
1FE0
ENDCHAR
STARTCHAR 0166
ENCODING 358
SWIDTH 480 0
DWIDTH 16 0
BBX 16 21 4 0
BITMAP
7FFF
7FFF
7FFF
FFFE
03C0
0780
0780
0780
0780
0F00
7FF0
FFF0
FFE0
1E00
1E00
1E00
1E00
3E00
3C00
3C00
3C00
ENDCHAR
STARTCHAR 0167
ENCODING 359
SWIDTH 480 0
DWIDTH 16 0
BBX 15 20 3 0
BITMAP
07C0
0780
0780
0780
7FFE
7FFC
7FFC
7FFC
0F00
1E00
FFFC
FFF8
FFF8
3E00
3C00
3C00
3E10
3FF0
1FF0
0FF0
ENDCHAR
STARTCHAR 0168
ENCODING 360
SWIDTH 480 0
DWIDTH 16 0
BBX 17 27 2 0
BITMAP
00E300
01FF80
03FF00
03BE00
000000
000000
0F0780
1F0780
1E0780
1E0F80
1E0F00
3E0F00
3C0F00
3C1F00
3C1E00
7C1E00
781E00
783E00
783C00
783C00
F03C00
F07C00
F07800
F8F800
7FF000
7FE000
3FC000
ENDCHAR
STARTCHAR 0169
ENCODING 361
SWIDTH 480 0
DWIDTH 16 0
BBX 14 22 3 0
BITMAP
07CC
0FFC
0FFC
0470
0000
0000
3C3C
3C3C
783C
783C
787C
7878
F878
F078
F0F8
F0F0
F0F0
F0F0
F3F0
FFF0
FFF0
7E78
ENDCHAR
STARTCHAR 016A
ENCODING 362
SWIDTH 480 0
DWIDTH 16 0
BBX 17 26 2 0
BITMAP
01FF00
01FF00
03FF00
000000
000000
0F0780
1F0780
1E0780
1E0F80
1E0F00
3E0F00
3C0F00
3C1F00
3C1E00
7C1E00
781E00
783E00
783C00
783C00
F03C00
F07C00
F07800
F8F800
7FF000
7FE000
3FC000
ENDCHAR
STARTCHAR 016B
ENCODING 363
SWIDTH 480 0
DWIDTH 16 0
BBX 14 22 3 0
BITMAP
07FC
07FC
0FFC
0000
0000
0000
3C3C
3C3C
783C
783C
787C
7878
F878
F078
F0F8
F0F0
F0F0
F0F0
F3F0
FFF0
FFF0
7E78
ENDCHAR
STARTCHAR 016C
ENCODING 364
SWIDTH 480 0
DWIDTH 16 0
BBX 17 27 2 0
BITMAP
01C780
01E700
00FF00
00FE00
001000
000000
0F0780
1F0780
1E0780
1E0F80
1E0F00
3E0F00
3C0F00
3C1F00
3C1E00
7C1E00
781E00
783E00
783C00
783C00
F03C00
F07C00
F07800
F8F800
7FF000
7FE000
3FC000
ENDCHAR
STARTCHAR 016D
ENCODING 365
SWIDTH 480 0
DWIDTH 16 0
BBX 14 23 3 0
BITMAP
071C
071C
07FC
07F8
03F0
0000
0000
3C3C
3C3C
783C
783C
787C
7878
F878
F078
F0F8
F0F0
F0F0
F0F0
F3F0
FFF0
FFF0
7E78
ENDCHAR
STARTCHAR 016E
ENCODING 366
SWIDTH 480 0
DWIDTH 16 0
BBX 17 28 2 0
BITMAP
002000
00F800
01FC00
018C00
018C00
00FC00
00F800
000000
1F0780
1E0780
1E0F80
1E0F00
3E0F00
3C0F00
3C1F00
3C1E00
7C1E00
781E00
783E00
783C00
783C00
F03C00
F07C00
F07800
F8F800
7FF000
7FE000
3FC000
ENDCHAR
STARTCHAR 016F
ENCODING 367
SWIDTH 480 0
DWIDTH 16 0
BBX 14 24 3 0
BITMAP
01F0
03F8
0318
0318
03B8
01F0
0060
0000
3C3C
3C3C
783C
783C
787C
7878
F878
F078
F0F8
F0F0
F0F0
F0F0
F3F0
FFF0
FFF0
7E78
ENDCHAR
STARTCHAR 0170
ENCODING 368
SWIDTH 480 0
DWIDTH 16 0
BBX 18 28 2 0
BITMAP
004000
00E180
01E3C0
03E7C0
078F00
030E00
000000
0F0780
1F0780
1E0780
1E0F80
1E0F00
3E0F00
3C0F00
3C1F00
3C1E00
7C1E00
781E00
783E00
783C00
783C00
F03C00
F07C00
F07800
F8F800
7FF000
7FE000
3FC000
ENDCHAR
STARTCHAR 0171
ENCODING 369
SWIDTH 480 0
DWIDTH 16 0
BBX 16 23 3 0
BITMAP
0102
0387
07DF
0F3E
1E3C
0810
0000
3C3C
3C3C
783C
783C
787C
7878
F878
F078
F0F8
F0F0
F0F0
F0F0
F3F0
FFF0
FFF0
7E78
ENDCHAR
STARTCHAR 0172
ENCODING 370
SWIDTH 480 0
DWIDTH 16 0
BBX 17 27 2 -6
BITMAP
0F0780
1F0780
1E0780
1E0F80
1E0F00
3E0F00
3C0F00
3C1F00
3C1E00
7C1E00
781E00
783E00
783C00
783C00
F03C00
F07C00
F07800
F8F800
7FF000
7FE000
3FC000
078000
0E0000
1E0000
1F8000
1F8000
0F0000
ENDCHAR
STARTCHAR 0173
ENCODING 371
SWIDTH 480 0
DWIDTH 16 0
BBX 14 22 3 -6
BITMAP
3C3C
3C3C
783C
783C
787C
7878
F878
F078
F0F8
F0F0
F0F0
F0F0
F3F0
FFF0
FFF0
7E78
00F0
03C0
0380
07F0
07E0
01C0
ENDCHAR
STARTCHAR 0174
ENCODING 372
SWIDTH 480 0
DWIDTH 16 0
BBX 19 27 1 1
BITMAP
000C00
003E00
007F00
00F780
006300
000000
0F00E0
0F01E0
0E01E0
1E01C0
1E01C0
1E03C0
1C03C0
1C0380
3CE380
3DE780
39E780
3BE700
3BF700
7F7700
767E00
7E7E00
7C7E00
7C7C00
783C00
F83C00
F03C00
ENDCHAR
STARTCHAR 0175
ENCODING 373
SWIDTH 480 0
DWIDTH 16 0
BBX 17 23 2 0
BITMAP
002000
007000
00F800
01FC00
039E00
010C00
000000
780380
780780
780780
71C700
71C700
73CF00
73CE00
77CE00
F7DE00
EEDC00
EEDC00
FCF800
F8F800
F8F800
F0F000
F0F000
ENDCHAR
STARTCHAR 0176
ENCODING 374
SWIDTH 480 0
DWIDTH 16 0
BBX 16 28 5 0
BITMAP
0040
00C0
01E0
03F0
0F78
0630
0000
F01F
F01E
F03C
F07C
F078
70F0
79F0
79E0
7BC0
7FC0
3F80
3F00
3E00
3E00
3C00
3C00
3C00
3C00
7800
7800
7800
ENDCHAR
STARTCHAR 0177
ENCODING 375
SWIDTH 480 0
DWIDTH 16 0
BBX 19 29 -1 -6
BITMAP
000400
000E00
001F00
003F80
0073C0
002180
000000
0781E0
0781E0
0783C0
0783C0
0787C0
078780
078780
07CF00
03CF00
03DE00
03DE00
03FC00
03FC00
01F800
01F000
01F000
03E000
07C000
FF8000
FF0000
FE0000
300000
ENDCHAR
STARTCHAR 0178
ENCODING 376
SWIDTH 480 0
DWIDTH 16 0
BBX 16 27 5 0
BITMAP
0E38
1E3C
1E7C
1E38
0000
0000
F01F
F01E
F03C
F07C
F078
70F0
79F0
79E0
7BC0
7FC0
3F80
3F00
3E00
3E00
3C00
3C00
3C00
3C00
7800
7800
7800
ENDCHAR
STARTCHAR 0179
ENCODING 377
SWIDTH 480 0
DWIDTH 16 0
BBX 18 28 1 0
BITMAP
000200
000600
000F00
003F80
003E00
003800
000000
07FFC0
07FFC0
07FFC0
0FFF80
000F80
001F00
003E00
007C00
00F800
00F000
01E000
03C000
07C000
0F8000
1F0000
1E0000
3C0000
780000
7FFC00
FFFC00
FFFC00
ENDCHAR
STARTCHAR 017A
ENCODING 378
SWIDTH 480 0
DWIDTH 16 0
BBX 16 23 2 0
BITMAP
0008
0038
007C
00FC
00F0
00C0
0000
0FFF
1FFE
1FFE
1FFE
007C
00F8
01F0
03C0
07C0
0F00
1F00
3C00
7C00
FFF8
FFF8
FFF0
ENDCHAR
STARTCHAR 017B
ENCODING 379
SWIDTH 480 0
DWIDTH 16 0
BBX 18 27 1 0
BITMAP
001C00
003E00
003E00
003C00
000000
000000
07FFC0
07FFC0
07FFC0
0FFF80
000F80
001F00
003E00
007C00
00F800
00F000
01E000
03C000
07C000
0F8000
1F0000
1E0000
3C0000
780000
7FFC00
FFFC00
FFFC00
ENDCHAR
STARTCHAR 017C
ENCODING 380
SWIDTH 480 0
DWIDTH 16 0
BBX 16 22 2 1
BITMAP
0078
00F8
00F8
0070
0000
0000
0FFF
1FFE
1FFE
1FFE
007C
00F8
01F0
03C0
07C0
0F00
1F00
3C00
7C00
FFF8
FFF8
FFF0
ENDCHAR
STARTCHAR 017D
ENCODING 381
SWIDTH 480 0
DWIDTH 16 0
BBX 18 28 1 0
BITMAP
000100
00E300
00FF00
007E00
003C00
001800
000000
07FFC0
07FFC0
07FFC0
0FFF80
000F80
001F00
003E00
007C00
00F800
00F000
01E000
03C000
07C000
0F8000
1F0000
1E0000
3C0000
780000
7FFC00
FFFC00
FFFC00
ENDCHAR
STARTCHAR 017E
ENCODING 382
SWIDTH 480 0
DWIDTH 16 0
BBX 16 23 2 0
BITMAP
0184
03CE
01FC
00F8
0070
0060
0000
0FFF
1FFE
1FFE
1FFE
007C
00F8
01F0
03C0
07C0
0F00
1F00
3C00
7C00
FFF8
FFF8
FFF0
ENDCHAR
STARTCHAR 017F
ENCODING 383
SWIDTH 480 0
DWIDTH 16 0
BBX 21 29 -1 -6
BITMAP
0007F0
000FF8
001FF0
003F70
003C00
007C00
007800
007800
007800
007800
00F800
00F000
00F000
00F000
00F000
01F000
01E000
01E000
01E000
01E000
03E000
03C000
03C000
03C000
07C000
7F8000
FF0000
FE0000
380000
ENDCHAR
STARTCHAR 0180
ENCODING 384
SWIDTH 480 0
DWIDTH 16 0
BBX 15 23 2 0
BITMAP
0780
0780
1FF8
1FF8
3FF0
0F00
0F00
1EF0
1FFC
1FFC
1FFE
3E1E
3C1E
3C1E
3C1E
7C1E
783E
783C
787C
78F8
FFF0
FFE0
FFC0
ENDCHAR
STARTCHAR 0181
ENCODING 385
SWIDTH 480 0
DWIDTH 16 0
BBX 15 21 3 0
BITMAP
07F0
3FFC
7FFE
7F9E
E78E
E78E
E70E
0F1E
0F3C
0FF8
0FF8
0FF8
1E3C
1E1C
1C1C
1C3C
3C3C
3C78
3FF8
3FF0
7FC0
ENDCHAR
STARTCHAR 0182
ENCODING 386
SWIDTH 480 0
DWIDTH 16 0
BBX 17 21 1 0
BITMAP
07FF80
07FF00
0FFF00
0FFF00
0F0000
0F0000
1F0000
1E0000
1FF800
1FFC00
1FFE00
3C3E00
3C1E00
3C1E00
3C1E00
781E00
783E00
78FC00
7FFC00
FFF000
FFC000
ENDCHAR
STARTCHAR 0183
ENCODING 387
SWIDTH 480 0
DWIDTH 16 0
BBX 17 23 1 0
BITMAP
03FF80
07FF80
07FF80
07FF00
078000
0F8000
0F0000
0F7800
0FFC00
1FFE00
1FBE00
1E1F00
1E0F00
3E0F00
3C0F00
3C1F00
3C1E00
7C1E00
783E00
78FC00
7FF800
7FF000
FFC000
ENDCHAR
STARTCHAR 0184
ENCODING 388
SWIDTH 480 0
DWIDTH 16 0
BBX 15 23 2 0
BITMAP
0180
0F80
3F80
3F00
1F00
0F00
1F00
1EF0
1FFC
1FFC
3FFE
3C1E
3C1E
3C1E
7C1E
781E
783E
783C
787C
F0F8
FFF0
FFE0
FFC0
ENDCHAR
STARTCHAR 0185
ENCODING 389
SWIDTH 480 0
DWIDTH 16 0
BBX 15 21 2 0
BITMAP
0080
0780
3F00
3F00
1F00
0F00
0E00
1E80
1FF8
1FFC
1FFC
3C3E
3C1E
3C1E
3C1E
783C
783C
79FC
7FF8
FFF0
FFC0
ENDCHAR
STARTCHAR 0186
ENCODING 390
SWIDTH 480 0
DWIDTH 16 0
BBX 16 21 1 0
BITMAP
03F0
0FFC
0FFE
0FFE
081F
001F
000F
000F
000F
000F
000F
000F
001E
001E
001E
003E
007C
60F8
FFF0
FFE0
7FC0
ENDCHAR
STARTCHAR 0187
ENCODING 391
SWIDTH 480 0
DWIDTH 16 0
BBX 19 23 3 0
BITMAP
0003E0
0007C0
01FFC0
07FE00
0FFE00
1FFC00
3E0400
3C0000
7C0000
780000
F80000
F00000
F00000
F00000
F00000
F00000
F00000
F00000
F00000
F86000
FFE000
7FE000
3FE000
ENDCHAR
STARTCHAR 0188
ENCODING 392
SWIDTH 480 0
DWIDTH 16 0
BBX 18 19 2 0
BITMAP
000380
000FC0
000F80
01FF80
07FC00
1FF800
3FF800
3E0000
7C0000
780000
780000
F80000
F80000
F80000
780000
7C2000
7FE000
3FE000
1FF000
ENDCHAR
STARTCHAR 0189
ENCODING 393
SWIDTH 480 0
DWIDTH 16 0
BBX 16 21 2 0
BITMAP
07E0
0FF8
0FFC
0FFE
0F1E
1E1E
1E1F
1E0F
1E1F
FF1F
FF1E
FF1E
3C1E
783E
783C
787C
78F8
F3F8
FFF0
FFC0
FF80
ENDCHAR
STARTCHAR 018A
ENCODING 394
SWIDTH 480 0
DWIDTH 16 0
BBX 15 21 3 0
BITMAP
07E0
3FF8
7FFC
7FBE
E79E
E78E
E70E
0F0E
0F0E
0F0E
0E1E
0E1E
1E1E
1E1C
1C3C
1C38
3C78
3CF0
3FF0
3FE0
7F80
ENDCHAR
STARTCHAR 018B
ENCODING 395
SWIDTH 480 0
DWIDTH 16 0
BBX 17 21 2 0
BITMAP
07FF80
07FF80
07FF80
0FFF80
000F00
000F00
000F00
001F00
07FE00
1FFE00
3FFE00
7E1E00
783C00
F03C00
F03C00
F03C00
F87800
FC7800
7FF800
3FF800
1FF000
ENDCHAR
STARTCHAR 018C
ENCODING 396
SWIDTH 480 0
DWIDTH 16 0
BBX 17 23 2 0
BITMAP
03FF80
03FF80
07FF80
07FF80
000F00
000F00
000F00
01FF00
07FE00
1FFE00
3FBE00
3C1E00
7C3C00
783C00
F83C00
F03C00
F07800
F07800
F07800
F8F800
7FF800
7FF800
3F3C00
ENDCHAR
STARTCHAR 018D
ENCODING 397
SWIDTH 480 0
DWIDTH 16 0
BBX 16 22 1 -6
BITMAP
01F8
07FE
0FFE
1FBF
3E0F
3C0F
3C0F
3C0F
3C1F
3C1E
3E3C
3FFC
1FF8
0FE0
07E0
01F0
00F0
00F0
7FE0
FFE0
FFC0
0C00
ENDCHAR
STARTCHAR 018E
ENCODING 398
SWIDTH 480 0
DWIDTH 16 0
BBX 18 21 1 0
BITMAP
07FFC0
07FFC0
07FF80
07FF80
000780
000F80
000F00
000F00
0FFF00
0FFF00
0FFE00
0FFE00
001E00
001E00
003C00
003C00
003C00
003C00
7FF800
FFF800
FFF800
ENDCHAR
STARTCHAR 018F
ENCODING 399
SWIDTH 480 0
DWIDTH 16 0
BBX 16 21 2 0
BITMAP
07F0
1FFC
1FFE
0EFE
001F
000F
000F
000F
000F
7FFF
7FFF
FFFF
FFFE
F01E
F01E
F03C
F07C
78F8
7FF0
3FE0
1FC0
ENDCHAR
STARTCHAR 0190
ENCODING 400
SWIDTH 480 0
DWIDTH 16 0
BBX 17 21 2 0
BITMAP
00FF00
03FF80
07FF80
0FE700
0F0000
1F0000
1E0000
0F0000
0FF800
07F800
0FF800
1FF800
3E0000
780000
780000
F00000
F80000
FC1C00
7FFC00
3FFC00
1FF800
ENDCHAR
STARTCHAR 0191
ENCODING 401
SWIDTH 480 0
DWIDTH 16 0
BBX 21 27 -2 -6
BITMAP
007FF8
007FF8
00FFF8
00FFF8
00F000
00F000
01F000
01E000
01E000
01FFC0
03FFC0
03FFC0
03C000
03C000
07C000
078000
078000
078000
0F8000
0F0000
0F0000
0F0000
1F0000
FE0000
FE0000
FC0000
400000
ENDCHAR
STARTCHAR 0192
ENCODING 402
SWIDTH 480 0
DWIDTH 16 0
BBX 20 29 -1 -6
BITMAP
0007F0
000FF0
001FF0
003F20
003C00
007C00
007800
03FFE0
03FFE0
07FFC0
07FFC0
00F000
00F000
00F000
00F000
01F000
01E000
01E000
01E000
01E000
03E000
03C000
03C000
03C000
07C000
7F8000
FF0000
FE0000
380000
ENDCHAR
STARTCHAR 0193
ENCODING 403
SWIDTH 480 0
DWIDTH 16 0
BBX 19 23 3 0
BITMAP
0003E0
0007C0
01FFC0
07FE00
0FFE00
1FFC00
3E0400
3C0000
780000
780000
F80000
F00000
F03C00
F03C00
F03C00
F07800
F07800
F07800
F07800
F8F000
FFF000
7FF000
3FF000
ENDCHAR
STARTCHAR 0194
ENCODING 404
SWIDTH 480 0
DWIDTH 16 0
BBX 18 26 3 -6
BITMAP
3803C0
3C0780
3C0780
3C0F00
3C1E00
3C1E00
1C3C00
1C7800
1E7800
1EF000
0FE000
0FE000
0FC000
0F8000
0F8000
0F0000
1F8000
3F8000
3B8000
7B8000
738000
F3C000
F3C000
FF8000
7F8000
7F0000
ENDCHAR
STARTCHAR 0195
ENCODING 405
SWIDTH 480 0
DWIDTH 16 0
BBX 18 23 1 0
BITMAP
070000
070000
0F0000
0E0000
0E0000
0E0000
1E0000
1DC1C0
1FE1C0
1FE3C0
3CE380
38E380
38E380
38E780
79E700
71C700
71C700
71CF00
73CE00
F3CE00
E3FE00
E1FC00
E1F800
ENDCHAR
STARTCHAR 0196
ENCODING 406
SWIDTH 480 0
DWIDTH 16 0
BBX 13 21 5 0
BITMAP
7FF8
FFF8
FFF8
FFF8
0F00
1F00
1E00
1E00
1E00
3E00
3C00
3C00
3C00
7C00
7800
7800
7800
7C40
7FC0
7FC0
3FC0
ENDCHAR
STARTCHAR 0197
ENCODING 407
SWIDTH 480 0
DWIDTH 16 0
BBX 18 21 1 0
BITMAP
07FFC0
07FFC0
07FFC0
0FFF80
007800
00F800
00F000
00F000
00F000
0FFE00
0FFC00
0FFC00
01E000
03E000
03C000
03C000
03C000
03C000
7FFC00
FFFC00
FFF800
ENDCHAR
STARTCHAR 0198
ENCODING 408
SWIDTH 480 0
DWIDTH 16 0
BBX 20 21 1 0
BITMAP
0781E0
0783F0
0F87F0
0F0FE0
0F1E00
0F3C00
1F7800
1EF800
1FF000
1FE000
1FC000
3FE000
3DF000
3CF000
3CF800
787800
787C00
783C00
783C00
F03E00
F01E00
ENDCHAR
STARTCHAR 0199
ENCODING 409
SWIDTH 480 0
DWIDTH 16 0
BBX 17 23 2 0
BITMAP
01F800
03F000
07F000
07C000
0F8000
0F0000
0F0000
0F0F80
1E1F00
1E3E00
1E7C00
1EF800
3DF000
3FE000
3FC000
3FC000
7BE000
79E000
78F000
78F000
F8F800
F07800
F07C00
ENDCHAR
STARTCHAR 019A
ENCODING 410
SWIDTH 480 0
DWIDTH 16 0
BBX 13 23 3 0
BITMAP
1FE0
1FE0
3FE0
01E0
03C0
03C0
03C0
03C0
0780
0780
7FF8
FFF8
FFF8
0F00
0F00
0F00
1F00
1E00
1E00
1F10
1FF0
0FF0
07F0
ENDCHAR
STARTCHAR 019B
ENCODING 411
SWIDTH 480 0
DWIDTH 16 0
BBX 16 23 5 0
BITMAP
07C0
07E0
07F3
00FF
00FE
07F8
07F8
0478
00F8
01F8
01F8
03FC
07BC
07BC
0F3C
1F3C
1E3C
3E3C
3C3C
7C3C
783C
F83E
F03E
ENDCHAR
STARTCHAR 019C
ENCODING 412
SWIDTH 480 0
DWIDTH 16 0
BBX 19 21 1 0
BITMAP
0E00E0
0E01E0
0E01E0
1E01C0
1C01C0
1C01C0
1C03C0
3C0380
38E380
38E380
38E780
79E700
71C700
71C700
71CF00
F3CE00
F38E00
F3CE00
FFFE00
7FFE00
7FFC00
ENDCHAR
STARTCHAR 019D
ENCODING 413
SWIDTH 480 0
DWIDTH 16 0
BBX 22 27 -3 -6
BITMAP
00781C
00781C
00783C
00F83C
00FC3C
00FC38
00FC78
01EC78
01EE78
01CE70
01CEF0
03CEF0
03C7F0
03C7E0
0387E0
0787E0
0787E0
0783C0
0703C0
0F03C0
0F03C0
0F0000
1E0000
FE0000
FC0000
F80000
400000
ENDCHAR
STARTCHAR 019E
ENCODING 414
SWIDTH 480 0
DWIDTH 16 0
BBX 15 22 2 -6
BITMAP
07F0
1FFC
1FFC
3FFC
3C3E
3C3E
3C3C
7C3C
783C
783C
7878
7878
F078
F078
F0F0
F0F0
00F0
00F0
01F0
01E0
01E0
01E0
ENDCHAR
STARTCHAR 019F
ENCODING 415
SWIDTH 480 0
DWIDTH 16 0
BBX 16 21 2 0
BITMAP
01F8
07FC
0FFE
0FFF
1F0F
3E0F
3C0F
3C0F
780F
7FFF
7FFF
7FFE
F81E
F01E
F03E
F03C
F87C
78F8
7FF0
3FE0
1FC0
ENDCHAR
STARTCHAR 01A0
ENCODING 416
SWIDTH 480 0
DWIDTH 16 0
BBX 18 24 2 0
BITMAP
0003C0
0003C0
0003C0
01F780
07FF80
0FFF00
1FBE00
1E1E00
3E1E00
3C1E00
7C1E00
781E00
781E00
781E00
781E00
F03E00
F03C00
F03C00
F07C00
F87800
79F000
7FF000
3FE000
3F8000
ENDCHAR
STARTCHAR 01A1
ENCODING 417
SWIDTH 480 0
DWIDTH 16 0
BBX 17 19 2 0
BITMAP
000380
000780
000780
03F780
0FFF00
1FFE00
3FFC00
3C3C00
783C00
783C00
783C00
F03C00
F03C00
F07800
F07800
F9F000
7FF000
7FE000
3F8000
ENDCHAR
STARTCHAR 01A2
ENCODING 418
SWIDTH 480 0
DWIDTH 16 0
BBX 17 21 2 0
BITMAP
03CF00
0FFF00
1FFF80
1EF780
3CE380
38E780
38E700
70E700
70E700
70E700
71EE00
E1CE00
E1CE00
E1CE00
E39E00
E39C00
E39C00
E71C00
FF3C00
FE3800
7C3800
ENDCHAR
STARTCHAR 01A3
ENCODING 419
SWIDTH 480 0
DWIDTH 16 0
BBX 16 22 2 -6
BITMAP
0FBE
1FFF
3FFF
39CF
71C7
71C7
E1CE
E1CE
E1CE
E1CE
E39E
E39C
E79C
FF1C
FE3C
7C38
0038
0038
0078
0070
0070
0070
ENDCHAR
STARTCHAR 01A4
ENCODING 420
SWIDTH 480 0
DWIDTH 16 0
BBX 16 21 3 0
BITMAP
07F0
1FFC
7FFE
7B9E
F78F
E78F
E78F
070F
070E
0F1E
0F7C
0FFC
0FF8
1FE0
1E00
1C00
1C00
3C00
3C00
3800
3800
ENDCHAR
STARTCHAR 01A5
ENCODING 421
SWIDTH 480 0
DWIDTH 16 0
BBX 17 29 0 -6
BITMAP
007C00
01FC00
01F800
03E000
03C000
07C000
078000
07FC00
07FE00
0FFF00
0FDF80
0F0780
0F0780
0F0780
1E0780
1E0F80
1E0F00
1E1F00
3C1F00
3C7E00
3FFC00
3FF800
7FE000
780000
780000
780000
F80000
F00000
F00000
ENDCHAR
STARTCHAR 01A6
ENCODING 422
SWIDTH 480 0
DWIDTH 16 0
BBX 17 26 1 -3
BITMAP
03C000
078000
07F800
07FE00
07FF00
0FFF00
0F0F80
0F0780
0F0780
1E0F00
1E0F00
1E1F00
1FFE00
3FFC00
3FF000
3CF000
3CF800
7C7800
787800
783C00
783C00
F83C00
F01E00
001E00
001E00
001E00
ENDCHAR
STARTCHAR 01A7
ENCODING 423
SWIDTH 480 0
DWIDTH 16 0
BBX 16 21 2 0
BITMAP
03FC
0FFE
0FFF
0F3F
000F
000F
000F
003F
00FE
07FC
1FF8
3FC0
7F00
7C00
F800
F000
F000
F818
7FF8
7FF8
3FF8
ENDCHAR
STARTCHAR 01A8
ENCODING 424
SWIDTH 480 0
DWIDTH 16 0
BBX 14 16 2 0
BITMAP
07F0
1FFC
1FFC
1C7C
003C
003C
00FC
0FF8
3FF0
7F80
7C00
F800
F810
7FF0
7FF0
3FF0
ENDCHAR
STARTCHAR 01A9
ENCODING 425
SWIDTH 480 0
DWIDTH 16 0
BBX 19 21 1 0
BITMAP
07FFE0
07FFE0
0FFFC0
07FFC0
078000
03C000
03C000
01E000
01F000
00F000
007800
00F000
03E000
07C000
0F8000
1F0000
3E0000
7C0000
FFFE00
FFFC00
FFFC00
ENDCHAR
STARTCHAR 01AA
ENCODING 426
SWIDTH 480 0
DWIDTH 16 0
BBX 11 29 5 -6
BITMAP
1F80
3FC0
7FC0
F1E0
E1E0
E3E0
F7C0
FFC0
7FC0
1FC0
0780
0780
0780
0F80
0F00
0F00
0F00
0F00
1E00
1E00
1E00
1E00
3C00
3C00
3E00
3FC0
1FC0
1F80
0780
ENDCHAR
STARTCHAR 01AB
ENCODING 427
SWIDTH 480 0
DWIDTH 16 0
BBX 15 26 3 -6
BITMAP
07C0
0780
0780
0780
7FFE
7FFE
FFFC
FFFC
0F00
1E00
1E00
1E00
1E00
3E00
3C00
3C00
3E10
3FF0
1FF0
0FF0
0070
00F0
05E0
0FE0
0FC0
0200
ENDCHAR
STARTCHAR 01AC
ENCODING 428
SWIDTH 480 0
DWIDTH 16 0
BBX 17 21 3 0
BITMAP
07FF80
3FFF80
7FFF80
7FFF80
F1E000
E1E000
E1E000
03C000
03C000
03C000
03C000
078000
078000
078000
078000
0F8000
0F0000
0F0000
0F0000
1F0000
1E0000
ENDCHAR
STARTCHAR 01AD
ENCODING 429
SWIDTH 480 0
DWIDTH 16 0
BBX 16 23 3 0
BITMAP
007F
01FF
03FF
03E7
07C0
0780
0780
7FFE
7FFE
FFFC
FFFC
0F00
1E00
1E00
1E00
1E00
3E00
3C00
3C00
3E10
3FF0
1FF0
0FF0
ENDCHAR
STARTCHAR 01AE
ENCODING 430
SWIDTH 480 0
DWIDTH 16 0
BBX 16 27 4 -6
BITMAP
7FFF
7FFF
7FFF
FFFE
03C0
0780
0780
0780
0780
0F00
0F00
0F00
0F00
1F00
1E00
1E00
1E00
3E00
3C00
3C00
3C00
7C00
7C00
7F80
3F00
3F00
0600
ENDCHAR
STARTCHAR 01AF
ENCODING 431
SWIDTH 480 0
DWIDTH 16 0
BBX 20 24 2 0
BITMAP
000070
000070
0000F0
0F0FE0
1E0FC0
1E0F00
1E1E00
1E1E00
3C1E00
3C1E00
3C3C00
3C3C00
383C00
783C00
787800
787800
707800
F07800
F0F000
F0F000
F1F000
FFE000
7FC000
3F8000
ENDCHAR
STARTCHAR 01B0
ENCODING 432
SWIDTH 480 0
DWIDTH 16 0
BBX 18 19 2 0
BITMAP
0001C0
0003C0
0003C0
3C3F80
3C3F00
3C3C00
387800
787800
787800
787800
70F000
F0F000
F0F000
F0F000
F0F000
FBF000
FFF000
7FF000
7EF000
ENDCHAR
STARTCHAR 01B1
ENCODING 433
SWIDTH 480 0
DWIDTH 16 0
BBX 18 21 2 0
BITMAP
1FDFC0
1FDFC0
3F9FC0
3F9FC0
0F1E00
1E0E00
1C0F00
3C0F00
380F00
780F00
780F00
F00F00
F00E00
F01E00
F01E00
F03E00
F03C00
F8FC00
7FF800
7FF000
3FC000
ENDCHAR
STARTCHAR 01B2
ENCODING 434
SWIDTH 480 0
DWIDTH 16 0
BBX 16 21 2 0
BITMAP
0F38
0F3E
1E3F
1E7F
1E0F
1E0F
3C0F
3C0F
3C0F
3C0F
781F
781E
781E
781E
F83C
F03C
F078
F9F8
7FF0
7FE0
3FC0
ENDCHAR
STARTCHAR 01B3
ENCODING 435
SWIDTH 480 0
DWIDTH 16 0
BBX 17 21 4 0
BITMAP
F00F00
701F80
783F80
787F00
787800
78F000
78E000
39E000
39C000
3F8000
3F8000
1F0000
1F0000
1E0000
1E0000
3E0000
3C0000
3C0000
3C0000
3C0000
780000
ENDCHAR
STARTCHAR 01B4
ENCODING 436
SWIDTH 480 0
DWIDTH 16 0
BBX 20 22 -1 -6
BITMAP
0780F0
0783F0
0783F0
0787E0
078700
078F00
078F00
079E00
079E00
03FC00
03FC00
03F800
03F800
03F000
03F000
01E000
03E000
07C000
7F8000
FF0000
FE0000
200000
ENDCHAR
STARTCHAR 01B5
ENCODING 437
SWIDTH 480 0
DWIDTH 16 0
BBX 18 21 1 0
BITMAP
07FFC0
07FFC0
07FFC0
0FFF80
000F00
001F00
003E00
007C00
007800
1FFF00
1FFF00
3FFE00
07C000
0F8000
0F0000
1E0000
3C0000
780000
7FFC00
FFFC00
FFFC00
ENDCHAR
STARTCHAR 01B6
ENCODING 438
SWIDTH 480 0
DWIDTH 16 0
BBX 16 16 2 0
BITMAP
0FFF
1FFE
1FFE
1FFE
007C
00F8
01E0
3FFC
3FF8
0F00
1E00
3C00
7800
FFF8
FFF8
FFF0
ENDCHAR
STARTCHAR 01B7
ENCODING 439
SWIDTH 480 0
DWIDTH 16 0
BBX 18 22 1 -1
BITMAP
07FFC0
07FFC0
07FFC0
07FF80
000F00
001E00
003C00
007800
00F000
01F800
03FC00
00FE00
001E00
001E00
001E00
001E00
003E00
707C00
7FFC00
FFF800
7FE000
030000
ENDCHAR
STARTCHAR 01B8
ENCODING 440
SWIDTH 480 0
DWIDTH 16 0
BBX 16 22 3 -1
BITMAP
0FFF
0FFF
1FFF
0FFF
0F00
0780
03C0
03C0
01E0
07E0
1FE0
7FE0
7800
F000
F000
F000
F000
F810
FFF0
7FF8
3FF0
0100
ENDCHAR
STARTCHAR 01B9
ENCODING 441
SWIDTH 480 0
DWIDTH 16 0
BBX 16 22 2 -6
BITMAP
0FFF
0FFF
0FFF
0FFE
0780
0780
03C0
03C0
01E0
07E0
1FE0
7FC0
7C00
F800
F000
F000
F000
F810
FFF0
7FF8
3FF0
0200
ENDCHAR
STARTCHAR 01BA
ENCODING 442
SWIDTH 480 0
DWIDTH 16 0
BBX 17 22 0 -6
BITMAP
07FF80
07FF80
07FF80
07FF00
001E00
007C00
00F000
01E000
03F800
03FC00
003E00
001E00
001E00
003E00
01FC00
1FF800
7FF000
FF8000
F80000
F00000
E00000
800000
ENDCHAR
STARTCHAR 01BB
ENCODING 443
SWIDTH 480 0
DWIDTH 16 0
BBX 16 21 2 0
BITMAP
01F8
07FE
0FFE
0FBF
041F
001F
001E
001E
003C
1FFF
1FFE
1FFE
07C0
0F80
1F00
3C00
7C00
7800
FFF8
FFF8
FFF8
ENDCHAR
STARTCHAR 01BC
ENCODING 444
SWIDTH 480 0
DWIDTH 16 0
BBX 17 22 2 -1
BITMAP
0FFF80
1FFF80
1FFF00
1FFF00
078000
078000
070000
0F0000
0FC000
0FF000
1FF800
00FC00
003C00
003C00
003C00
003C00
003C00
60FC00
FFF800
FFF000
FFE000
040000
ENDCHAR
STARTCHAR 01BD
ENCODING 445
SWIDTH 480 0
DWIDTH 16 0
BBX 15 17 2 -1
BITMAP
1FFE
1FFE
1FFE
1FFC
0F00
0F00
0FC0
1FF0
1FF8
0078
0078
0078
40F8
7FF8
FFF0
FFC0
0600
ENDCHAR
STARTCHAR 01BE
ENCODING 446
SWIDTH 480 0
DWIDTH 16 0
BBX 15 20 3 0
BITMAP
07C0
0780
0780
0780
7FFE
7FFC
7FFC
7FFC
0F00
1F00
1F80
0FE0
0FF0
03F8
00F8
0078
60F8
FFF0
FFF0
7FC0
ENDCHAR
STARTCHAR 01BF
ENCODING 447
SWIDTH 480 0
DWIDTH 16 0
BBX 17 22 0 -6
BITMAP
01FC00
07FF00
0FFF00
0FFF80
0F0F80
0F0F80
1F0F80
1F0F80
1E0F00
1E1F00
3E1F00
3E3E00
3CFC00
3FF800
3FF000
7FE000
7F8000
780000
780000
F80000
F80000
F00000
ENDCHAR
STARTCHAR 01C0
ENCODING 448
SWIDTH 480 0
DWIDTH 16 0
BBX 11 29 4 -6
BITMAP
01E0
01E0
03E0
03C0
03C0
03C0
07C0
0780
0780
0780
0F80
0F00
0F00
0F00
0F00
1E00
1E00
1E00
1E00
3C00
3C00
3C00
3C00
7C00
7800
7800
7800
F800
F000
ENDCHAR
STARTCHAR 01C1
ENCODING 449
SWIDTH 480 0
DWIDTH 16 0
BBX 17 29 1 -6
BITMAP
01E780
01E780
03C780
03C780
03CF00
03CF00
078F00
078F00
079F00
079E00
0F9E00
0F1E00
0F3E00
0F3C00
1F3C00
1E3C00
1E7C00
1E7800
3E7800
3C7800
3C7800
3CF000
7CF000
78F000
78F000
79E000
79E000
F1E000
F1E000
ENDCHAR
STARTCHAR 01C2
ENCODING 450
SWIDTH 480 0
DWIDTH 16 0
BBX 17 29 1 -6
BITMAP
003C00
003C00
003C00
007800
007800
007800
007800
00F000
00F000
3FFF80
3FFF80
3FFF80
3FFF80
01E000
01E000
7FFF00
7FFF00
7FFF00
FFFE00
07C000
078000
078000
078000
078000
0F0000
0F0000
0F0000
0F0000
1E0000
ENDCHAR
STARTCHAR 01C3
ENCODING 451
SWIDTH 480 0
DWIDTH 16 0
BBX 9 21 6 0
BITMAP
0F80
0F80
0F00
1F00
1F00
1F00
1E00
3E00
3E00
3E00
3C00
3C00
3800
3800
0000
0000
7000
F800
F800
F800
F000
ENDCHAR
STARTCHAR 01C4
ENCODING 452
SWIDTH 480 0
DWIDTH 16 0
BBX 23 27 0 0
BITMAP
000084
0001CE
0000FC
000070
000020
000000
07C1F8
07E3F8
07F3F0
0E7070
0E7070
0E70E0
0E70C0
1C71C0
1C7180
1C7380
1C7300
387700
38E600
38EE00
38EC00
31DC00
71DC00
73B800
7F3F80
7E3F00
FC7F00
ENDCHAR
STARTCHAR 01C5
ENCODING 453
SWIDTH 480 0
DWIDTH 16 0
BBX 21 22 0 0
BITMAP
000118
07C1B8
07E1F0
07F0E0
0E7000
0E7000
0E73F0
0E73F0
1C77E0
1C70E0
1C71C0
1C71C0
387380
38E380
38E700
38E600
31CE00
71CC00
739C00
7F3F80
7E3F80
FC3F00
ENDCHAR
STARTCHAR 01C6
ENCODING 454
SWIDTH 480 0
DWIDTH 16 0
BBX 20 23 1 0
BITMAP
003800
007110
007370
0071E0
0070C0
00E000
00E000
0FE7E0
1FE7E0
1FCFC0
39C1C0
79C380
71C380
738700
E38700
E38E00
E38C00
E31C00
E71800
E73800
FF7F00
FE7F00
7E7E00
ENDCHAR
STARTCHAR 01C7
ENCODING 455
SWIDTH 480 0
DWIDTH 16 0
BBX 20 21 0 0
BITMAP
070070
060070
0E0070
0E0070
0E00E0
0E00E0
1C00E0
1C00E0
1C01C0
1C01C0
3801C0
3801C0
380380
380380
700380
700380
700700
700700
FF3F00
FF7E00
FF7C00
ENDCHAR
STARTCHAR 01C8
ENCODING 456
SWIDTH 480 0
DWIDTH 16 0
BBX 19 28 1 -6
BITMAP
0001C0
0E01E0
0E03E0
0E03C0
0E0000
1C0000
1C0380
1C0380
1C0380
380700
380700
380700
380700
700E00
700E00
700E00
700E00
601C00
E01C00
FF9C00
FF1C00
FF1800
003800
003800
06F000
07F000
07E000
010000
ENDCHAR
STARTCHAR 01C9
ENCODING 457
SWIDTH 480 0
DWIDTH 16 0
BBX 17 28 3 -6
BITMAP
0E0000
0E0380
0E0780
1C0780
1C0700
1C0000
1C0000
380600
380E00
380E00
380E00
700E00
701C00
701C00
701C00
601C00
E03800
E03800
E03800
E03800
FC7000
F87000
787000
007000
00E000
09E000
0FC000
1F8000
ENDCHAR
STARTCHAR 01CA
ENCODING 458
SWIDTH 480 0
DWIDTH 16 0
BBX 20 21 0 0
BITMAP
063870
063870
0E3870
0E3870
0E70E0
0E70E0
1E70E0
1E70E0
1EE1C0
1FE1C0
3BE1C0
3BE1C0
3BC380
3BC380
73C380
73C380
73C700
738700
E39F00
E3BE00
E3BC00
ENDCHAR
STARTCHAR 01CB
ENCODING 459
SWIDTH 480 0
DWIDTH 16 0
BBX 20 28 0 -6
BITMAP
0000F0
071CF0
0739F0
0739E0
0F3800
0F3800
0F31C0
0F71C0
1F71C0
1F7180
1F7380
1FE380
3BE380
3BE380
3BE700
3BC700
33C700
73C700
73CE00
738E00
638E00
E38E00
001C00
001C00
037800
03F800
03F000
008000
ENDCHAR
STARTCHAR 01CC
ENCODING 460
SWIDTH 480 0
DWIDTH 16 0
BBX 21 28 0 -6
BITMAP
000070
0000F8
0000F0
0000F0
000000
000000
07E0E0
0FF0E0
1FF1C0
1C71C0
1C71C0
1C71C0
387380
387380
387380
38E380
70E700
70E700
70E700
71C700
61C600
E1CE00
000E00
001E00
01BC00
01FC00
03F800
008000
ENDCHAR
STARTCHAR 01CD
ENCODING 461
SWIDTH 480 0
DWIDTH 16 0
BBX 18 28 0 0
BITMAP
000080
007180
007FC0
003F00
001E00
000C00
000000
003E00
003E00
007E00
007E00
00FE00
01EE00
01EE00
03CE00
03CE00
078F00
078F00
0F0F00
0F0F00
1FFF00
1FFF00
3FFF00
3C0F00
780F00
780F00
F80F00
F00F00
ENDCHAR
STARTCHAR 01CE
ENCODING 462
SWIDTH 480 0
DWIDTH 16 0
BBX 16 23 2 0
BITMAP
0082
01CF
00FE
007C
0070
0020
0000
01FC
07FE
1FFE
3FBE
3C1E
7C3C
783C
F83C
F03C
F078
F078
F078
F8F8
7FF8
7FF8
3F3C
ENDCHAR
STARTCHAR 01CF
ENCODING 463
SWIDTH 480 0
DWIDTH 16 0
BBX 18 27 1 1
BITMAP
006380
007780
007E00
003C00
001800
000000
07FFC0
07FFC0
07FFC0
0FFF80
007800
00F800
00F000
00F000
00F000
01F000
01E000
01E000
01E000
03E000
03C000
03C000
03C000
03C000
7FFC00
FFFC00
FFF800
ENDCHAR
STARTCHAR 01D0
ENCODING 464
SWIDTH 480 0
DWIDTH 16 0
BBX 12 23 4 0
BITMAP
0820
1EF0
0FE0
07C0
0380
0200
0000
FF80
FF80
FF00
FF00
0F00
0F00
1F00
1E00
1E00
1E00
3E00
3E00
3E20
1FE0
1FE0
0FE0
ENDCHAR
STARTCHAR 01D1
ENCODING 465
SWIDTH 480 0
DWIDTH 16 0
BBX 16 27 2 1
BITMAP
00C7
00FF
007E
0038
0030
0000
01F8
07FC
0FFE
0FFF
1F1F
3E0F
3C0F
3C0F
780F
780F
781F
781E
F01E
F01E
F03C
F03C
F87C
78F8
7FF0
3FE0
1FC0
ENDCHAR
STARTCHAR 01D2
ENCODING 466
SWIDTH 480 0
DWIDTH 16 0
BBX 15 23 2 0
BITMAP
0184
03CE
01FC
00F8
0070
0060
0000
03F0
0FF8
1FFC
3F7E
3C3E
781E
781E
781E
F03E
F03C
F03C
F87C
F8F8
7FF0
7FE0
3FC0
ENDCHAR
STARTCHAR 01D3
ENCODING 467
SWIDTH 480 0
DWIDTH 16 0
BBX 17 27 2 1
BITMAP
00C700
00EF00
00FC00
007800
003000
000000
0F0780
1F0780
1E0780
1E0F80
1E0F00
3E0F00
3C0F00
3C1F00
3C1E00
7C1E00
781E00
783E00
783C00
783C00
F03C00
F07C00
F07800
F8F800
7FF000
7FE000
3FC000
ENDCHAR
STARTCHAR 01D4
ENCODING 468
SWIDTH 480 0
DWIDTH 16 0
BBX 14 23 3 0
BITMAP
0208
073C
03F8
01F0
01E0
0080
0000
3C3C
3C3C
783C
783C
787C
7878
F878
F078
F0F8
F0F0
F0F0
F0F0
F3F0
FFF0
FFF0
7E78
ENDCHAR
STARTCHAR 01D5
ENCODING 469
SWIDTH 480 0
DWIDTH 16 0
BBX 17 28 2 0
BITMAP
00FF00
00FF00
00FE00
000000
01CE00
03CF00
01CE00
000000
000000
1E0780
1E0F80
1E0F00
3E0F00
3C0F00
3C1F00
3C1E00
7C1E00
781E00
783E00
783C00
783C00
F03C00
F07C00
F07800
F8F800
7FF000
7FE000
3FC000
ENDCHAR
STARTCHAR 01D6
ENCODING 470
SWIDTH 480 0
DWIDTH 16 0
BBX 14 24 3 0
BITMAP
03FC
03F8
0000
0738
0F3C
0F38
0410
0000
3C3C
3C3C
783C
783C
787C
7878
F878
F078
F0F8
F0F0
F0F0
F0F0
F3F0
FFF0
FFF0
7E78
ENDCHAR
STARTCHAR 01D7
ENCODING 471
SWIDTH 480 0
DWIDTH 16 0
BBX 17 28 2 0
BITMAP
001000
001800
003800
03BB00
07B780
078700
000000
000000
1F0780
1E0780
1E0F80
1E0F00
3E0F00
3C0F00
3C1F00
3C1E00
7C1E00
781E00
783E00
783C00
783C00
F03C00
F07C00
F07800
F8F800
7FF000
7FE000
3FC000
ENDCHAR
STARTCHAR 01D8
ENCODING 472
SWIDTH 480 0
DWIDTH 16 0
BBX 15 26 3 1
BITMAP
0030
0038
0078
00F0
00E0
0E4E
0E1E
0E0E
0000
0000
3C3C
3C3C
783C
783C
787C
7878
F878
F078
F0F8
F0F0
F0F0
F0F0
F3F0
FFF0
FFF0
7E78
ENDCHAR
STARTCHAR 01D9
ENCODING 473
SWIDTH 480 0
DWIDTH 16 0
BBX 17 27 2 1
BITMAP
007C00
007C00
03B380
078780
038780
000000
000000
1F0780
1E0780
1E0F80
1E0F00
3E0F00
3C0F00
3C1F00
3C1E00
7C1E00
781E00
783E00
783C00
783C00
F03C00
F07C00
F07800
F8F800
7FF000
7FE000
3FC000
ENDCHAR
STARTCHAR 01DA
ENCODING 474
SWIDTH 480 0
DWIDTH 16 0
BBX 15 25 3 1
BITMAP
0398
03F8
01F0
00E0
0E4E
0E1E
0E0E
0000
0000
3C3C
3C3C
783C
783C
787C
7878
F878
F078
F0F8
F0F0
F0F0
F0F0
F3F0
FFF0
FFF0
7E78
ENDCHAR
STARTCHAR 01DB
ENCODING 475
SWIDTH 480 0
DWIDTH 16 0
BBX 17 27 2 1
BITMAP
007000
007000
03BB80
079780
038780
000000
000000
1F0780
1E0780
1E0F80
1E0F00
3E0F00
3C0F00
3C1F00
3C1E00
7C1E00
781E00
783E00
783C00
783C00
F03C00
F07C00
F07800
F8F800
7FF000
7FE000
3FC000
ENDCHAR
STARTCHAR 01DC
ENCODING 476
SWIDTH 480 0
DWIDTH 16 0
BBX 15 26 3 0
BITMAP
0180
0380
03C0
01C0
00C0
1C9C
1E1E
1C1C
0000
0000
3C3C
3C3C
783C
783C
787C
7878
F878
F078
F0F8
F0F0
F0F0
F0F0
F3F0
FFF0
FFF0
7E78
ENDCHAR
STARTCHAR 01DD
ENCODING 477
SWIDTH 480 0
DWIDTH 16 0
BBX 15 16 2 0
BITMAP
0FE0
3FF8
3FFC
387C
003C
003E
07FE
1FFE
7FFC
F83C
F03C
F078
F0F8
FFF0
FFE0
3F80
ENDCHAR
STARTCHAR 01DE
ENCODING 478
SWIDTH 480 0
DWIDTH 16 0
BBX 18 28 0 0
BITMAP
003FC0
003FC0
003F80
000000
007380
00F380
00E380
000000
000000
003E00
007E00
00FE00
00FE00
01FE00
01CE00
03CE00
038E00
078E00
0F0F00
0F0F00
1F0F00
1FFF00
3FFF00
3FFF00
7C0F00
780F00
F80F00
F00F00
ENDCHAR
STARTCHAR 01DF
ENCODING 479
SWIDTH 480 0
DWIDTH 16 0
BBX 16 24 2 0
BITMAP
00FF
00FE
0000
01CE
03CE
03CE
0004
0000
01FC
07FE
1FFE
3FBE
3C1E
7C3C
783C
F83C
F03C
F078
F078
F078
F8F8
7FF8
7FF8
3F3C
ENDCHAR
STARTCHAR 01E0
ENCODING 480
SWIDTH 480 0
DWIDTH 16 0
BBX 18 28 0 0
BITMAP
003FC0
003FC0
003F80
000000
001E00
001E00
001C00
000000
000000
003E00
007E00
00FE00
00FE00
01FE00
01CE00
03CE00
038E00
078E00
0F0F00
0F0F00
1F0F00
1FFF00
3FFF00
3FFF00
7C0F00
780F00
F80F00
F00F00
ENDCHAR
STARTCHAR 01E1
ENCODING 481
SWIDTH 480 0
DWIDTH 16 0
BBX 16 24 2 0
BITMAP
00FF
00FE
0000
0070
0078
0070
0020
0000
01FC
07FE
1FFE
3FBE
3C1E
7C3C
783C
F83C
F03C
F078
F078
F078
F8F8
7FF8
7FF8
3F3C
ENDCHAR
STARTCHAR 01E2
ENCODING 482
SWIDTH 480 0
DWIDTH 16 0
BBX 21 26 0 0
BITMAP
000FF8
000FF8
001FF8
000000
000000
001FF0
003FF0
007FF0
007FE0
00EE00
01EE00
01DE00
03DE00
039F80
079F80
073F80
0F3F80
0E3C00
1FF800
1FF800
3FF800
3C7800
787000
78FF00
F0FF00
F0FF00
ENDCHAR
STARTCHAR 01E3
ENCODING 483
SWIDTH 480 0
DWIDTH 16 0
BBX 17 22 1 0
BITMAP
01FF80
01FF00
01FF00
000000
000000
000000
1F0F00
3F9F80
3FBF80
21F380
01E380
01E380
07C700
1FDF00
3FFE00
71F800
E3C000
E3C000
E7C000
FEFE00
FEFE00
7C7E00
ENDCHAR
STARTCHAR 01E4
ENCODING 484
SWIDTH 480 0
DWIDTH 16 0
BBX 16 21 3 0
BITMAP
01FC
07FF
0FFE
1FDC
3E00
3C00
7C00
7800
F800
F03C
F03C
F078
F1FE
F1FC
F3FC
F0F0
F0F0
F8F0
FFF0
7FF0
3FE0
ENDCHAR
STARTCHAR 01E5
ENCODING 485
SWIDTH 480 0
DWIDTH 16 0
BBX 18 22 0 -6
BITMAP
007F00
01FF80
07FF80
0FEF80
0F0F00
1F0F00
1E3FC0
1E7FC0
1E7FC0
1E1E00
1E1E00
1F7E00
1FFC00
0FFC00
07BC00
003C00
007800
60F800
7FF000
FFE000
FFC000
0C0000
ENDCHAR
STARTCHAR 01E6
ENCODING 486
SWIDTH 480 0
DWIDTH 16 0
BBX 16 27 3 1
BITMAP
00C7
00EF
007E
0078
0030
0000
01FC
07FF
0FFF
1FDE
3F02
3C00
7C00
7800
F800
F000
F03C
F03C
F03C
F078
F078
F078
F078
F8F0
FFF0
7FF0
3FF0
ENDCHAR
STARTCHAR 01E7
ENCODING 487
SWIDTH 480 0
DWIDTH 16 0
BBX 19 29 0 -6
BITMAP
001040
0039E0
001FC0
001F80
000E00
000400
000000
007F00
01FFC0
07FF80
07E780
0F8780
1F0780
1E0F00
1E0F00
1E0F00
1E0F00
1E1E00
1F3E00
1FFE00
0FFE00
07FE00
003C00
003C00
607800
7FF800
FFF000
FFE000
040000
ENDCHAR
STARTCHAR 01E8
ENCODING 488
SWIDTH 480 0
DWIDTH 16 0
BBX 19 28 1 0
BITMAP
004100
00E300
00FF00
007E00
003C00
001800
000000
0783E0
0783C0
0F8780
0F0F80
0F1F00
0F3E00
1F7C00
1E7800
1FF000
1FE000
1FC000
3FE000
3DF000
3CF000
3CF800
787800
787C00
783C00
783C00
F83E00
F01E00
ENDCHAR
STARTCHAR 01E9
ENCODING 489
SWIDTH 480 0
DWIDTH 16 0
BBX 17 27 2 1
BITMAP
039C00
03F800
01F000
00E000
000000
000000
078000
0F8000
0F0000
0F0000
0F0000
0F0F80
1E1F00
1E3E00
1E7C00
1EF800
3DF000
3FE000
3FC000
3FC000
7BE000
79E000
78F000
78F000
F8F800
F07800
F07C00
ENDCHAR
STARTCHAR 01EA
ENCODING 490
SWIDTH 480 0
DWIDTH 16 0
BBX 16 27 2 -6
BITMAP
01F8
07FC
0FFE
0FFF
1F1F
3E0F
3C0F
3C0F
780F
780F
781F
781E
F01E
F01E
F03C
F03C
F878
78F8
7FF0
3FE0
1FC0
0F00
1E00
3C00
3F00
3F00
1E00
ENDCHAR
STARTCHAR 01EB
ENCODING 491
SWIDTH 480 0
DWIDTH 16 0
BBX 15 22 2 -6
BITMAP
03F0
0FF8
1FFC
3F7E
3C3E
781E
781E
781E
F03E
F03C
F03C
F87C
F8F8
7FF0
7FE0
3FC0
0700
1E00
3C00
3F00
3F00
0E00
ENDCHAR
STARTCHAR 01EC
ENCODING 492
SWIDTH 480 0
DWIDTH 16 0
BBX 16 32 2 -6
BITMAP
01FF
01FF
03FF
0000
0000
01F8
07FC
0FFE
0FFF
1F1F
3E0F
3C0F
3C0F
780F
780F
781F
781E
F01E
F01E
F03C
F03C
F878
78F8
7FF0
3FE0
1FC0
0F00
1E00
3C00
3F00
3F00
1E00
ENDCHAR
STARTCHAR 01ED
ENCODING 493
SWIDTH 480 0
DWIDTH 16 0
BBX 16 28 2 -6
BITMAP
03FF
03FF
03FF
0000
0000
0000
03F0
0FF8
1FFC
3F7E
3C3E
781E
781E
781E
F03E
F03C
F03C
F87C
F8F8
7FF0
7FE0
3FC0
0700
1E00
3C00
3F00
3F00
0E00
ENDCHAR
STARTCHAR 01EE
ENCODING 494
SWIDTH 480 0
DWIDTH 16 0
BBX 18 28 1 0
BITMAP
006380
007780
007E00
003C00
001800
000000
07FFC0
07FFC0
07FFC0
07FF80
000F00
001E00
003C00
007800
00F000
01F800
03FC00
00FE00
001E00
001E00
001E00
001E00
003E00
707C00
7FFC00
FFF800
7FE000
030000
ENDCHAR
STARTCHAR 01EF
ENCODING 495
SWIDTH 480 0
DWIDTH 16 0
BBX 17 29 0 -6
BITMAP
006100
00F380
007F00
003E00
001C00
001800
000000
07FF80
07FF80
0FFF80
0FFF00
001E00
003C00
007800
00F000
01E000
03F000
03F800
01FC00
003C00
003C00
003C00
003C00
003C00
60FC00
7FF800
FFF000
FFC000
040000
ENDCHAR
STARTCHAR 01F0
ENCODING 496
SWIDTH 480 0
DWIDTH 16 0
BBX 17 29 0 -6
BITMAP
004100
00E780
007F00
007E00
003800
001000
000000
07FF00
07FF00
07FE00
07FE00
001E00
003E00
003C00
003C00
003C00
007C00
007800
007800
007800
007800
00F000
00F000
00F000
61F000
7FE000
FFC000
FF8000
0E0000
ENDCHAR
STARTCHAR 01F1
ENCODING 497
SWIDTH 480 0
DWIDTH 16 0
BBX 21 21 0 0
BITMAP
07C1F8
07E3F8
07F3F0
0E7070
0E7070
0E70E0
0E70C0
1C71C0
1C7180
1C7380
1C7300
387700
38E600
38EE00
38EC00
31DC00
71DC00
73B800
7F3F80
7E3F00
FC7F00
ENDCHAR
STARTCHAR 01F2
ENCODING 498
SWIDTH 480 0
DWIDTH 16 0
BBX 20 21 0 0
BITMAP
07C000
07E000
07F000
0E7000
0E7000
0E73F0
0E73F0
1C77E0
1C70E0
1C71C0
1C71C0
387380
38E380
38E700
38E600
31CE00
71CC00
739C00
7F3F80
7E3F80
FC3F00
ENDCHAR
STARTCHAR 01F3
ENCODING 499
SWIDTH 480 0
DWIDTH 16 0
BBX 19 23 1 0
BITMAP
003800
007000
007000
007000
007000
00E000
00E000
0FE7E0
1FE7E0
1FCFC0
39C1C0
79C380
71C380
738700
E38700
E38E00
E38C00
E31C00
E71800
E73800
FF7F00
FE7F00
7E7E00
ENDCHAR
STARTCHAR 01F4
ENCODING 500
SWIDTH 480 0
DWIDTH 16 0
BBX 16 27 3 1
BITMAP
0018
0078
00FC
01F0
00C0
0000
01FC
07FF
0FFF
1FDE
3F02
3C00
7C00
7800
F800
F000
F03C
F03C
F03C
F078
F078
F078
F078
F8F0
FFF0
7FF0
3FF0
ENDCHAR
STARTCHAR 01F5
ENCODING 501
SWIDTH 480 0
DWIDTH 16 0
BBX 18 29 0 -6
BITMAP
000200
000700
000F80
003F00
003C00
001800
000000
007F00
01FFC0
07FF80
07E780
0F8780
1F0780
1E0F00
1E0F00
1E0F00
1E0F00
1E1E00
1F3E00
1FFE00
0FFE00
07FE00
003C00
003C00
607800
7FF800
FFF000
FFE000
040000
ENDCHAR
STARTCHAR 01F6
ENCODING 502
SWIDTH 480 0
DWIDTH 16 0
BBX 19 21 0 0
BITMAP
071C00
071C00
071C00
0F3C00
0E3800
0E38E0
0E38E0
1E79E0
1C71C0
1FF1C0
1FF1C0
3FF3C0
3CF380
38E380
38E380
78E780
79E700
71E700
71FF00
70FE00
F0FC00
ENDCHAR
STARTCHAR 01F7
ENCODING 503
SWIDTH 480 0
DWIDTH 16 0
BBX 19 27 0 -6
BITMAP
007E00
03FF80
03FFC0
03FFC0
03C3C0
07C3C0
0783E0
0783C0
0783C0
0F83C0
0F03C0
0F0780
0F0F80
1F0F00
1E1F00
1E3E00
1EFC00
1FF800
3FE000
3F8000
3E0000
3C0000
780000
780000
780000
780000
F80000
ENDCHAR
STARTCHAR 01F8
ENCODING 504
SWIDTH 480 0
DWIDTH 16 0
BBX 18 28 1 0
BITMAP
004000
006000
00F000
00FC00
007E00
001C00
000000
0701C0
0781C0
0F83C0
0F83C0
0FC3C0
0FC380
1FC780
1FC780
1CE780
1CE700
3CEF00
3CEF00
3C6F00
387E00
787E00
787E00
787E00
703C00
F03C00
F03C00
F03C00
ENDCHAR
STARTCHAR 01F9
ENCODING 505
SWIDTH 480 0
DWIDTH 16 0
BBX 15 23 2 0
BITMAP
0080
01C0
03E0
01F8
0078
0030
0000
07F0
1FFC
1FFC
3FFC
3C3E
3C3E
3C3C
7C3C
783C
783C
7878
7878
F078
F078
F0F0
F0F0
ENDCHAR
STARTCHAR 01FA
ENCODING 506
SWIDTH 480 0
DWIDTH 16 0
BBX 16 28 0 0
BITMAP
0001
0007
001F
001C
0000
001E
003F
0033
0033
003E
007E
00FE
00EE
01EE
01CE
03CE
038E
078F
070F
0F0F
0FFF
1FFF
1FFF
3FFF
3C0F
780F
780F
F00F
ENDCHAR
STARTCHAR 01FB
ENCODING 507
SWIDTH 480 0
DWIDTH 16 0
BBX 15 27 2 1
BITMAP
000E
003E
0070
0000
0078
007C
00CC
00CC
007C
0038
0000
01FC
07FE
1FFE
3FBE
3C1E
7C3C
783C
F83C
F03C
F078
F078
F078
F8F8
7FF8
7FF8
3F3C
ENDCHAR
STARTCHAR 01FC
ENCODING 508
SWIDTH 480 0
DWIDTH 16 0
BBX 20 28 0 0
BITMAP
000040
0000C0
0001E0
0007F0
000FC0
000700
000000
001FF0
003FF0
007FF0
007FE0
00EE00
01EE00
01DE00
03DE00
039F80
079F80
073F80
0F3F80
0E3C00
1FF800
1FF800
3FF800
3C7800
787000
78FF00
F0FF00
F0FF00
ENDCHAR
STARTCHAR 01FD
ENCODING 509
SWIDTH 480 0
DWIDTH 16 0
BBX 17 23 1 0
BITMAP
000400
001C00
003E00
007E00
007800
006000
000000
1F0F00
3F9F80
3FBF80
21F380
01E380
01E380
07C700
1FDF00
3FFE00
71F800
E3C000
E3C000
E7C000
FEFE00
FEFE00
7C7E00
ENDCHAR
STARTCHAR 01FE
ENCODING 510
SWIDTH 480 0
DWIDTH 16 0
BBX 16 29 2 -1
BITMAP
0010
0030
0078
01FC
03F0
01C0
0002
01FF
07FF
0FFE
0F9F
1E3F
3E3F
3C7F
38FF
78EF
79EF
79CF
739E
F79E
F71E
FE3C
FC3C
FC7C
78F8
7FF0
7FE0
FFC0
E000
ENDCHAR
STARTCHAR 01FF
ENCODING 511
SWIDTH 480 0
DWIDTH 16 0
BBX 15 24 3 -2
BITMAP
0020
0070
01F0
03F0
03C0
0300
0004
03FE
0FFC
1FFC
3E7C
7C7E
78FE
71DE
F3DE
F7BC
FF3C
FE3C
FC78
F8F8
FFF0
7FE0
FFC0
C000
ENDCHAR
STARTCHAR 0200
ENCODING 512
SWIDTH 480 0
DWIDTH 16 0
BBX 18 27 0 1
BITMAP
00E300
00E780
00F3C0
0071C0
0030C0
000000
003E00
003E00
007E00
007E00
00FE00
01EE00
01EE00
03CE00
03CE00
078F00
078F00
0F0F00
0F0F00
1FFF00
1FFF00
3FFF00
3C0F00
780F00
780F00
F80F00
F00F00
ENDCHAR
STARTCHAR 0201
ENCODING 513
SWIDTH 480 0
DWIDTH 16 0
BBX 16 23 2 0
BITMAP
0100
031C
079C
038E
01C7
0086
0000
01FC
07FE
1FFE
3FBE
3C1E
7C3C
783C
F83C
F03C
F078
F078
F078
F8F8
7FF8
7FF8
3F3C
ENDCHAR
STARTCHAR 0202
ENCODING 514
SWIDTH 480 0
DWIDTH 16 0
BBX 18 27 0 0
BITMAP
001F00
007F80
007F80
00F3C0
00E1C0
000000
003E00
003E00
007E00
007E00
00FE00
01EE00
01EE00
03CE00
03CE00
078F00
078F00
0F0F00
0F0F00
1FFF00
1FFF00
3FFF00
3C0F00
780F00
780F00
F80F00
F00F00
ENDCHAR
STARTCHAR 0203
ENCODING 515
SWIDTH 480 0
DWIDTH 16 0
BBX 15 22 2 1
BITMAP
00FC
01FE
03DE
038E
0000
0000
01FC
07FE
1FFE
3FBE
3C1E
7C3C
783C
F83C
F03C
F078
F078
F078
F8F8
7FF8
7FF8
3F3C
ENDCHAR
STARTCHAR 0204
ENCODING 516
SWIDTH 480 0
DWIDTH 16 0
BBX 17 28 2 0
BITMAP
008000
018600
03CF00
01C700
00E380
006300
000000
07FF80
0FFF80
0FFF00
0FFF00
0F0000
1F0000
1E0000
1E0000
1FFC00
1FFC00
3FF800
3FF800
3C0000
3C0000
780000
780000
780000
780000
FFF800
FFF800
FFF800
ENDCHAR
STARTCHAR 0205
ENCODING 517
SWIDTH 480 0
DWIDTH 16 0
BBX 16 23 2 0
BITMAP
0100
031C
079C
038E
01C7
0086
0000
01F8
07FC
0FFE
1F3E
3C1E
781E
783E
7BFC
7FF8
FFE0
7800
7800
7C08
7FF8
3FF8
1FF8
ENDCHAR
STARTCHAR 0206
ENCODING 518
SWIDTH 480 0
DWIDTH 16 0
BBX 17 27 2 0
BITMAP
007E00
00FF00
00FF00
01C700
01C700
000000
07FF80
0FFF80
0FFF00
0FFF00
0F0000
1F0000
1E0000
1E0000
1FFC00
1FFC00
3FF800
3FF800
3C0000
3C0000
780000
780000
780000
780000
FFF800
FFF800
FFF800
ENDCHAR
STARTCHAR 0207
ENCODING 519
SWIDTH 480 0
DWIDTH 16 0
BBX 15 22 2 1
BITMAP
00FC
01FC
03DE
038E
0000
0000
01F8
07FC
0FFE
1F3E
3C1E
781E
783E
7BFC
7FF8
FFE0
7800
7800
7C08
7FF8
3FF8
1FF8
ENDCHAR
STARTCHAR 0208
ENCODING 520
SWIDTH 480 0
DWIDTH 16 0
BBX 18 27 1 1
BITMAP
01C600
01CF00
01E780
00E380
006180
000000
07FFC0
07FFC0
07FFC0
0FFF80
007800
00F800
00F000
00F000
00F000
01F000
01E000
01E000
01E000
03E000
03C000
03C000
03C000
03C000
7FFC00
FFFC00
FFF800
ENDCHAR
STARTCHAR 0209
ENCODING 521
SWIDTH 480 0
DWIDTH 16 0
BBX 12 23 4 0
BITMAP
0040
38E0
3CE0
1C70
0E70
0430
0000
FF80
FF80
FF00
FF00
0F00
0F00
1F00
1E00
1E00
1E00
3E00
3E00
3E20
1FE0
1FE0
0FE0
ENDCHAR
STARTCHAR 020A
ENCODING 522
SWIDTH 480 0
DWIDTH 16 0
BBX 18 27 1 0
BITMAP
003E00
007F00
00FF80
00E380
01C380
000000
07FFC0
07FFC0
07FFC0
0FFF80
007800
00F800
00F000
00F000
00F000
01F000
01E000
01E000
01E000
03E000
03C000
03C000
03C000
03C000
7FFC00
FFFC00
FFF800
ENDCHAR
STARTCHAR 020B
ENCODING 523
SWIDTH 480 0
DWIDTH 16 0
BBX 12 22 4 1
BITMAP
0FC0
1FE0
1EF0
3C70
0000
0000
FF80
FF80
FF00
FF00
0F00
0F00
1F00
1E00
1E00
1E00
3E00
3E00
3E20
1FE0
1FE0
0FE0
ENDCHAR
STARTCHAR 020C
ENCODING 524
SWIDTH 480 0
DWIDTH 16 0
BBX 16 28 2 0
BITMAP
0100
030C
079E
038E
01C7
00C6
0000
01F8
07FC
0FFE
0FFF
1F1F
3E0F
3C0F
3C0F
780F
780F
781F
781E
F01E
F01E
F03C
F03C
F87C
78F8
7FF0
3FE0
1FC0
ENDCHAR
STARTCHAR 020D
ENCODING 525
SWIDTH 480 0
DWIDTH 16 0
BBX 15 23 2 0
BITMAP
0008
071C
079C
039E
01CE
0184
0000
03F0
0FF8
1FFC
3F7E
3C3E
781E
781E
781E
F03E
F03C
F03C
F87C
F8F8
7FF0
7FE0
3FC0
ENDCHAR
STARTCHAR 020E
ENCODING 526
SWIDTH 480 0
DWIDTH 16 0
BBX 16 27 2 0
BITMAP
007E
00FE
01FF
01C7
01C7
0000
01F8
07FC
0FFE
0FFF
1F1F
3E0F
3C0F
3C0F
780F
780F
781F
781E
F01E
F01E
F03C
F03C
F87C
78F8
7FF0
3FE0
1FC0
ENDCHAR
STARTCHAR 020F
ENCODING 527
SWIDTH 480 0
DWIDTH 16 0
BBX 15 22 2 1
BITMAP
00FC
01FC
03DE
038E
0000
0000
03F0
0FF8
1FFC
3F7E
3C3E
781E
781E
781E
F03E
F03C
F03C
F87C
F8F8
7FF0
7FE0
3FC0
ENDCHAR
STARTCHAR 0210
ENCODING 528
SWIDTH 480 0
DWIDTH 16 0
BBX 17 28 1 0
BITMAP
008000
018600
03CE00
01C700
00E780
004300
000000
03F800
07FE00
07FF00
0FFF00
0F0F80
0F0780
0F0780
1E0F80
1E0F00
1E1F00
1FFE00
3FFC00
3FF000
3CF000
3C7800
7C7800
787800
783C00
783C00
F83C00
F01E00
ENDCHAR
STARTCHAR 0211
ENCODING 529
SWIDTH 480 0
DWIDTH 16 0
BBX 15 23 2 0
BITMAP
0008
071C
079C
039E
01CE
0184
0000
01FE
0FFE
0FFE
1FFE
1E00
1E00
1E00
3C00
3C00
3C00
3C00
7C00
7800
7800
7800
F800
ENDCHAR
STARTCHAR 0212
ENCODING 530
SWIDTH 480 0
DWIDTH 16 0
BBX 17 27 1 0
BITMAP
003E00
007F00
00FF80
00E380
01C380
000000
03F800
07FE00
07FF00
0FFF00
0F0F80
0F0780
0F0780
1E0F80
1E0F00
1E1F00
1FFE00
3FFC00
3FF000
3CF000
3C7800
7C7800
787800
783C00
783C00
F83C00
F01E00
ENDCHAR
STARTCHAR 0213
ENCODING 531
SWIDTH 480 0
DWIDTH 16 0
BBX 15 22 2 1
BITMAP
00FC
01FE
03DE
038E
0000
0000
01FE
0FFE
0FFE
1FFE
1E00
1E00
1E00
3C00
3C00
3C00
3C00
7C00
7800
7800
7800
F800
ENDCHAR
STARTCHAR 0214
ENCODING 532
SWIDTH 480 0
DWIDTH 16 0
BBX 17 27 2 1
BITMAP
038C00
039E00
03CF00
01C700
00C300
000000
0F0780
1F0780
1E0780
1E0F80
1E0F00
3E0F00
3C0F00
3C1F00
3C1E00
7C1E00
781E00
783E00
783C00
783C00
F03C00
F07C00
F07800
F8F800
7FF000
7FE000
3FC000
ENDCHAR
STARTCHAR 0215
ENCODING 533
SWIDTH 480 0
DWIDTH 16 0
BBX 14 23 3 0
BITMAP
0010
0E38
0F38
073C
039C
0308
0000
3C3C
3C3C
783C
783C
787C
7878
F878
F078
F0F8
F0F0
F0F0
F0F0
F3F0
FFF0
FFF0
7E78
ENDCHAR
STARTCHAR 0216
ENCODING 534
SWIDTH 480 0
DWIDTH 16 0
BBX 17 27 2 0
BITMAP
007C00
00FE00
01FF00
01C700
038700
000000
0F0780
1F0780
1E0780
1E0F80
1E0F00
3E0F00
3C0F00
3C1F00
3C1E00
7C1E00
781E00
783E00
783C00
783C00
F03C00
F07C00
F07800
F8F800
7FF000
7FE000
3FC000
ENDCHAR
STARTCHAR 0217
ENCODING 535
SWIDTH 480 0
DWIDTH 16 0
BBX 14 22 3 1
BITMAP
01F8
03F8
07BC
071C
0000
0000
3C3C
3C3C
783C
783C
787C
7878
F878
F078
F0F8
F0F0
F0F0
F0F0
F3F0
FFF0
FFF0
7E78
ENDCHAR
STARTCHAR 0218
ENCODING 536
SWIDTH 480 0
DWIDTH 16 0
BBX 17 27 1 -6
BITMAP
00FE00
03FF80
07FF80
0FCF00
0F0100
0F0000
0F0000
0F0000
0FC000
0FF000
07F800
01FC00
007C00
003E00
001E00
001E00
003E00
707C00
7FFC00
FFF800
7FE000
000000
070000
0F0000
3E0000
7C0000
780000
ENDCHAR
STARTCHAR 0219
ENCODING 537
SWIDTH 480 0
DWIDTH 16 0
BBX 15 22 2 -6
BITMAP
03FC
0FFE
1FFC
1F1C
1E00
1E00
1F80
1FE0
0FF0
03F8
00F8
0078
60F8
FFF0
FFF0
7FC0
0000
0E00
0E00
7E00
7C00
7000
ENDCHAR
STARTCHAR 021A
ENCODING 538
SWIDTH 480 0
DWIDTH 16 0
BBX 18 27 2 -6
BITMAP
1FFFC0
1FFFC0
1FFFC0
3FFF80
00F000
01E000
01E000
01E000
01E000
03C000
03C000
03C000
03C000
07C000
078000
078000
078000
0F8000
0F0000
0F0000
0F0000
000000
0E0000
1E0000
7C0000
FC0000
600000
ENDCHAR
STARTCHAR 021B
ENCODING 539
SWIDTH 480 0
DWIDTH 16 0
BBX 14 26 4 -6
BITMAP
0F80
0F00
0F00
0F00
FFFC
FFF8
FFF8
FFF8
1E00
3C00
3C00
3C00
3C00
7C00
7800
7800
7C20
7FE0
3FE0
1FE0
0000
0E00
1E00
7E00
7C00
7000
ENDCHAR
STARTCHAR 021C
ENCODING 540
SWIDTH 480 0
DWIDTH 16 0
BBX 19 27 -1 -6
BITMAP
00FE00
03FF80
03FFC0
03FFC0
0003E0
0003E0
0003C0
0003C0
0007C0
000F80
03FF00
03FE00
03FC00
03FE00
001F00
000F00
000F00
000F00
000F00
000F00
001F00
003E00
01FE00
7FFC00
FFF000
FFC000
600000
ENDCHAR
STARTCHAR 021D
ENCODING 541
SWIDTH 480 0
DWIDTH 16 0
BBX 16 22 0 -6
BITMAP
03F8
0FFE
07FF
07FF
000F
000F
000F
003E
03FC
03F8
07F8
07FC
003E
001E
001E
003E
007C
03FC
FFF8
FFE0
FF80
C000
ENDCHAR
STARTCHAR 021E
ENCODING 542
SWIDTH 480 0
DWIDTH 16 0
BBX 19 27 1 1
BITMAP
006380
007780
007E00
003C00
001800
000000
0783E0
0783C0
0F03C0
0F03C0
0F07C0
0F0780
1E0780
1E0780
1FFF80
1FFF00
3FFF00
3FFF00
3C0F00
3C1E00
7C1E00
781E00
781E00
783C00
F83C00
F03C00
F03C00
ENDCHAR
STARTCHAR 021F
ENCODING 543
SWIDTH 480 0
DWIDTH 16 0
BBX 15 28 2 0
BITMAP
0008
0338
03F8
01E0
00C0
0000
0000
0700
0F00
0F00
0F00
1F00
1FF0
1FFC
1FFC
3FFC
3C3E
3C3E
3C3C
7C3C
783C
783C
7878
7878
F078
F078
F0F0
F0F0
ENDCHAR
STARTCHAR 0220
ENCODING 544
SWIDTH 480 0
DWIDTH 16 0
BBX 17 27 1 -6
BITMAP
03FC00
07FF00
0FFF00
0FFF80
0F0F80
0F0780
1E0780
1E0780
1E0F00
1E0F00
3E0F00
3C0F00
3C1F00
3C1E00
7C1E00
781E00
783E00
783C00
783C00
F03C00
F07C00
007800
007800
007800
007800
00F000
00F000
ENDCHAR
STARTCHAR 0221
ENCODING 545
SWIDTH 480 0
DWIDTH 16 0
BBX 16 29 1 -6
BITMAP
0007
000F
000E
000E
001E
001E
001E
01FC
07FC
1FFC
1F7C
3C38
7878
7878
7078
7070
70F0
F0F0
F0F0
78FC
7FFE
7FFF
3FC7
03C7
0FC7
1FEE
1DFE
18FC
0020
ENDCHAR
STARTCHAR 0222
ENCODING 546
SWIDTH 480 0
DWIDTH 16 0
BBX 17 21 1 0
BITMAP
03C380
078780
078780
078780
0F8780
0F0780
0F0F00
0F9F00
07FE00
03FC00
0FFE00
3FFE00
3C1F00
780F00
780F00
780F00
F81F00
7C3E00
7FFE00
3FFC00
1FF000
ENDCHAR
STARTCHAR 0223
ENCODING 547
SWIDTH 480 0
DWIDTH 16 0
BBX 17 23 2 0
BITMAP
078780
078780
0F0780
0F0780
0F0F80
1F0F00
1E0F00
1F1F00
0FFE00
0FFC00
0FF800
1FFC00
3E3E00
781E00
781E00
F01E00
F03E00
F03C00
F07C00
F8F800
7FF800
7FF000
3FC000
ENDCHAR
STARTCHAR 0224
ENCODING 548
SWIDTH 480 0
DWIDTH 16 0
BBX 18 27 1 -6
BITMAP
07FFC0
07FFC0
07FFC0
0FFF80
000F80
001F00
003E00
007C00
00F800
00F000
01E000
03C000
07C000
0F8000
1F0000
1E0000
3C0000
780000
7FFC00
FFFC00
FFFC00
003800
003800
027800
03F000
07E000
010000
ENDCHAR
STARTCHAR 0225
ENCODING 549
SWIDTH 480 0
DWIDTH 16 0
BBX 16 22 0 -6
BITMAP
0FFF
0FFF
0FFF
1FFE
007C
00F8
01F0
03E0
07C0
0F80
1F00
3E00
3C00
7FF8
7FF8
FFF8
0078
0070
04F0
07E0
07E0
0200
ENDCHAR
STARTCHAR 0226
ENCODING 550
SWIDTH 480 0
DWIDTH 16 0
BBX 16 27 0 0
BITMAP
000E
001F
001F
001E
0000
0000
003E
003E
007E
007E
00FE
01EE
01EE
03CE
03CE
078F
078F
0F0F
0F0F
1FFF
1FFF
3FFF
3C0F
780F
780F
F80F
F00F
ENDCHAR
STARTCHAR 0227
ENCODING 551
SWIDTH 480 0
DWIDTH 16 0
BBX 15 22 2 1
BITMAP
0078
0078
0078
0078
0000
0000
01FC
07FE
1FFE
3FBE
3C1E
7C3C
783C
F83C
F03C
F078
F078
F078
F8F8
7FF8
7FF8
3F3C
ENDCHAR
STARTCHAR 0228
ENCODING 552
SWIDTH 480 0
DWIDTH 16 0
BBX 17 27 2 -6
BITMAP
07FF80
0FFF80
0FFF00
0FFF00
0F0000
1F0000
1E0000
1E0000
1FFC00
1FFC00
3FF800
3FF800
3C0000
3C0000
780000
780000
780000
780000
FFF800
FFF800
FFF800
070000
0F0000
038000
1F8000
3F0000
1C0000
ENDCHAR
STARTCHAR 0229
ENCODING 553
SWIDTH 480 0
DWIDTH 16 0
BBX 15 22 2 -6
BITMAP
01F8
07FC
0FFE
1F3E
3C1E
781E
783E
7BFC
7FF8
FFE0
7800
7800
7C08
7FF8
3FF8
1FF8
0700
0780
0380
1F80
3F80
1E00
ENDCHAR
STARTCHAR 022A
ENCODING 554
SWIDTH 480 0
DWIDTH 16 0
BBX 16 28 2 0
BITMAP
00FF
00FF
00FF
0000
01CE
03CF
01CE
0000
00F0
03FC
07FE
0FFF
1F1F
3E0F
3C0F
3C0F
780F
780F
781E
F81E
F01E
F03E
F03C
F07C
F8F8
7FF0
7FE0
1FC0
ENDCHAR
STARTCHAR 022B
ENCODING 555
SWIDTH 480 0
DWIDTH 16 0
BBX 16 24 2 0
BITMAP
00FF
00FE
0000
01CE
03CE
03CE
0004
0000
03F0
0FF8
1FFC
3F7E
3C3E
781E
781E
781E
F03E
F03C
F03C
F87C
F8F8
7FF0
7FE0
3FC0
ENDCHAR
STARTCHAR 022C
ENCODING 556
SWIDTH 480 0
DWIDTH 16 0
BBX 16 28 2 0
BITMAP
00FF
00FF
01FF
0000
01FE
01FE
03BC
0000
00F0
03FC
07FE
0FFF
1F1F
3E0F
3C0F
3C0F
780F
780F
781E
F81E
F01E
F03E
F03C
F07C
F8F8
7FF0
7FE0
1FC0
ENDCHAR
STARTCHAR 022D
ENCODING 557
SWIDTH 480 0
DWIDTH 16 0
BBX 16 24 2 0
BITMAP
00FF
01FE
0000
00E6
01FE
03FC
0100
0000
03F0
0FF8
1FFC
3F7E
3C3E
781E
781E
781E
F03E
F03C
F03C
F87C
F8F8
7FF0
7FE0
3FC0
ENDCHAR
STARTCHAR 022E
ENCODING 558
SWIDTH 480 0
DWIDTH 16 0
BBX 16 27 2 0
BITMAP
003C
003C
003C
003C
0010
0000
01F8
07FC
0FFE
0FFF
1F1F
3E0F
3C0F
3C0F
780F
780F
781F
781E
F01E
F01E
F03C
F03C
F87C
78F8
7FF0
3FE0
1FC0
ENDCHAR
STARTCHAR 022F
ENCODING 559
SWIDTH 480 0
DWIDTH 16 0
BBX 15 22 2 1
BITMAP
0078
0078
0078
0070
0000
0000
03F0
0FF8
1FFC
3F7E
3C3E
781E
781E
781E
F03E
F03C
F03C
F87C
F8F8
7FF0
7FE0
3FC0
ENDCHAR
STARTCHAR 0230
ENCODING 560
SWIDTH 480 0
DWIDTH 16 0
BBX 16 28 2 0
BITMAP
007F
00FF
00FF
0000
0038
0078
0038
0000
00F0
03FC
07FE
0FFF
1F1F
3E0F
3C0F
3C0F
780F
780F
781E
F81E
F01E
F03E
F03C
F07C
F8F8
7FF0
7FE0
1FC0
ENDCHAR
STARTCHAR 0231
ENCODING 561
SWIDTH 480 0
DWIDTH 16 0
BBX 15 24 2 0
BITMAP
00FE
01FE
0000
0070
0070
0070
0020
0000
03F0
0FF8
1FFC
3F7E
3C3E
781E
781E
781E
F03E
F03C
F03C
F87C
F8F8
7FF0
7FE0
3FC0
ENDCHAR
STARTCHAR 0232
ENCODING 562
SWIDTH 480 0
DWIDTH 16 0
BBX 16 26 5 0
BITMAP
0FFC
0FFC
0FF8
0000
0000
F01F
F01E
F03C
F07C
F078
70F0
79F0
79E0
7BC0
7FC0
3F80
3F00
3E00
3E00
3C00
3C00
3C00
3C00
7800
7800
7800
ENDCHAR
STARTCHAR 0233
ENCODING 563
SWIDTH 480 0
DWIDTH 16 0
BBX 19 28 -1 -6
BITMAP
007FC0
007FC0
00FFC0
000000
000000
000000
0781E0
0781E0
0783C0
0783C0
0787C0
078780
078780
07CF00
03CF00
03DE00
03DE00
03FC00
03FC00
01F800
01F000
01F000
03E000
07C000
FF8000
FF0000
FE0000
300000
ENDCHAR
STARTCHAR 0234
ENCODING 564
SWIDTH 480 0
DWIDTH 16 0
BBX 15 29 0 -6
BITMAP
03FC
07FC
07FC
0078
0078
0078
00F8
00F0
00F0
00F0
00F0
01E0
01E0
01E0
01E0
03C0
03C0
03C0
03C0
07FC
07FE
07FE
0F8E
1F8E
3F0E
7FFE
F7FC
63F8
0040
ENDCHAR
STARTCHAR 0235
ENCODING 565
SWIDTH 480 0
DWIDTH 16 0
BBX 16 22 1 -6
BITMAP
07E0
1FF0
1FF8
1C78
3C78
3C78
3C78
3878
7870
7870
78F0
70F0
70FE
F0FE
F1FF
E1C7
07C7
0FC7
1FEE
1CFE
08FC
0020
ENDCHAR
STARTCHAR 0236
ENCODING 566
SWIDTH 480 0
DWIDTH 16 0
BBX 18 26 0 -6
BITMAP
00F800
00F000
00F000
00F000
0FFFC0
0FFFC0
1FFF80
1FFF80
01E000
03C000
03C000
03C000
03C000
07C000
078000
078000
07F800
07FC00
0FFE00
0F1E00
1F1E00
7F1C00
FFBC00
E7F800
43F000
008000
ENDCHAR
STARTCHAR 0237
ENCODING 567
SWIDTH 480 0
DWIDTH 16 0
BBX 16 22 0 -6
BITMAP
07FF
07FF
07FE
07FE
001E
003E
003C
003C
003C
007C
0078
0078
0078
0078
00F0
00F0
00F0
61F0
7FE0
FFC0
FF80
0E00
ENDCHAR
STARTCHAR 0238
ENCODING 568
SWIDTH 480 0
DWIDTH 16 0
BBX 17 23 1 0
BITMAP
001C00
003800
003800
003800
007800
007000
007000
077E00
0FFF00
1FFF00
3CF780
38E780
38E780
71E700
71C700
71C700
F1C700
F3CF00
F38E00
F39E00
7FFC00
7FF800
7FF000
ENDCHAR
STARTCHAR 0239
ENCODING 569
SWIDTH 480 0
DWIDTH 16 0
BBX 17 22 1 -6
BITMAP
07DE00
0FFF00
1FFF00
3CE700
38E780
38E780
71E780
71C700
71C700
71C700
F3CF00
F38E00
F39E00
7FFC00
7FFC00
7FF800
070000
070000
0F0000
0E0000
0E0000
0E0000
ENDCHAR
STARTCHAR 023A
ENCODING 570
SWIDTH 480 0
DWIDTH 16 0
BBX 19 26 -1 -3
BITMAP
000060
000060
001EE0
003FC0
003FC0
007F80
007F80
00F700
00E700
01EF00
03CF00
03DF00
079F80
07BF80
0F3780
0FFF80
1FFF80
1FFF80
3CE780
3CC780
79C780
798780
FB8780
030000
070000
060000
ENDCHAR
STARTCHAR 023B
ENCODING 571
SWIDTH 480 0
DWIDTH 16 0
BBX 16 26 3 -2
BITMAP
0007
0007
01FE
07FF
0FFF
1FDF
3E3A
3C38
7C70
7870
F8E0
F1E0
F1C0
F3C0
F380
F780
F700
FF00
FE08
FE38
7FF8
7FF8
3FE0
7000
7000
2000
ENDCHAR
STARTCHAR 023C
ENCODING 572
SWIDTH 480 0
DWIDTH 16 0
BBX 14 21 3 -3
BITMAP
000C
001C
03FC
0FFC
1FFC
3FFC
7C60
78E0
F0C0
F180
F180
F300
F300
F600
FE30
FFF0
7FF0
3FF0
3800
3000
1000
ENDCHAR
STARTCHAR 023D
ENCODING 573
SWIDTH 480 0
DWIDTH 16 0
BBX 13 21 2 0
BITMAP
07C0
0780
0780
0780
0F80
0F00
0F00
0F00
7FF0
7FE0
7FE0
FFE0
1E00
3C00
3C00
3C00
3C00
7800
7FF8
7FF8
7FF0
ENDCHAR
STARTCHAR 023E
ENCODING 574
SWIDTH 480 0
DWIDTH 16 0
BBX 21 23 0 0
BITMAP
000018
0FFFF8
0FFFF0
0FFFF0
0FFFE0
007BC0
007B80
00FF00
00FE00
00FC00
00F800
01F000
01E000
01E000
03E000
07E000
0FC000
0FC000
1FC000
3BC000
778000
E78000
400000
ENDCHAR
STARTCHAR 023F
ENCODING 575
SWIDTH 480 0
DWIDTH 16 0
BBX 15 22 2 -6
BITMAP
03FC
0FFE
1FFC
1F1C
1E00
1E00
1F80
1FE0
0FF0
03F8
00F8
0078
60F8
FFF0
FFF0
FFC0
7800
3C00
1FE0
0FC0
07C0
0100
ENDCHAR
STARTCHAR 0240
ENCODING 576
SWIDTH 480 0
DWIDTH 16 0
BBX 16 22 2 -6
BITMAP
0FFF
1FFE
1FFE
1FFE
007C
00F8
01F0
03E0
0780
0F80
1F00
3E00
7C00
F800
FC00
FE00
1F00
0F80
07F8
03F0
01F0
0040
ENDCHAR
STARTCHAR 0241
ENCODING 577
SWIDTH 480 0
DWIDTH 16 0
BBX 14 21 4 0
BITMAP
0FE0
3FF8
3FF8
3FFC
007C
003C
007C
0078
01F8
03F0
0FC0
1F80
3E00
3C00
7C00
7800
7800
7800
7800
F000
F000
ENDCHAR
STARTCHAR 0242
ENCODING 578
SWIDTH 480 0
DWIDTH 16 0
BBX 12 16 5 0
BITMAP
1FC0
7FE0
7FE0
7BF0
00F0
00E0
01E0
03C0
0F80
3F00
3C00
7800
7800
F800
F000
F000
ENDCHAR
STARTCHAR 0243
ENCODING 579
SWIDTH 480 0
DWIDTH 16 0
BBX 17 21 1 0
BITMAP
01F800
07FE00
07FF00
07FF80
078780
078780
0F0780
0F0F00
0F3F00
0FFC00
1FFC00
1FFE00
1E1E00
7F8F00
7F0F00
FF0F00
3C1E00
3C7E00
7FFC00
7FF800
7FE000
ENDCHAR
STARTCHAR 0244
ENCODING 580
SWIDTH 480 0
DWIDTH 16 0
BBX 17 21 2 0
BITMAP
0F0780
0F0780
1F0F00
1E0F00
1E0F00
1E0F00
3E1E00
3C1E00
FFFF80
FFFF80
FFFF00
783C00
783C00
783C00
787C00
787800
F87800
78F800
7FF000
7FE000
3FC000
ENDCHAR
STARTCHAR 0245
ENCODING 581
SWIDTH 480 0
DWIDTH 16 0
BBX 16 21 0 0
BITMAP
003E
003E
007E
00FE
00FE
01EE
01EE
03CE
03CE
078F
078F
0F0F
0F0F
1E0F
1E0F
3C0F
3C0F
7C0F
780F
F80F
F00F
ENDCHAR
STARTCHAR 0246
ENCODING 582
SWIDTH 480 0
DWIDTH 16 0
BBX 20 26 1 -3
BITMAP
000040
000070
07FFE0
07FFC0
07FFC0
07FF80
0F0380
0F0700
0F0E00
0F0E00
1FFF00
1FFF00
1FFE00
1FFE00
3C7000
3CE000
3DC000
3DC000
7F8000
7B8000
7FFC00
7FFC00
FFFC00
1C0000
180000
380000
ENDCHAR
STARTCHAR 0247
ENCODING 583
SWIDTH 480 0
DWIDTH 16 0
BBX 14 21 3 -3
BITMAP
0030
0030
03F0
0FF8
1FFC
3EDC
79DC
F19C
F1BC
FFF8
FFF0
FF80
E600
EE00
FE20
FFF0
7FF0
3FE0
3800
3000
1000
ENDCHAR
STARTCHAR 0248
ENCODING 584
SWIDTH 480 0
DWIDTH 16 0
BBX 17 21 2 0
BITMAP
03FF00
03FF00
07FF00
07FE00
001E00
001E00
003E00
003C00
03FF80
07FF00
07FF00
07FF00
007800
007800
00F800
00F000
40F000
E3F000
FFE000
FFC000
7F8000
ENDCHAR
STARTCHAR 0249
ENCODING 585
SWIDTH 480 0
DWIDTH 16 0
BBX 16 29 0 -6
BITMAP
000E
001F
001F
001F
001E
0000
0000
07FF
07FF
07FE
07FE
001E
003E
003C
0FFF
1FFF
007C
0078
0078
0078
0078
00F0
00F0
00F0
61F0
7FE0
FFC0
FF80
0E00
ENDCHAR
STARTCHAR 024A
ENCODING 586
SWIDTH 480 0
DWIDTH 16 0
BBX 15 27 2 -6
BITMAP
01F8
07FC
0FFE
0FBE
1E1E
3E1E
3C1E
3C1E
781E
781E
781E
781E
783C
F03C
F03C
F07C
F878
79F8
7FF8
7FF8
3F78
0070
0070
007C
007C
007C
0008
ENDCHAR
STARTCHAR 024B
ENCODING 587
SWIDTH 480 0
DWIDTH 16 0
BBX 15 22 2 -6
BITMAP
01FC
07FE
0FFE
1FBE
3E3E
7C3C
783C
783C
F07C
F078
F078
F878
78F8
7FF0
7FF0
3FF0
00F0
01F0
01FC
00FC
00FC
0018
ENDCHAR
STARTCHAR 024C
ENCODING 588
SWIDTH 480 0
DWIDTH 16 0
BBX 16 21 2 0
BITMAP
03F0
07FC
07FE
0FFE
0F1F
0F0F
0F0F
1E0F
1E1E
1E3E
FFFC
FFF8
FFE0
3DE0
3CF0
38F0
7878
7878
7878
7038
F03C
ENDCHAR
STARTCHAR 024D
ENCODING 589
SWIDTH 480 0
DWIDTH 16 0
BBX 15 16 2 0
BITMAP
01FE
0FFE
0FFE
0FFE
1E00
1E00
1E00
7FF0
FFF0
FFE0
3C00
3C00
7C00
7800
7800
7800
ENDCHAR
STARTCHAR 024E
ENCODING 590
SWIDTH 480 0
DWIDTH 16 0
BBX 17 21 3 0
BITMAP
3C0780
3C0780
3C0F00
3C1F00
7FFF80
FFFF00
FFFF00
1E7800
1EF000
1EF000
0FE000
0FC000
0F8000
0F8000
0F0000
0F0000
0F0000
0F0000
1E0000
1E0000
1E0000
ENDCHAR
STARTCHAR 024F
ENCODING 591
SWIDTH 480 0
DWIDTH 16 0
BBX 19 22 -1 -6
BITMAP
0781E0
0783E0
0783C0
0783C0
078780
0FFFE0
1FFFE0
1FFFE0
03CF00
03DE00
03DE00
03FC00
03FC00
01F800
01F000
01F000
03E000
07C000
FF8000
FF0000
FE0000
300000
ENDCHAR
STARTCHAR 0292
ENCODING 658
SWIDTH 480 0
DWIDTH 16 0
BBX 17 22 0 -6
BITMAP
07FF80
07FF80
0FFF80
0FFF00
001E00
003C00
007800
00F000
01E000
03F000
03F800
01FC00
003C00
003C00
003C00
003C00
003C00
60FC00
7FF800
FFF000
FFC000
040000
ENDCHAR
STARTCHAR 02BC
ENCODING 700
SWIDTH 480 0
DWIDTH 16 0
BBX 5 6 9 16
BITMAP
38
78
78
70
F0
E0
ENDCHAR
STARTCHAR 02C6
ENCODING 710
SWIDTH 480 0
DWIDTH 16 0
BBX 9 6 8 17
BITMAP
0800
1C00
3E00
7F00
E780
4300
ENDCHAR
STARTCHAR 02C7
ENCODING 711
SWIDTH 480 0
DWIDTH 16 0
BBX 9 6 8 17
BITMAP
6100
F380
7F00
3E00
1C00
1800
ENDCHAR
STARTCHAR 02C9
ENCODING 713
SWIDTH 480 0
DWIDTH 16 0
BBX 10 3 7 19
BITMAP
7FC0
7FC0
FFC0
ENDCHAR
STARTCHAR 02D8
ENCODING 728
SWIDTH 480 0
DWIDTH 16 0
BBX 10 5 8 18
BITMAP
E3C0
E380
FF80
7F00
3E00
ENDCHAR
STARTCHAR 02D9
ENCODING 729
SWIDTH 480 0
DWIDTH 16 0
BBX 5 5 10 18
BITMAP
20
F0
F8
F0
F0
ENDCHAR
STARTCHAR 02DA
ENCODING 730
SWIDTH 480 0
DWIDTH 16 0
BBX 7 7 9 17
BITMAP
7C
FE
C6
C6
EE
7C
18
ENDCHAR
STARTCHAR 02DB
ENCODING 731
SWIDTH 480 0
DWIDTH 16 0
BBX 7 6 3 -6
BITMAP
1E
78
70
FE
FC
38
ENDCHAR
STARTCHAR 02DC
ENCODING 732
SWIDTH 480 0
DWIDTH 16 0
BBX 10 4 7 18
BITMAP
7CC0
FFC0
FFC0
4700
ENDCHAR
STARTCHAR 02DD
ENCODING 733
SWIDTH 480 0
DWIDTH 16 0
BBX 13 6 6 17
BITMAP
0830
1C70
3CF8
F9F0
F1C0
4080
ENDCHAR
STARTCHAR 0311
ENCODING 785
SWIDTH 480 0
DWIDTH 16 0
BBX 10 5 7 18
BITMAP
0400
3F00
7F80
7380
E3C0
ENDCHAR
STARTCHAR 0384
ENCODING 900
SWIDTH 480 0
DWIDTH 16 0
BBX 6 7 9 17
BITMAP
08
1C
3C
78
70
F0
20
ENDCHAR
STARTCHAR 0385
ENCODING 901
SWIDTH 480 0
DWIDTH 16 0
BBX 14 7 5 17
BITMAP
0080
01C0
73FC
FBBC
F73C
7638
0200
ENDCHAR
STARTCHAR 0386
ENCODING 902
SWIDTH 480 0
DWIDTH 16 0
BBX 16 22 0 0
BITMAP
0400
07BE
0F3E
0F7E
1E7E
1CFE
1DEE
01EE
03CE
03CE
078F
078F
0F0F
0F0F
1FFF
1FFF
3FFF
3C0F
780F
780F
F80F
F00F
ENDCHAR
STARTCHAR 0388
ENCODING 904
SWIDTH 480 0
DWIDTH 16 0
BBX 19 22 0 0
BITMAP
200000
79FFE0
7BFFE0
F3FFC0
E3FFC0
E3C000
C7C000
078000
078000
07FF00
07FF00
0FFE00
0FFE00
0F0000
0F0000
1E0000
1E0000
1E0000
1E0000
3FFE00
3FFE00
3FFE00
ENDCHAR
STARTCHAR 0389
ENCODING 905
SWIDTH 480 0
DWIDTH 16 0
BBX 21 22 -1 0
BITMAP
200000
79E0F8
79E0F0
F3C0F0
F3C0F0
E3C1F0
C3C1E0
0781E0
0781E0
07FFE0
07FFC0
0FFFC0
0FFFC0
0F03C0
0F0780
1F0780
1E0780
1E0780
1E0F00
3E0F00
3C0F00
3C0F00
ENDCHAR
STARTCHAR 038A
ENCODING 906
SWIDTH 480 0
DWIDTH 16 0
BBX 20 22 -1 0
BITMAP
200000
3DFFF0
79FFF0
79FFF0
F3FFE0
E01E00
E03E00
003C00
003C00
003C00
007C00
007800
007800
007800
00F800
00F000
00F000
00F000
00F000
1FFF00
3FFF00
3FFE00
ENDCHAR
STARTCHAR 038C
ENCODING 908
SWIDTH 480 0
DWIDTH 16 0
BBX 18 22 0 0
BITMAP
300000
3C7E00
79FF00
7BFF80
73FFC0
F7C7C0
EF83C0
0F03C0
0F03C0
1E03C0
1E03C0
1E07C0
1E0780
3C0780
3C0780
3C0F00
3C0F00
3E1F00
1E3E00
1FFC00
0FF800
07F000
ENDCHAR
STARTCHAR 038E
ENCODING 910
SWIDTH 480 0
DWIDTH 16 0
BBX 23 22 -2 0
BITMAP
200000
3DE03E
79E03C
71E078
F1E0F8
E1E0F0
E0E1E0
00F3E0
00F3C0
00F780
00FF80
007F00
007E00
007C00
007C00
007800
007800
007800
007800
00F000
00F000
00F000
ENDCHAR
STARTCHAR 038F
ENCODING 911
SWIDTH 480 0
DWIDTH 16 0
BBX 18 22 0 0
BITMAP
200000
787E00
79FF80
73FF80
F7FFC0
EF83C0
CF03C0
0F03C0
1E03C0
1E03C0
1E03C0
1E03C0
1C0780
1C0780
1C0780
1E0F00
1E0E00
1E1E00
0E3C00
FF7F00
FE7F00
FE7F00
ENDCHAR
STARTCHAR 0390
ENCODING 912
SWIDTH 480 0
DWIDTH 16 0
BBX 15 24 4 0
BITMAP
0040
00E0
39FE
7DDE
7B9E
3B1C
0100
0000
FF80
FF80
FF00
FF00
0F00
0F00
1F00
1E00
1E00
1E00
3E00
3E00
3E20
1FE0
1FE0
0FE0
ENDCHAR
STARTCHAR 0391
ENCODING 913
SWIDTH 480 0
DWIDTH 16 0
BBX 16 21 0 0
BITMAP
003E
003E
007E
007E
00FE
01EE
01EE
03CE
03CE
078F
078F
0F0F
0F0F
1FFF
1FFF
3FFF
3C0F
780F
780F
F80F
F00F
ENDCHAR
STARTCHAR 0392
ENCODING 914
SWIDTH 480 0
DWIDTH 16 0
BBX 17 21 1 0
BITMAP
03F800
07FE00
07FF00
0FFF80
0F0780
0F0780
0F0780
1E0F00
1E3F00
1FFC00
1FFC00
3FFE00
3C1E00
3C0F00
3C0F00
3C0F00
781E00
787E00
7FFC00
7FF800
FFE000
ENDCHAR
STARTCHAR 0393
ENCODING 915
SWIDTH 480 0
DWIDTH 16 0
BBX 19 21 1 0
BITMAP
01FFE0
01FFE0
01FFE0
01FFC0
03E000
03C000
03C000
03C000
07C000
078000
078000
078000
0F8000
0F0000
0F0000
0F0000
0F0000
1E0000
FFF000
FFE000
FFE000
ENDCHAR
STARTCHAR 0394
ENCODING 916
SWIDTH 480 0
DWIDTH 16 0
BBX 16 21 0 0
BITMAP
003E
003E
007E
00FE
00FE
01EE
01EE
03CE
03CE
078F
078F
0F0F
0F0F
1E0F
1E0F
3C0F
3C0F
780F
7FFF
FFFF
FFFF
ENDCHAR
STARTCHAR 0395
ENCODING 917
SWIDTH 480 0
DWIDTH 16 0
BBX 17 21 2 0
BITMAP
07FF80
0FFF80
0FFF00
0FFF00
0F0000
1F0000
1E0000
1E0000
1FFC00
1FFC00
3FF800
3FF800
3C0000
3C0000
780000
780000
780000
780000
FFF800
FFF800
FFF800
ENDCHAR
STARTCHAR 0396
ENCODING 918
SWIDTH 480 0
DWIDTH 16 0
BBX 18 21 1 0
BITMAP
07FFC0
07FFC0
07FFC0
0FFF80
000F80
001F00
003E00
007C00
00F800
00F000
01E000
03C000
07C000
0F8000
1F0000
1E0000
3C0000
780000
7FFC00
FFFC00
FFFC00
ENDCHAR
STARTCHAR 0397
ENCODING 919
SWIDTH 480 0
DWIDTH 16 0
BBX 19 21 1 0
BITMAP
0783E0
0783C0
0F03C0
0F03C0
0F07C0
0F0780
1E0780
1E0780
1FFF80
1FFF00
3FFF00
3FFF00
3C0F00
3C1E00
7C1E00
781E00
781E00
783C00
F83C00
F03C00
F03C00
ENDCHAR
STARTCHAR 0398
ENCODING 920
SWIDTH 480 0
DWIDTH 16 0
BBX 16 21 2 0
BITMAP
01F8
07FC
0FFE
0FFF
1E0F
3E0F
3C0F
380F
780F
7BEF
7BEF
73CE
F01E
F01E
F01C
F03C
F07C
78F8
7FF0
3FE0
1FC0
ENDCHAR
STARTCHAR 0399
ENCODING 921
SWIDTH 480 0
DWIDTH 16 0
BBX 18 21 1 0
BITMAP
07FFC0
07FFC0
07FFC0
0FFF80
007800
00F800
00F000
00F000
00F000
01F000
01E000
01E000
01E000
03E000
03C000
03C000
03C000
03C000
7FFC00
FFFC00
FFF800
ENDCHAR
STARTCHAR 039A
ENCODING 922
SWIDTH 480 0
DWIDTH 16 0
BBX 19 21 1 0
BITMAP
0783E0
0783C0
0F8780
0F0F80
0F1F00
0F3E00
1F7C00
1E7800
1FF000
1FE000
1FC000
3FE000
3DF000
3CF000
3CF800
787800
787C00
783C00
783C00
F83E00
F01E00
ENDCHAR
STARTCHAR 039B
ENCODING 923
SWIDTH 480 0
DWIDTH 16 0
BBX 16 21 0 0
BITMAP
003E
003E
007E
00FE
00FE
01EE
01EE
03CE
03CE
078F
078F
0F0F
0F0F
1E0F
1E0F
3C0F
3C0F
7C0F
780F
F80F
F00F
ENDCHAR
STARTCHAR 039C
ENCODING 924
SWIDTH 480 0
DWIDTH 16 0
BBX 19 21 0 0
BITMAP
03C1E0
03C1E0
07C3E0
07C3E0
07C7E0
07C6C0
0ECFC0
0ECDC0
0EDDC0
1EDBC0
1CFBC0
1CF380
1CF380
3CE780
380780
380780
780700
780F00
780F00
700F00
F00E00
ENDCHAR
STARTCHAR 039D
ENCODING 925
SWIDTH 480 0
DWIDTH 16 0
BBX 18 21 1 0
BITMAP
0701C0
0781C0
0F83C0
0F83C0
0FC3C0
0FC380
1FC780
1FC780
1CE780
1CE700
3CEF00
3CEF00
3C6F00
387E00
787E00
787E00
787E00
703C00
F03C00
F03C00
F03C00
ENDCHAR
STARTCHAR 039E
ENCODING 926
SWIDTH 480 0
DWIDTH 16 0
BBX 19 21 1 0
BITMAP
07FFE0
0FFFC0
0FFFC0
0FFFC0
000000
000000
000000
000000
0FFF00
0FFE00
1FFE00
1FFE00
000000
000000
000000
000000
000000
000000
FFFC00
FFFC00
FFFC00
ENDCHAR
STARTCHAR 039F
ENCODING 927
SWIDTH 480 0
DWIDTH 16 0
BBX 16 21 2 0
BITMAP
01F8
07FC
0FFE
0FFF
1F1F
3E0F
3C0F
3C0F
780F
780F
781F
781E
F01E
F01E
F03C
F03C
F87C
78F8
7FF0
3FE0
1FC0
ENDCHAR
STARTCHAR 03A0
ENCODING 928
SWIDTH 480 0
DWIDTH 16 0
BBX 18 21 1 0
BITMAP
07FFC0
07FFC0
0FFFC0
0FFFC0
0F07C0
0F0780
1E0780
1E0780
1E0F80
1E0F00
3E0F00
3C0F00
3C1F00
3C1E00
7C1E00
781E00
781E00
783C00
F83C00
F03C00
F03C00
ENDCHAR
STARTCHAR 03A1
ENCODING 929
SWIDTH 480 0
DWIDTH 16 0
BBX 17 21 1 0
BITMAP
03F800
07FF00
07FF80
0FFF80
0F0780
0F0780
0F0780
0F0780
1E0780
1E0F80
1FFF00
1FFE00
3FFC00
3FE000
3C0000
3C0000
780000
780000
780000
780000
F00000
ENDCHAR
STARTCHAR 03A3
ENCODING 931
SWIDTH 480 0
DWIDTH 16 0
BBX 19 21 1 0
BITMAP
07FFE0
07FFE0
0FFFC0
07FFC0
078000
03C000
03C000
01E000
01F000
00F000
007800
00F000
03E000
07C000
0F8000
1F0000
3E0000
7C0000
FFFE00
FFFC00
FFFC00
ENDCHAR
STARTCHAR 03A4
ENCODING 932
SWIDTH 480 0
DWIDTH 16 0
BBX 16 21 4 0
BITMAP
7FFF
7FFF
7FFF
FFFE
03C0
0780
0780
0780
0780
0F00
0F00
0F00
0F00
1F00
1E00
1E00
1E00
3E00
3C00
3C00
3C00
ENDCHAR
STARTCHAR 03A5
ENCODING 933
SWIDTH 480 0
DWIDTH 16 0
BBX 16 21 5 0
BITMAP
F01F
F01E
F03C
F07C
F078
70F0
79F0
79E0
7BC0
7FC0
3F80
3F00
3E00
3E00
3C00
3C00
3C00
3C00
7800
7800
7800
ENDCHAR
STARTCHAR 03A6
ENCODING 934
SWIDTH 480 0
DWIDTH 16 0
BBX 16 22 2 0
BITMAP
0070
0070
01F8
07FE
0FFE
1EEF
3CE7
39E7
79E7
71C7
71C7
F1CF
F3CF
F38E
F39E
73BC
7FFC
7FF8
3FE0
0F80
0F00
0E00
ENDCHAR
STARTCHAR 03A7
ENCODING 935
SWIDTH 480 0
DWIDTH 16 0
BBX 20 21 0 0
BITMAP
0780F0
07C1F0
03C1E0
03C3C0
01E780
01EF80
01EF00
00FE00
00FC00
007800
00F800
01F800
01FC00
03FC00
07BC00
0F9E00
1F1E00
1E1E00
3E1E00
7C0F00
F80F00
ENDCHAR
STARTCHAR 03A8
ENCODING 936
SWIDTH 480 0
DWIDTH 16 0
BBX 17 21 3 0
BITMAP
380380
380780
380780
780700
780700
71CF00
73CF00
F3CE00
F38E00
E39E00
E39E00
E79C00
F73C00
FFF800
7FF000
3FE000
0E0000
0E0000
0E0000
1E0000
1C0000
ENDCHAR
STARTCHAR 03A9
ENCODING 937
SWIDTH 480 0
DWIDTH 16 0
BBX 18 21 0 0
BITMAP
007E00
01FF80
03FF80
07FFC0
0F83C0
0F03C0
0F03C0
1E03C0
1E03C0
1E03C0
1E03C0
1C0780
1C0780
1C0780
1E0F00
1E0E00
1E1E00
0E3C00
FF7F00
FE7F00
FE7F00
ENDCHAR
STARTCHAR 03AA
ENCODING 938
SWIDTH 480 0
DWIDTH 16 0
BBX 18 27 1 0
BITMAP
00E380
01E3C0
01E7C0
01E380
000000
000000
07FFC0
07FFC0
07FFC0
0FFF80
007800
00F800
00F000
00F000
00F000
01F000
01E000
01E000
01E000
03E000
03C000
03C000
03C000
03C000
7FFC00
FFFC00
FFF800
ENDCHAR
STARTCHAR 03AB
ENCODING 939
SWIDTH 480 0
DWIDTH 16 0
BBX 16 27 5 0
BITMAP
0E38
1E3C
1E7C
1E38
0000
0000
F01F
F01E
F03C
F07C
F078
70F0
79F0
79E0
7BC0
7FC0
3F80
3F00
3E00
3E00
3C00
3C00
3C00
3C00
7800
7800
7800
ENDCHAR
STARTCHAR 03AC
ENCODING 940
SWIDTH 480 0
DWIDTH 16 0
BBX 15 24 2 0
BITMAP
0004
000E
001E
003C
0078
0070
0020
0000
01F8
07FE
1FFE
3FBE
3C3E
7C3C
783C
F83C
F03C
F078
F078
F078
F8F8
7FFC
7FFC
3FB8
ENDCHAR
STARTCHAR 03AD
ENCODING 941
SWIDTH 480 0
DWIDTH 16 0
BBX 15 24 2 0
BITMAP
0004
000E
001E
003C
0078
0070
0020
0000
03FC
0FFE
1FFE
3F0C
3C00
3C00
1F00
0FE0
3FE0
7FE0
7800
F800
F808
7FF8
7FF8
3FF8
ENDCHAR
STARTCHAR 03AE
ENCODING 942
SWIDTH 480 0
DWIDTH 16 0
BBX 15 30 2 -6
BITMAP
0004
000E
001E
003C
0078
0070
0020
0000
07F0
1FFC
1FFC
3FFC
3C3E
3C3E
3C3C
7C3C
783C
783C
7878
7878
F078
F078
F0F0
F0F0
00F0
00F0
01F0
01E0
01E0
01E0
ENDCHAR
STARTCHAR 03AF
ENCODING 943
SWIDTH 480 0
DWIDTH 16 0
BBX 12 24 4 0
BITMAP
0060
0070
00F0
01E0
03C0
0380
0100
0000
FF80
FF80
FF00
FF00
0F00
0F00
1F00
1E00
1E00
1E00
3E00
3E00
3E20
1FE0
1FE0
0FE0
ENDCHAR
STARTCHAR 03B0
ENCODING 944
SWIDTH 480 0
DWIDTH 16 0
BBX 16 24 3 0
BITMAP
0020
0070
1CFF
3EEF
3DCF
1D8E
0080
0000
3C1E
3C3C
7C3C
783C
783C
787C
7878
F078
F078
F0F8
F0F0
F0F0
F1F0
FFE0
FFC0
7F80
ENDCHAR
STARTCHAR 03B1
ENCODING 945
SWIDTH 480 0
DWIDTH 16 0
BBX 15 16 2 0
BITMAP
01F8
07FE
1FFE
3FBE
3C3E
7C3C
783C
F83C
F03C
F078
F078
F078
F8F8
7FFC
7FFC
3FB8
ENDCHAR
STARTCHAR 03B2
ENCODING 946
SWIDTH 480 0
DWIDTH 16 0
BBX 18 29 0 -6
BITMAP
003E00
00FF80
01FF80
03F7C0
03C3C0
0783C0
078380
078780
0F8F00
0F3E00
0F3C00
0F7E00
1F7F00
1E0F00
1E0F80
1E0780
1E0F80
3C0F00
3C1F00
3E3F00
3FFE00
7FFC00
7FF000
780000
780000
F00000
F00000
F00000
F00000
ENDCHAR
STARTCHAR 03B3
ENCODING 947
SWIDTH 480 0
DWIDTH 16 0
BBX 14 22 4 -6
BITMAP
F03C
F03C
F07C
F078
F078
F0F8
F8F0
79F0
79E0
7BE0
7FC0
7F80
7F00
7E00
7E00
7C00
7800
7800
7800
F000
F000
F000
ENDCHAR
STARTCHAR 03B4
ENCODING 948
SWIDTH 480 0
DWIDTH 16 0
BBX 16 23 2 0
BITMAP
00FE
03FF
07FF
07C6
0780
0780
07C0
03E0
03F0
0FF8
1FF8
3E7C
7C3C
783C
783E
F03E
F03C
F03C
F87C
7CF8
7FF8
3FF0
1FC0
ENDCHAR
STARTCHAR 03B5
ENCODING 949
SWIDTH 480 0
DWIDTH 16 0
BBX 15 16 2 0
BITMAP
03FC
0FFE
1FFE
3F0C
3C00
3C00
1F00
0FE0
3FE0
7FE0
7800
F800
F808
7FF8
7FF8
3FF8
ENDCHAR
STARTCHAR 03B6
ENCODING 950
SWIDTH 480 0
DWIDTH 16 0
BBX 16 29 3 -6
BITMAP
0FFF
0FFF
0FFF
0FFF
003C
00F8
01F0
03E0
07C0
0F80
1F00
3E00
3C00
7C00
7800
F800
F800
F800
FC00
7F00
7FC0
3FF0
07F0
00F8
00F8
00F0
01F0
01E0
0040
ENDCHAR
STARTCHAR 03B7
ENCODING 951
SWIDTH 480 0
DWIDTH 16 0
BBX 15 22 2 -6
BITMAP
07F0
1FFC
1FFC
3FFC
3C3E
3C3E
3C3C
7C3C
783C
783C
7878
7878
F078
F078
F0F0
F0F0
00F0
00F0
01F0
01E0
01E0
01E0
ENDCHAR
STARTCHAR 03B8
ENCODING 952
SWIDTH 480 0
DWIDTH 16 0
BBX 15 23 3 0
BITMAP
01F0
07FC
0FFC
1F7E
1E1E
3C1E
3C1E
781E
781E
F01E
FFFE
FFFE
FFFE
F03C
E03C
E03C
E078
F078
F0F0
F1F0
FFE0
7FC0
3F80
ENDCHAR
STARTCHAR 03B9
ENCODING 953
SWIDTH 480 0
DWIDTH 16 0
BBX 11 16 4 0
BITMAP
FF80
FF80
FF00
FF00
0F00
0F00
1F00
1E00
1E00
1E00
3E00
3E00
3E20
1FE0
1FE0
0FE0
ENDCHAR
STARTCHAR 03BA
ENCODING 954
SWIDTH 480 0
DWIDTH 16 0
BBX 17 16 2 0
BITMAP
0F0F80
1E1F00
1E3E00
1E7C00
1EF800
3DF000
3FE000
3FC000
3FC000
7BE000
79E000
78F000
78F000
F8F800
F07800
F07C00
ENDCHAR
STARTCHAR 03BB
ENCODING 955
SWIDTH 480 0
DWIDTH 16 0
BBX 14 23 1 0
BITMAP
07C0
07E0
07F0
01F0
00F0
00F0
0078
0078
00F8
01F8
03F8
03F8
07BC
0FBC
0F3C
1E3C
1E3C
3C3C
3C3C
783C
783C
F03C
F03C
ENDCHAR
STARTCHAR 03BC
ENCODING 956
SWIDTH 480 0
DWIDTH 16 0
BBX 18 22 0 -6
BITMAP
0787C0
078780
078780
0F0780
0F0F80
0F0F00
0F0F00
1E0F00
1E0F00
1E1E00
1E1E00
3E1E00
3E3E00
3FFF00
3FFF00
7FEE00
780000
780000
780000
F80000
F00000
F00000
ENDCHAR
STARTCHAR 03BD
ENCODING 957
SWIDTH 480 0
DWIDTH 16 0
BBX 14 16 4 0
BITMAP
F03C
F03C
F07C
F078
F0F8
F0F0
F1F0
F1E0
F3E0
F3C0
7F80
7F80
7F00
7E00
7E00
3C00
ENDCHAR
STARTCHAR 03BE
ENCODING 958
SWIDTH 480 0
DWIDTH 16 0
BBX 16 28 3 -6
BITMAP
00FF
03FF
07FF
0FC6
0F00
0F00
0F00
0F00
0F80
07F8
03F8
1FF8
3FF8
7C00
F800
F000
F000
F000
F800
FC00
7FC0
3FE0
0FF0
01F0
00F0
00F0
01E0
01C0
ENDCHAR
STARTCHAR 03BF
ENCODING 959
SWIDTH 480 0
DWIDTH 16 0
BBX 15 16 2 0
BITMAP
03F0
0FF8
1FFC
3F7E
3C3E
781E
781E
781E
F03E
F03C
F03C
F87C
F8F8
7FF0
7FE0
3FC0
ENDCHAR
STARTCHAR 03C0
ENCODING 960
SWIDTH 480 0
DWIDTH 16 0
BBX 16 16 2 0
BITMAP
1FFF
1FFE
1FFE
3FFE
3C1E
3C3E
3C3C
3C3C
783C
787C
7878
7878
F078
F0F8
F0F0
F0F0
ENDCHAR
STARTCHAR 03C1
ENCODING 961
SWIDTH 480 0
DWIDTH 16 0
BBX 17 22 0 -6
BITMAP
00FC00
03FE00
07FF00
07FF00
0F8F80
0F0780
1F0780
1E0780
1E0F00
1E0F00
3E0F00
3C1E00
3C7E00
3FFC00
7FF800
7FF000
780000
780000
780000
F00000
F00000
F00000
ENDCHAR
STARTCHAR 03C2
ENCODING 962
SWIDTH 480 0
DWIDTH 16 0
BBX 15 22 3 -6
BITMAP
01FC
0FFE
1FFC
3FFC
7E00
7800
F800
F000
F000
F000
F000
F800
FC00
7FC0
3FE0
0FF0
01F0
00F0
01E0
03E0
01C0
0080
ENDCHAR
STARTCHAR 03C3
ENCODING 963
SWIDTH 480 0
DWIDTH 16 0
BBX 17 16 2 0
BITMAP
00FF80
07FF80
1FFF80
3FFF80
3E3C00
7C3C00
783C00
F83C00
F03C00
F03C00
F07C00
F07800
F9F800
7FF000
7FE000
1FC000
ENDCHAR
STARTCHAR 03C4
ENCODING 964
SWIDTH 480 0
DWIDTH 16 0
BBX 15 16 3 0
BITMAP
7FFE
7FFE
FFFC
FFFC
0F00
1F00
1E00
1E00
1E00
1E00
3C00
3C00
3E10
3FF0
1FF0
0FF0
ENDCHAR
STARTCHAR 03C5
ENCODING 965
SWIDTH 480 0
DWIDTH 16 0
BBX 15 16 3 0
BITMAP
3C1E
3C3C
7C3C
783C
783C
787C
7878
F078
F078
F0F8
F0F0
F0F0
F1F0
FFE0
FFC0
7F80
ENDCHAR
STARTCHAR 03C6
ENCODING 966
SWIDTH 480 0
DWIDTH 16 0
BBX 16 22 2 -6
BITMAP
03F0
0FFC
1FFC
3DDE
79CE
F1CE
F3CF
E38F
E38E
E38E
E79E
E71C
F73C
7FF8
7FF0
1FC0
0E00
0E00
0E00
1E00
1C00
1C00
ENDCHAR
STARTCHAR 03C7
ENCODING 967
SWIDTH 480 0
DWIDTH 16 0
BBX 17 16 1 0
BITMAP
1E0780
1E0F00
0F1F00
0F1E00
07BC00
07F800
03F800
03F000
03E000
07F000
0FF000
1FF800
3E7800
3C7C00
783C00
F03C00
ENDCHAR
STARTCHAR 03C8
ENCODING 968
SWIDTH 480 0
DWIDTH 16 0
BBX 17 22 2 -6
BITMAP
380780
380700
380700
780700
71CF00
71CE00
73CE00
F38E00
E39E00
E39C00
E79C00
E73C00
E73800
FFF800
7FF000
3FE000
0E0000
0E0000
1E0000
1C0000
1C0000
1C0000
ENDCHAR
STARTCHAR 03C9
ENCODING 969
SWIDTH 480 0
DWIDTH 16 0
BBX 16 16 1 0
BITMAP
0602
0F0F
1E0F
1C07
3C07
3807
7807
71C7
71C7
F1C7
F3CF
F3CF
F3DF
FFFE
7EFE
7CFC
ENDCHAR
STARTCHAR 03CA
ENCODING 970
SWIDTH 480 0
DWIDTH 16 0
BBX 14 22 4 0
BITMAP
1E3C
1E3C
1E3C
1C38
0000
0000
FF80
FF80
FF00
FF00
0F00
0F00
1F00
1E00
1E00
1E00
3E00
3E00
3E20
1FE0
1FE0
0FE0
ENDCHAR
STARTCHAR 03CB
ENCODING 971
SWIDTH 480 0
DWIDTH 16 0
BBX 15 22 3 0
BITMAP
0F1C
1F3C
1F3C
0E38
0000
0000
3C1E
3C3C
7C3C
783C
783C
787C
7878
F078
F078
F0F8
F0F0
F0F0
F1F0
FFE0
FFC0
7F80
ENDCHAR
STARTCHAR 03CC
ENCODING 972
SWIDTH 480 0
DWIDTH 16 0
BBX 15 24 2 0
BITMAP
0004
000E
001E
003C
0078
0070
0020
0000
03F0
0FF8
1FFC
3F7E
3C3E
781E
781E
781E
F03E
F03C
F03C
F87C
F8F8
7FF0
7FE0
3FC0
ENDCHAR
STARTCHAR 03CD
ENCODING 973
SWIDTH 480 0
DWIDTH 16 0
BBX 15 24 3 0
BITMAP
0030
0038
0078
00F0
01E0
01C0
0080
0000
3C1E
3C3C
7C3C
783C
783C
787C
7878
F078
F078
F0F8
F0F0
F0F0
F1F0
FFE0
FFC0
7F80
ENDCHAR
STARTCHAR 03CE
ENCODING 974
SWIDTH 480 0
DWIDTH 16 0
BBX 16 24 1 0
BITMAP
000C
001E
001E
003C
0078
00F0
0020
0000
0602
0F0F
1E0F
1C07
3C07
3807
7807
71C7
71C7
F1C7
F3CF
F3CF
F3DF
FFFE
7EFE
7CFC
ENDCHAR
STARTCHAR 0400
ENCODING 1024
SWIDTH 480 0
DWIDTH 16 0
BBX 17 27 2 1
BITMAP
00E000
00F000
01F800
007C00
001C00
000000
07FF80
0FFF80
0FFF00
0FFF00
0F0000
1F0000
1E0000
1E0000
1FFC00
1FFC00
3FF800
3FF800
3C0000
3C0000
780000
780000
780000
780000
FFF800
FFF800
FFF800
ENDCHAR
STARTCHAR 0401
ENCODING 1025
SWIDTH 480 0
DWIDTH 16 0
BBX 17 27 2 0
BITMAP
01C380
03C780
03C780
03C780
000000
000000
07FF80
0FFF80
0FFF00
0FFF00
0F0000
1F0000
1E0000
1E0000
1FFC00
1FFC00
3FF800
3FF800
3C0000
3C0000
780000
780000
780000
780000
FFF800
FFF800
FFF800
ENDCHAR
STARTCHAR 0402
ENCODING 1026
SWIDTH 480 0
DWIDTH 16 0
BBX 15 21 2 0
BITMAP
1FFE
3FFE
3FFE
3FFC
0F00
0F00
0F00
0F00
1FF0
1FFC
1FFC
1F7E
3C1E
3C1E
3C1E
3C1E
783E
787C
79FC
79F8
FBE0
ENDCHAR
STARTCHAR 0403
ENCODING 1027
SWIDTH 480 0
DWIDTH 16 0
BBX 19 27 1 1
BITMAP
000180
0007C0
000FC0
001F00
000C00
000000
01FFE0
01FFE0
01FFE0
01FFC0
03E000
03C000
03C000
03C000
07C000
078000
078000
078000
0F8000
0F0000
0F0000
0F0000
0F0000
1E0000
FFF000
FFE000
FFE000
ENDCHAR
STARTCHAR 0404
ENCODING 1028
SWIDTH 480 0
DWIDTH 16 0
BBX 16 21 3 0
BITMAP
00FC
03FF
0FFF
1FDE
1F02
3E00
3C00
7800
7800
FFF0
FFE0
FFE0
F000
F000
F000
F000
F800
FC30
7FF0
3FF0
1FE0
ENDCHAR
STARTCHAR 0405
ENCODING 1029
SWIDTH 480 0
DWIDTH 16 0
BBX 17 21 1 0
BITMAP
00FE00
03FF80
07FF80
0FCF00
0F0100
0F0000
0F0000
0F0000
0FC000
0FF000
07F800
01FC00
007C00
003E00
001E00
001E00
003E00
707C00
7FFC00
FFF800
7FE000
ENDCHAR
STARTCHAR 0406
ENCODING 1030
SWIDTH 480 0
DWIDTH 16 0
BBX 18 21 1 0
BITMAP
07FFC0
07FFC0
07FFC0
0FFF80
007800
00F800
00F000
00F000
00F000
01F000
01E000
01E000
01E000
03E000
03C000
03C000
03C000
03C000
7FFC00
FFFC00
FFF800
ENDCHAR
STARTCHAR 0407
ENCODING 1031
SWIDTH 480 0
DWIDTH 16 0
BBX 18 27 1 0
BITMAP
00E1C0
01F3C0
01F3C0
01E3C0
000000
000000
07FFC0
07FFC0
07FFC0
0FFF80
007800
00F800
00F000
00F000
00F000
01F000
01E000
01E000
01E000
03E000
03C000
03C000
03C000
03C000
7FFC00
FFFC00
FFF800
ENDCHAR
STARTCHAR 0408
ENCODING 1032
SWIDTH 480 0
DWIDTH 16 0
BBX 17 21 2 0
BITMAP
03FF80
03FF00
07FF00
07FF00
001F00
001E00
001E00
001E00
001E00
003C00
003C00
003C00
003C00
007800
007800
007800
40F800
E1F000
FFF000
FFE000
7F8000
ENDCHAR
STARTCHAR 0409
ENCODING 1033
SWIDTH 480 0
DWIDTH 16 0
BBX 18 21 0 0
BITMAP
01FE00
03FC00
03FC00
039C00
039C00
073800
073800
073800
073F00
0E7F80
0E7780
0E7380
0E73C0
1CF380
1CE380
3CE380
38E380
79E700
F1FF00
E1FE00
C1F800
ENDCHAR
STARTCHAR 040A
ENCODING 1034
SWIDTH 480 0
DWIDTH 16 0
BBX 16 21 1 0
BITMAP
0E38
0E38
0E38
0E38
1E78
1C70
1C70
1C70
3FFC
3FFE
3FFF
38E7
79E7
71C7
71C7
71C7
73CF
E38E
E3BE
E3FC
E3F0
ENDCHAR
STARTCHAR 040B
ENCODING 1035
SWIDTH 480 0
DWIDTH 16 0
BBX 14 21 3 0
BITMAP
3FFC
3FFC
7FFC
7FFC
0F00
1E00
1E00
1E00
1FE0
3FF8
3FF8
3EF8
3C7C
787C
7878
7878
7878
F878
F0F8
F0F0
F0F0
ENDCHAR
STARTCHAR 040C
ENCODING 1036
SWIDTH 480 0
DWIDTH 16 0
BBX 19 27 1 1
BITMAP
000600
001F00
003F00
007C00
003000
000000
0783E0
0783C0
0F8780
0F0F80
0F1F00
0F3E00
1F7C00
1E7800
1FF000
1FE000
1FC000
3FE000
3DF000
3CF000
3CF800
787800
787C00
783C00
783C00
F83E00
F01E00
ENDCHAR
STARTCHAR 040D
ENCODING 1037
SWIDTH 480 0
DWIDTH 16 0
BBX 18 27 1 1
BITMAP
006000
00F800
00FC00
003E00
001C00
000400
0701C0
0703C0
0F07C0
0F0FC0
0E0FC0
0E1F80
1E3F80
1E3F80
1E7780
1CE700
3DEF00
3DCF00
3F8F00
3B8E00
7F1E00
7E1E00
7E1E00
7C1C00
F83C00
F83C00
F03C00
ENDCHAR
STARTCHAR 040E
ENCODING 1038
SWIDTH 480 0
DWIDTH 16 0
BBX 21 27 0 0
BITMAP
00E1C0
00FFC0
00FF80
007F00
000800
000000
0F80F8
0781F0
0781F0
0783E0
07C3C0
03C7C0
03C780
03CF80
03CF00
01FF00
01FE00
01FC00
00FC00
00F800
00F800
00F000
01E000
27C000
7FC000
7F8000
FE0000
ENDCHAR
STARTCHAR 040F
ENCODING 1039
SWIDTH 480 0
DWIDTH 16 0
BBX 18 27 1 -6
BITMAP
0783C0
0783C0
0F83C0
0F03C0
0F0780
0F0780
1F0780
1E0780
1E0F00
1E0F00
3E0F00
3C0F00
3C1F00
3C1E00
3C1E00
781E00
783E00
783C00
7FFC00
FFFC00
FFFC00
070000
0F0000
0F0000
0F0000
0F0000
1E0000
ENDCHAR
STARTCHAR 0410
ENCODING 1040
SWIDTH 480 0
DWIDTH 16 0
BBX 16 21 0 0
BITMAP
003E
003E
007E
007E
00FE
01EE
01EE
03CE
03CE
078F
078F
0F0F
0F0F
1FFF
1FFF
3FFF
3C0F
780F
780F
F80F
F00F
ENDCHAR
STARTCHAR 0411
ENCODING 1041
SWIDTH 480 0
DWIDTH 16 0
BBX 17 21 1 0
BITMAP
07FF80
07FF00
0FFF00
0FFF00
0F0000
0F0000
1F0000
1E0000
1FF800
1FFC00
1FFE00
3C3E00
3C1E00
3C1E00
3C1E00
781E00
783E00
78FC00
7FFC00
FFF000
FFC000
ENDCHAR
STARTCHAR 0412
ENCODING 1042
SWIDTH 480 0
DWIDTH 16 0
BBX 17 21 1 0
BITMAP
03F800
07FE00
07FF00
0FFF80
0F0780
0F0780
0F0780
1E0F00
1E3F00
1FFC00
1FFC00
3FFE00
3C1E00
3C0F00
3C0F00
3C0F00
781E00
787E00
7FFC00
7FF800
FFE000
ENDCHAR
STARTCHAR 0413
ENCODING 1043
SWIDTH 480 0
DWIDTH 16 0
BBX 19 21 1 0
BITMAP
01FFE0
01FFE0
01FFE0
01FFC0
03E000
03C000
03C000
03C000
07C000
078000
078000
078000
0F8000
0F0000
0F0000
0F0000
0F0000
1E0000
FFF000
FFE000
FFE000
ENDCHAR
STARTCHAR 0414
ENCODING 1044
SWIDTH 480 0
DWIDTH 16 0
BBX 20 27 -1 -6
BITMAP
003FF0
007FF0
007FE0
007FE0
0071E0
00F1E0
00F3C0
00E3C0
01E3C0
01E3C0
01C780
03C780
03C780
078780
078F00
0F0F00
0F0F00
1E0F00
3FFF80
7FFF80
7FFF00
780F00
780F00
F00F00
F00E00
F01E00
F01E00
ENDCHAR
STARTCHAR 0415
ENCODING 1045
SWIDTH 480 0
DWIDTH 16 0
BBX 17 21 2 0
BITMAP
07FF80
0FFF80
0FFF00
0FFF00
0F0000
1F0000
1E0000
1E0000
1FFC00
1FFC00
3FF800
3FF800
3C0000
3C0000
780000
780000
780000
780000
FFF800
FFF800
FFF800
ENDCHAR
STARTCHAR 0416
ENCODING 1046
SWIDTH 480 0
DWIDTH 16 0
BBX 21 21 0 0
BITMAP
071C78
071C70
071CF0
073CE0
0739C0
03B9C0
03BB80
03FF00
03FF00
03FE00
03FC00
07FE00
0FEE00
0EEE00
1CEE00
3DEF00
39C700
79C700
71C700
F1C700
E38700
ENDCHAR
STARTCHAR 0417
ENCODING 1047
SWIDTH 480 0
DWIDTH 16 0
BBX 18 21 0 0
BITMAP
01FE00
07FF00
07FF80
03DF80
0007C0
000780
000780
000F80
003F00
03FE00
03FC00
07FE00
001F00
000F00
000F00
000F00
001F00
303E00
7FFE00
FFFC00
3FF000
ENDCHAR
STARTCHAR 0418
ENCODING 1048
SWIDTH 480 0
DWIDTH 16 0
BBX 18 21 1 0
BITMAP
0701C0
0703C0
0F07C0
0F0FC0
0E0FC0
0E1F80
1E3F80
1E3F80
1E7780
1CE700
3DEF00
3DCF00
3F8F00
3B8E00
7F1E00
7E1E00
7E1E00
7C1C00
F83C00
F83C00
F03C00
ENDCHAR
STARTCHAR 0419
ENCODING 1049
SWIDTH 480 0
DWIDTH 16 0
BBX 18 27 1 0
BITMAP
00E1C0
00F7C0
00FF80
007F00
000800
000000
0701C0
0703C0
0F07C0
0F0FC0
0E0FC0
0E1F80
1E3F80
1E3F80
1E7780
1CE700
3DEF00
3DCF00
3F8F00
3B8E00
7F1E00
7E1E00
7E1E00
7C1C00
F83C00
F83C00
F03C00
ENDCHAR
STARTCHAR 041A
ENCODING 1050
SWIDTH 480 0
DWIDTH 16 0
BBX 19 21 1 0
BITMAP
0783E0
0783C0
0F8780
0F0F80
0F1F00
0F3E00
1F7C00
1E7800
1FF000
1FE000
1FC000
3FE000
3DF000
3CF000
3CF800
787800
787C00
783C00
783C00
F83E00
F01E00
ENDCHAR
STARTCHAR 041B
ENCODING 1051
SWIDTH 480 0
DWIDTH 16 0
BBX 20 21 0 0
BITMAP
007FF0
007FE0
00FFE0
00FFE0
00E1E0
00E3C0
01E3C0
01E3C0
01C3C0
01C780
03C780
03C780
038780
078F00
070F00
0F0F00
1F0F00
7E1F00
FC1E00
F81E00
701E00
ENDCHAR
STARTCHAR 041C
ENCODING 1052
SWIDTH 480 0
DWIDTH 16 0
BBX 19 21 0 0
BITMAP
03C1E0
03C1E0
07C3E0
07C3E0
07C7E0
07C6C0
0ECFC0
0ECDC0
0EDDC0
1EDBC0
1CFBC0
1CF380
1CF380
3CE780
380780
380780
780700
780F00
780F00
700F00
F00E00
ENDCHAR
STARTCHAR 041D
ENCODING 1053
SWIDTH 480 0
DWIDTH 16 0
BBX 19 21 1 0
BITMAP
0783E0
0783C0
0F03C0
0F03C0
0F07C0
0F0780
1E0780
1E0780
1FFF80
1FFF00
3FFF00
3FFF00
3C0F00
3C1E00
7C1E00
781E00
781E00
783C00
F83C00
F03C00
F03C00
ENDCHAR
STARTCHAR 041E
ENCODING 1054
SWIDTH 480 0
DWIDTH 16 0
BBX 16 21 2 0
BITMAP
01F8
07FC
0FFE
0FFF
1F1F
3E0F
3C0F
3C0F
780F
780F
781F
781E
F01E
F01E
F03C
F03C
F87C
78F8
7FF0
3FE0
1FC0
ENDCHAR
STARTCHAR 041F
ENCODING 1055
SWIDTH 480 0
DWIDTH 16 0
BBX 18 21 1 0
BITMAP
07FFC0
07FFC0
0FFFC0
0FFFC0
0F07C0
0F0780
1E0780
1E0780
1E0F80
1E0F00
3E0F00
3C0F00
3C1F00
3C1E00
7C1E00
781E00
781E00
783C00
F83C00
F03C00
F03C00
ENDCHAR
STARTCHAR 0420
ENCODING 1056
SWIDTH 480 0
DWIDTH 16 0
BBX 17 21 1 0
BITMAP
03F800
07FF00
07FF80
0FFF80
0F0780
0F0780
0F0780
0F0780
1E0780
1E0F80
1FFF00
1FFE00
3FFC00
3FE000
3C0000
3C0000
780000
780000
780000
780000
F00000
ENDCHAR
STARTCHAR 0421
ENCODING 1057
SWIDTH 480 0
DWIDTH 16 0
BBX 16 21 3 0
BITMAP
00FC
03FF
0FFF
1FDE
1F02
3E00
3C00
7800
7800
F800
F000
F000
F000
F000
F000
F000
F800
FC30
7FF0
3FF0
1FE0
ENDCHAR
STARTCHAR 0422
ENCODING 1058
SWIDTH 480 0
DWIDTH 16 0
BBX 16 21 4 0
BITMAP
7FFF
7FFF
7FFF
FFFE
03C0
0780
0780
0780
0780
0F00
0F00
0F00
0F00
1F00
1E00
1E00
1E00
3E00
3C00
3C00
3C00
ENDCHAR
STARTCHAR 0423
ENCODING 1059
SWIDTH 480 0
DWIDTH 16 0
BBX 21 21 0 0
BITMAP
0F80F8
0781F0
0781F0
0783E0
07C3C0
03C7C0
03C780
03CF80
03CF00
01FF00
01FE00
01FC00
00FC00
00F800
00F800
00F000
01E000
27C000
7FC000
7F8000
FE0000
ENDCHAR
STARTCHAR 0424
ENCODING 1060
SWIDTH 480 0
DWIDTH 16 0
BBX 16 22 2 0
BITMAP
0070
0070
01F8
07FE
0FFE
1EEF
3CE7
39E7
79E7
71C7
71C7
F1CF
F3CF
F38E
F39E
73BC
7FFC
7FF8
3FE0
0F80
0F00
0E00
ENDCHAR
STARTCHAR 0425
ENCODING 1061
SWIDTH 480 0
DWIDTH 16 0
BBX 20 21 0 0
BITMAP
0780F0
07C1F0
03C1E0
03C3C0
01E780
01EF80
01EF00
00FE00
00FC00
007800
00F800
01F800
01FC00
03FC00
07BC00
0F9E00
1F1E00
1E1E00
3E1E00
7C0F00
F80F00
ENDCHAR
STARTCHAR 0426
ENCODING 1062
SWIDTH 480 0
DWIDTH 16 0
BBX 18 27 1 -6
BITMAP
0783C0
0787C0
0F0780
0F0780
0F0780
0F0F80
1E0F00
1E0F00
1E0F00
1E1F00
3C1E00
3C1E00
3C1E00
3C1E00
783C00
783C00
783C00
783C00
7FFE00
FFFE00
FFFC00
003C00
003C00
003C00
003800
007800
007800
ENDCHAR
STARTCHAR 0427
ENCODING 1063
SWIDTH 480 0
DWIDTH 16 0
BBX 15 21 4 0
BITMAP
3C1E
781E
781E
783C
783C
F83C
F03C
F07C
F078
F078
F8F8
FFF8
7FF0
3FF0
00F0
01F0
01E0
01E0
01E0
03E0
03C0
ENDCHAR
STARTCHAR 0428
ENCODING 1064
SWIDTH 480 0
DWIDTH 16 0
BBX 20 21 0 0
BITMAP
070070
070070
0700F0
0F00E0
0E00E0
0E00E0
0E01E0
1E01E0
1C71C0
1C71C0
1C73C0
3CF3C0
3CE380
38E380
38E780
79E780
79C700
71C700
7FFF00
FFFF00
FFFE00
ENDCHAR
STARTCHAR 0429
ENCODING 1065
SWIDTH 480 0
DWIDTH 16 0
BBX 19 27 1 -6
BITMAP
0701E0
0F01C0
0E01C0
0E01C0
0E03C0
1E0380
1C0380
1C0380
1CE780
3CE700
38E700
39C700
39CF00
79CE00
71CE00
73CE00
739E00
739C00
FFFE00
FFFE00
FFFE00
001E00
001C00
001C00
001C00
003C00
003800
ENDCHAR
STARTCHAR 042A
ENCODING 1066
SWIDTH 480 0
DWIDTH 16 0
BBX 14 21 3 0
BITMAP
3F00
7F00
7F00
7F00
1E00
1E00
1E00
1F00
3FE0
3FF8
3FF8
3C7C
3C3C
783C
783C
7878
78F8
F3F0
FFF0
FFE0
FF80
ENDCHAR
STARTCHAR 042B
ENCODING 1067
SWIDTH 480 0
DWIDTH 16 0
BBX 19 21 1 0
BITMAP
0F00E0
0E00E0
0E01C0
0E01C0
1E01C0
1C01C0
1C03C0
1F0380
3FC380
3FC380
39E780
38E700
78E700
70E700
70EF00
71EE00
F1CE00
E3CE00
FF9E00
FF1C00
FE1C00
ENDCHAR
STARTCHAR 042C
ENCODING 1068
SWIDTH 480 0
DWIDTH 16 0
BBX 16 21 1 0
BITMAP
0780
0780
0780
0F00
0F00
0F00
0F00
1F40
1FF8
1FFC
1FFE
3E1E
3C1F
3C1F
3C1E
7C1E
783E
78FC
7FFC
FFF0
FFC0
ENDCHAR
STARTCHAR 042D
ENCODING 1069
SWIDTH 480 0
DWIDTH 16 0
BBX 16 21 1 0
BITMAP
03F8
0FFC
0FFE
07FE
001F
000F
000F
000F
000F
03FF
03FF
03FF
000F
001F
001E
003E
007C
60FC
7FF8
FFF0
7FC0
ENDCHAR
STARTCHAR 042E
ENCODING 1070
SWIDTH 480 0
DWIDTH 16 0
BBX 18 21 1 0
BITMAP
0E0F00
0E1F80
0E3F80
0E7BC0
1E71C0
1CE1C0
1CE3C0
1CE380
3DC380
3FC380
3FC380
3FC380
39C780
738700
738700
738F00
738E00
E39E00
E3FC00
E1F800
E1F000
ENDCHAR
STARTCHAR 042F
ENCODING 1071
SWIDTH 480 0
DWIDTH 16 0
BBX 19 21 0 0
BITMAP
003FC0
00FFE0
01FFE0
03FFC0
07C3C0
0783C0
0F03C0
0F0780
0F0780
0F8780
07FF80
07FF00
03FF00
07CF00
078F00
0F1F00
1E1E00
3E1E00
3C1E00
783E00
F83C00
ENDCHAR
STARTCHAR 0430
ENCODING 1072
SWIDTH 480 0
DWIDTH 16 0
BBX 15 16 2 0
BITMAP
01FC
07FE
1FFE
3FBE
3C1E
7C3C
783C
F83C
F03C
F078
F078
F078
F8F8
7FF8
7FF8
3F3C
ENDCHAR
STARTCHAR 0431
ENCODING 1073
SWIDTH 480 0
DWIDTH 16 0
BBX 17 23 2 0
BITMAP
000F80
00FF80
03FF80
07FE00
0FC000
0F0000
1E0000
1E0000
3FF000
3FFC00
7FFC00
7C3E00
783E00
781E00
F01E00
F01E00
F03C00
F03C00
F07C00
F8F800
7FF000
7FF000
3FC000
ENDCHAR
STARTCHAR 0432
ENCODING 1074
SWIDTH 480 0
DWIDTH 16 0
BBX 16 16 1 0
BITMAP
01F8
07FE
0FFE
0F1F
1E0F
1E1E
1E7E
3FFC
3FFC
3C7C
3C1E
781E
783E
7FFC
7FF8
FFF0
ENDCHAR
STARTCHAR 0433
ENCODING 1075
SWIDTH 480 0
DWIDTH 16 0
BBX 14 16 2 0
BITMAP
07F0
1FFC
1FFC
1C7C
003C
003C
00FC
0FF8
3FF0
7F80
7C00
F800
F810
7FF0
7FF0
3FF0
ENDCHAR
STARTCHAR 0434
ENCODING 1076
SWIDTH 480 0
DWIDTH 16 0
BBX 15 23 2 0
BITMAP
1FE0
1FF0
0FF8
0DFC
003C
001E
001E
001E
07FE
1FFE
3FFE
3E1E
7C1E
781E
781E
F03E
F03C
F03C
F878
78F8
7FF0
3FE0
1FC0
ENDCHAR
STARTCHAR 0435
ENCODING 1077
SWIDTH 480 0
DWIDTH 16 0
BBX 15 16 2 0
BITMAP
01F8
07FC
0FFE
1F3E
3C1E
781E
783E
7BFC
7FF8
FFE0
7800
7800
7C08
7FF8
3FF8
1FF8
ENDCHAR
STARTCHAR 0436
ENCODING 1078
SWIDTH 480 0
DWIDTH 16 0
BBX 19 16 0 0
BITMAP
1C38E0
1C31E0
1E33E0
0E7380
0E7700
0E6700
0E6600
0FFE00
0FFE00
0CEE00
1CCE00
1DCE00
3DCE00
F9CF00
F98F00
F38700
ENDCHAR
STARTCHAR 0437
ENCODING 1079
SWIDTH 480 0
DWIDTH 16 0
BBX 15 16 1 0
BITMAP
07F8
0FFE
0FFE
0C3E
001E
001E
007C
07F8
07F8
07FC
003C
003C
007C
7FFC
7FF8
FFE0
ENDCHAR
STARTCHAR 0438
ENCODING 1080
SWIDTH 480 0
DWIDTH 16 0
BBX 14 16 3 0
BITMAP
3C3C
3C3C
783C
783C
787C
7878
F878
F078
F0F8
F0F0
F0F0
F0F0
F3F0
FFF0
FFF0
7E78
ENDCHAR
STARTCHAR 0439
ENCODING 1081
SWIDTH 480 0
DWIDTH 16 0
BBX 14 23 3 0
BITMAP
0210
0F1C
0FFC
07F8
03F0
0000
0000
3C3C
3C3C
783C
783C
787C
7878
F878
F078
F0F8
F0F0
F0F0
F0F0
F3F0
FFF0
FFF0
7E78
ENDCHAR
STARTCHAR 043A
ENCODING 1082
SWIDTH 480 0
DWIDTH 16 0
BBX 17 16 2 0
BITMAP
0F0F80
1E1F00
1E3E00
1E7C00
1EF800
3DF000
3FE000
3FC000
3FC000
7BE000
79E000
78F000
78F000
F8F800
F07800
F07C00
ENDCHAR
STARTCHAR 043B
ENCODING 1083
SWIDTH 480 0
DWIDTH 16 0
BBX 18 16 0 0
BITMAP
01FFC0
01FFC0
01FF80
03FF80
03C780
03C780
038F00
078F00
078F00
0F0F00
0F1E00
1E1E00
3E1E00
FC1E00
F83C00
703C00
ENDCHAR
STARTCHAR 043C
ENCODING 1084
SWIDTH 480 0
DWIDTH 16 0
BBX 18 16 0 0
BITMAP
0703C0
0783C0
0F87C0
0F8FC0
0F8F80
1D9F80
1D9B80
1DBB80
3DB380
39F780
39E700
79E700
79C700
780F00
700F00
F00F00
ENDCHAR
STARTCHAR 043D
ENCODING 1085
SWIDTH 480 0
DWIDTH 16 0
BBX 17 16 1 0
BITMAP
0F0780
0F0F80
0F0F00
1E0F00
1E0F00
1E1F00
1FFE00
3FFE00
3FFE00
3FFE00
3C3C00
7C3C00
783C00
787C00
787800
F87800
ENDCHAR
STARTCHAR 043E
ENCODING 1086
SWIDTH 480 0
DWIDTH 16 0
BBX 15 16 2 0
BITMAP
03F0
0FF8
1FFC
3F7E
3C3E
781E
781E
781E
F03E
F03C
F03C
F87C
F8F8
7FF0
7FE0
3FC0
ENDCHAR
STARTCHAR 043F
ENCODING 1087
SWIDTH 480 0
DWIDTH 16 0
BBX 15 16 2 0
BITMAP
07F0
1FFC
1FFC
3FFC
3C3E
3C3E
3C3C
7C3C
783C
783C
7878
7878
F078
F078
F0F0
F0F0
ENDCHAR
STARTCHAR 0440
ENCODING 1088
SWIDTH 480 0
DWIDTH 16 0
BBX 17 22 0 -6
BITMAP
01FC00
07FE00
0FFF00
0F9F80
0F0F80
0F0780
0F0780
1E0780
1E0F80
1E0F00
1E1F00
3C1F00
3C7E00
3FFC00
3FF800
7FE000
780000
780000
780000
F80000
F00000
F00000
ENDCHAR
STARTCHAR 0441
ENCODING 1089
SWIDTH 480 0
DWIDTH 16 0
BBX 14 16 3 0
BITMAP
03FC
0FFC
1FFC
3FFC
7C00
7800
F000
F000
F000
F000
F000
F000
FC30
FFF0
7FF0
1FF0
ENDCHAR
STARTCHAR 0442
ENCODING 1090
SWIDTH 480 0
DWIDTH 16 0
BBX 17 16 1 0
BITMAP
078E00
1FFF00
1FFF80
1CE780
3CE780
3CE700
39E700
39C700
79CF00
79CE00
700E00
700E00
701E00
F01C00
E01C00
E01C00
ENDCHAR
STARTCHAR 0443
ENCODING 1091
SWIDTH 480 0
DWIDTH 16 0
BBX 19 22 -1 -6
BITMAP
0781E0
0781E0
0783C0
0783C0
0787C0
078780
078780
07CF00
03CF00
03DE00
03DE00
03FC00
03FC00
01F800
01F000
01F000
03E000
07C000
FF8000
FF0000
FE0000
300000
ENDCHAR
STARTCHAR 0444
ENCODING 1092
SWIDTH 480 0
DWIDTH 16 0
BBX 16 29 2 -6
BITMAP
0038
0078
0070
0070
0070
00F0
00E0
03F0
0FFC
1FFC
3DDE
79CE
71CE
F3CF
E38F
E38E
E38E
E79E
E71C
F73C
7FF8
7FF0
1FC0
0E00
0E00
0E00
1E00
1C00
1C00
ENDCHAR
STARTCHAR 0445
ENCODING 1093
SWIDTH 480 0
DWIDTH 16 0
BBX 17 16 1 0
BITMAP
1E0780
1E0F00
0F1F00
0F1E00
07BC00
07F800
03F800
03F000
03E000
07F000
0FF000
1FF800
3E7800
3C7C00
783C00
F03C00
ENDCHAR
STARTCHAR 0446
ENCODING 1094
SWIDTH 480 0
DWIDTH 16 0
BBX 15 20 2 -4
BITMAP
1E1E
3C1E
3C3E
3C3C
3C3C
7C3C
787C
7878
7878
7878
F078
F0F8
F9F8
7FFC
7FFC
3F3C
003C
0038
0078
0078
ENDCHAR
STARTCHAR 0447
ENCODING 1095
SWIDTH 480 0
DWIDTH 16 0
BBX 14 16 3 0
BITMAP
783C
783C
783C
783C
F078
F078
F078
FC78
FFF8
7FF0
3FF0
00F0
01F0
01E0
01E0
01E0
ENDCHAR
STARTCHAR 0448
ENCODING 1096
SWIDTH 480 0
DWIDTH 16 0
BBX 17 16 1 0
BITMAP
1C0380
1C0380
1C0380
3C0780
38E700
39E700
39C700
79CF00
71CE00
73CE00
738E00
F39E00
F39E00
FFFE00
7FFE00
7DEE00
ENDCHAR
STARTCHAR 0449
ENCODING 1097
SWIDTH 480 0
DWIDTH 16 0
BBX 17 20 1 -4
BITMAP
1C0380
1C0780
3C0700
380700
39C700
39CF00
79CE00
71CE00
73CE00
738E00
739C00
F39C00
F39C00
FFFE00
7FFE00
7DEE00
000E00
000E00
001C00
001C00
ENDCHAR
STARTCHAR 044A
ENCODING 1098
SWIDTH 480 0
DWIDTH 16 0
BBX 14 16 3 0
BITMAP
7E00
FE00
FE00
FE00
3C00
3C00
3FF0
3FF8
7FF8
7878
787C
7878
F078
FFF8
FFF0
FFC0
ENDCHAR
STARTCHAR 044B
ENCODING 1099
SWIDTH 480 0
DWIDTH 16 0
BBX 18 16 1 0
BITMAP
1C03C0
1C0380
1C0380
1C0380
380780
380700
3F8700
3FC700
7FCF00
71CE00
71CE00
71CE00
F1CE00
FF9C00
FF9C00
FE1C00
ENDCHAR
STARTCHAR 044C
ENCODING 1100
SWIDTH 480 0
DWIDTH 16 0
BBX 14 16 2 0
BITMAP
1E00
1E00
1E00
3E00
3C00
3C00
3FF0
7FF8
7FFC
783C
783C
F83C
F07C
FFF8
FFF0
FFC0
ENDCHAR
STARTCHAR 044D
ENCODING 1101
SWIDTH 480 0
DWIDTH 16 0
BBX 14 16 2 0
BITMAP
0FE0
1FF0
1FF8
1FFC
003C
003C
003C
0FFC
0FFC
0FFC
003C
0078
41F8
FFF0
FFE0
FF80
ENDCHAR
STARTCHAR 044E
ENCODING 1102
SWIDTH 480 0
DWIDTH 16 0
BBX 17 16 1 0
BITMAP
1C1E00
1C7F00
1C7F00
38E780
39E380
39C380
39C380
7F8700
7F8700
738700
738700
738E00
E38E00
E3FC00
E3FC00
E1F000
ENDCHAR
STARTCHAR 044F
ENCODING 1103
SWIDTH 480 0
DWIDTH 16 0
BBX 18 16 0 0
BITMAP
00FF80
03FFC0
07FFC0
0F8780
0F0780
1E0780
1F0F80
1FFF00
0FFF00
07FF00
0F8F00
0F1E00
1E1E00
3C1E00
7C1E00
F83C00
ENDCHAR
STARTCHAR 0450
ENCODING 1104
SWIDTH 480 0
DWIDTH 16 0
BBX 15 23 2 0
BITMAP
0080
00E0
01F0
01F8
0078
0018
0000
01F8
07FC
0FFE
1F3E
3C1E
781E
783E
7BFC
7FF8
FFE0
7800
7800
7C08
7FF8
3FF8
1FF8
ENDCHAR
STARTCHAR 0451
ENCODING 1105
SWIDTH 480 0
DWIDTH 16 0
BBX 16 22 2 0
BITMAP
038F
078F
078F
070E
0000
0000
01F8
07FC
0FFE
1F3E
3C1E
781E
783E
7BFC
7FF8
FFE0
7800
7800
7C08
7FF8
3FF8
1FF8
ENDCHAR
STARTCHAR 0452
ENCODING 1106
SWIDTH 480 0
DWIDTH 16 0
BBX 15 29 2 -6
BITMAP
0380
0780
1FF8
1FF8
1FF8
0F00
0F00
0FF0
1FFC
1FFC
1FFC
1E3E
3E3C
3C3C
3C3C
3C3C
7C3C
7878
7878
7878
F878
F0F0
F0F0
00F0
01F0
0FE0
0FE0
0FC0
0200
ENDCHAR
STARTCHAR 0453
ENCODING 1107
SWIDTH 480 0
DWIDTH 16 0
BBX 14 23 2 0
BITMAP
0010
0038
007C
01F8
01E0
0080
0000
07F0
1FFC
1FFC
1C7C
003C
003C
00FC
0FF8
3FF0
7F80
7C00
F800
F810
7FF0
7FF0
3FF0
ENDCHAR
STARTCHAR 0454
ENCODING 1108
SWIDTH 480 0
DWIDTH 16 0
BBX 14 16 3 0
BITMAP
03F8
0FFC
1FFC
3FFC
7C00
7800
F800
FFE0
FFC0
FFC0
F000
F800
FC30
7FF0
7FF0
1FF0
ENDCHAR
STARTCHAR 0455
ENCODING 1109
SWIDTH 480 0
DWIDTH 16 0
BBX 15 16 2 0
BITMAP
03FC
0FFE
1FFC
1F1C
1E00
1E00
1F80
1FE0
0FF0
03F8
00F8
0078
60F8
FFF0
FFF0
7FC0
ENDCHAR
STARTCHAR 0456
ENCODING 1110
SWIDTH 480 0
DWIDTH 16 0
BBX 11 23 4 0
BITMAP
0380
07C0
07C0
07C0
0780
0000
0000
FF80
FF80
FF00
FF00
0F00
0F00
1F00
1E00
1E00
1E00
3E00
3E00
3E20
1FE0
1FE0
0FE0
ENDCHAR
STARTCHAR 0457
ENCODING 1111
SWIDTH 480 0
DWIDTH 16 0
BBX 13 22 4 0
BITMAP
3C78
3CF8
3CF8
3870
0000
0000
FF80
FF80
FF00
FF00
0F00
0F00
1F00
1E00
1E00
1E00
3E00
3E00
3E20
1FE0
1FE0
0FE0
ENDCHAR
STARTCHAR 0458
ENCODING 1112
SWIDTH 480 0
DWIDTH 16 0
BBX 16 29 0 -6
BITMAP
000E
001F
001F
001F
001E
0000
0000
07FF
07FF
07FE
07FE
001E
003E
003C
003C
003C
007C
0078
0078
0078
0078
00F0
00F0
00F0
61F0
7FE0
FFC0
FF80
0E00
ENDCHAR
STARTCHAR 0459
ENCODING 1113
SWIDTH 480 0
DWIDTH 16 0
BBX 17 16 0 0
BITMAP
07F800
07F800
07F800
073800
0E7000
0E7000
0E7E00
0C7F00
1CFF80
1CE380
18E380
38E380
79C700
F1CF00
F1FE00
E1FC00
ENDCHAR
STARTCHAR 045A
ENCODING 1114
SWIDTH 480 0
DWIDTH 16 0
BBX 16 16 1 0
BITMAP
1C70
1C70
1CE0
1CE0
38E0
38E0
3FFC
3FFE
7FFE
71CF
71C7
7387
E38E
E39E
E3FC
E7F8
ENDCHAR
STARTCHAR 045B
ENCODING 1115
SWIDTH 480 0
DWIDTH 16 0
BBX 15 23 2 0
BITMAP
0380
0780
1FF8
1FF8
1FF8
0F00
0F00
0FF0
1FFC
1FFC
1FFC
1E3E
3E3C
3C3C
3C3C
3C3C
7C3C
7878
7878
7878
F878
F0F0
F0F0
ENDCHAR
STARTCHAR 045C
ENCODING 1116
SWIDTH 480 0
DWIDTH 16 0
BBX 17 23 2 0
BITMAP
000800
003C00
007C00
00FC00
00F000
00C000
000000
0F0F80
1E1F00
1E3E00
1E7C00
1EF800
3DF000
3FE000
3FC000
3FC000
7BE000
79E000
78F000
78F000
F8F800
F07800
F07C00
ENDCHAR
STARTCHAR 045D
ENCODING 1117
SWIDTH 480 0
DWIDTH 16 0
BBX 14 23 3 0
BITMAP
0200
0780
07C0
07E0
01E0
0060
0000
3C3C
3C3C
783C
783C
787C
7878
F878
F078
F0F8
F0F0
F0F0
F0F0
F3F0
FFF0
FFF0
7E78
ENDCHAR
STARTCHAR 045E
ENCODING 1118
SWIDTH 480 0
DWIDTH 16 0
BBX 19 29 -1 -6
BITMAP
006100
00E3C0
00FF80
00FF00
007E00
000000
000000
0781E0
0781E0
0783C0
0783C0
0787C0
078780
078780
07CF00
03CF00
03DE00
03DE00
03FC00
03FC00
01F800
01F000
01F000
03E000
07C000
FF8000
FF0000
FE0000
300000
ENDCHAR
STARTCHAR 045F
ENCODING 1119
SWIDTH 480 0
DWIDTH 16 0
BBX 14 22 3 -6
BITMAP
3C3C
3C3C
783C
783C
787C
7878
F878
F078
F0F8
F0F0
F0F0
F0F0
F3F0
FFF0
FFF0
7E78
0000
1E00
1C00
3C00
3C00
3C00
ENDCHAR
STARTCHAR 0462
ENCODING 1122
SWIDTH 480 0
DWIDTH 16 0
BBX 14 22 3 0
BITMAP
0780
0F00
3FF8
7FF8
7FF8
1E00
1E00
1E00
1E00
3FE0
3FF0
3FF8
3CF8
787C
783C
783C
7878
F8F8
F1F0
FFF0
FFE0
FF80
ENDCHAR
STARTCHAR 0463
ENCODING 1123
SWIDTH 480 0
DWIDTH 16 0
BBX 17 16 0 0
BITMAP
07C000
0FE000
1FF000
1CF000
1C7000
1CF000
3CFE00
38FF00
38FF00
38E780
79E380
71C380
71C700
71CF00
F3FE00
E3FC00
ENDCHAR
STARTCHAR 0472
ENCODING 1138
SWIDTH 480 0
DWIDTH 16 0
BBX 16 21 2 0
BITMAP
01F8
07FC
0FFE
0FFF
1F1F
3E0F
3C0F
3C0F
780F
7F8F
7FFF
7FFE
F0FE
F01E
F03C
F03C
F87C
78F8
7FF0
3FE0
1FC0
ENDCHAR
STARTCHAR 0473
ENCODING 1139
SWIDTH 480 0
DWIDTH 16 0
BBX 15 16 2 0
BITMAP
03F0
0FF8
1FFC
3F7E
3C3E
781E
7E1E
7F9E
FFFE
F1FC
F03C
F87C
F8F8
7FF0
7FE0
3FC0
ENDCHAR
STARTCHAR 0474
ENCODING 1140
SWIDTH 480 0
DWIDTH 16 0
BBX 17 21 4 0
BITMAP
F00F00
F01F80
F03F00
F03F00
F07800
F07800
F0F000
F0F000
F1E000
F1E000
F3C000
F3C000
F38000
F78000
F70000
FF0000
FE0000
FE0000
7C0000
7C0000
780000
ENDCHAR
STARTCHAR 0475
ENCODING 1141
SWIDTH 480 0
DWIDTH 16 0
BBX 16 16 3 0
BITMAP
F01F
F03F
F07F
F0F8
70F0
71E0
71E0
73C0
73C0
7780
7700
7F00
7E00
7E00
3C00
3800
ENDCHAR
STARTCHAR 048A
ENCODING 1162
SWIDTH 480 0
DWIDTH 16 0
BBX 18 32 1 -5
BITMAP
01E3C0
00F780
00FF80
007F00
001000
000000
0703C0
0707C0
0F0780
0F0F80
0E1F80
0E1F80
1E3F00
1E7700
1E7F00
1CEF00
3DCE00
3DCE00
3F9E00
3F1E00
7F1E00
7E1C00
7C3C00
7C3E00
F83E00
F83E00
F07E00
003C00
003C00
007800
00F000
006000
ENDCHAR
STARTCHAR 048B
ENCODING 1163
SWIDTH 480 0
DWIDTH 16 0
BBX 14 27 3 -5
BITMAP
0210
0E1C
0FFC
07F8
03F0
0000
0000
3C3C
3C3C
783C
783C
787C
7878
F878
F078
F0F8
F0F0
F0F0
F0F0
F3F0
FFF8
FFF8
7E78
0070
00F0
01E0
00C0
ENDCHAR
STARTCHAR 048C
ENCODING 1164
SWIDTH 480 0
DWIDTH 16 0
BBX 14 21 2 0
BITMAP
0780
0780
3FF0
3FE0
3FE0
3FE0
1E00
1E00
1FE0
1FF8
3FFC
3C7C
3C3C
3C3C
783C
783C
787C
79F8
FFF0
FFE0
FF80
ENDCHAR
STARTCHAR 048D
ENCODING 1165
SWIDTH 480 0
DWIDTH 16 0
BBX 14 16 2 0
BITMAP
0F00
3FF0
3FF0
3FF0
1E00
1E00
1FF0
3FF8
3FFC
3C3C
3C3C
783C
783C
7FF8
7FF8
FFE0
ENDCHAR
STARTCHAR 048E
ENCODING 1166
SWIDTH 480 0
DWIDTH 16 0
BBX 17 21 1 0
BITMAP
03F800
07FF00
07FF80
0FFF80
0F0780
0F0780
0F0780
0F3780
1E7780
1E7F80
1E7F00
1FFE00
3FFC00
3FFC00
3C1C00
3C1C00
781800
780000
780000
780000
F00000
ENDCHAR
STARTCHAR 048F
ENCODING 1167
SWIDTH 480 0
DWIDTH 16 0
BBX 17 22 0 -6
BITMAP
01FC00
07FE00
0FFF00
0F9F80
0F0780
0F0780
0F0780
1E0780
1E0780
1E6F00
1EFF00
3C7E00
3C7E00
3FFC00
3FF800
7FF800
783C00
781C00
781800
F80000
F00000
F00000
ENDCHAR
STARTCHAR 0490
ENCODING 1168
SWIDTH 480 0
DWIDTH 16 0
BBX 20 25 1 0
BITMAP
0000F0
0000F0
0000E0
0001E0
01FFE0
01FFE0
01FFE0
01FFC0
03E000
03C000
03C000
03C000
07C000
078000
078000
078000
0F8000
0F0000
0F0000
0F0000
0F0000
1E0000
FFF000
FFE000
FFE000
ENDCHAR
STARTCHAR 0491
ENCODING 1169
SWIDTH 480 0
DWIDTH 16 0
BBX 17 19 2 0
BITMAP
000780
000700
000F00
0FFF00
0FFF00
0FFE00
1FFE00
1E0000
1E0000
1E0000
3C0000
3C0000
3C0000
3C0000
780000
780000
780000
780000
F80000
ENDCHAR
STARTCHAR 0492
ENCODING 1170
SWIDTH 480 0
DWIDTH 16 0
BBX 19 21 1 0
BITMAP
01FFE0
01FFE0
01FFE0
01FFC0
03E000
03C000
03C000
03C000
07C000
3FFC00
3FFC00
3FF800
0F8000
0F0000
0F0000
0F0000
0F0000
1E0000
FFF000
FFE000
FFE000
ENDCHAR
STARTCHAR 0493
ENCODING 1171
SWIDTH 480 0
DWIDTH 16 0
BBX 14 16 2 0
BITMAP
07F0
1FFC
1FFC
183C
003C
303C
3EFC
1FF8
1FF0
3FFC
7C18
7800
F800
7FF0
7FF0
3FF0
ENDCHAR
STARTCHAR 0494
ENCODING 1172
SWIDTH 480 0
DWIDTH 16 0
BBX 17 27 1 -6
BITMAP
07FF80
07FF80
0FFF00
0FFF00
0F0000
0F0000
1F0000
1E0000
1FF800
1FFC00
1FFC00
3C3E00
3C1E00
3C1E00
3C1E00
781E00
781E00
781E00
781E00
F03C00
F03C00
007C00
01F800
0FF000
0FE000
0FC000
080000
ENDCHAR
STARTCHAR 0495
ENCODING 1173
SWIDTH 480 0
DWIDTH 16 0
BBX 14 22 2 -6
BITMAP
0FFC
1FFC
1FFC
1FFC
1E00
3E00
3D80
3FF0
3FF8
7FFC
783C
783C
783C
F83C
F03C
F03C
0078
00F8
0BF0
0FE0
0FC0
0E00
ENDCHAR
STARTCHAR 0496
ENCODING 1174
SWIDTH 480 0
DWIDTH 16 0
BBX 21 27 0 -6
BITMAP
071C78
071C70
071CF0
073CE0
0739C0
03B9C0
03BB80
03FF00
03FF00
03FE00
03FC00
07FE00
0FEE00
0EEE00
1CEE00
3DEE00
39C700
79C700
71C780
F1C700
E38700
000700
000700
000600
000E00
000E00
000E00
ENDCHAR
STARTCHAR 0497
ENCODING 1175
SWIDTH 480 0
DWIDTH 16 0
BBX 19 20 0 -4
BITMAP
1C38E0
1C31E0
1E33E0
0E7380
0E7700
0E6700
0E6600
0FFE00
0FFE00
0CEE00
1CCE00
1DCE00
3DCE00
F9CF80
F98F00
F38700
000700
000700
000600
000E00
ENDCHAR
STARTCHAR 0498
ENCODING 1176
SWIDTH 480 0
DWIDTH 16 0
BBX 18 27 0 -6
BITMAP
01FE00
07FF00
07FF80
03DF80
0007C0
000780
000780
000F80
003F00
03FE00
03FC00
07FE00
001F00
000F00
000F00
000F00
001F00
303E00
7FFE00
FFFC00
3FF000
038000
078000
01C000
1FC000
1F8000
0E0000
ENDCHAR
STARTCHAR 0499
ENCODING 1177
SWIDTH 480 0
DWIDTH 16 0
BBX 15 22 1 -6
BITMAP
07F8
0FFE
0FFE
0C3E
001E
001E
007C
07F8
07F8
07FC
003C
003C
007C
7FFC
7FF8
FFE0
0700
0700
0380
1F80
3F00
1C00
ENDCHAR
STARTCHAR 049A
ENCODING 1178
SWIDTH 480 0
DWIDTH 16 0
BBX 19 27 1 -6
BITMAP
0783E0
0787C0
078780
0F0F00
0F1F00
0F3E00
0F7C00
1E7800
1EF000
1FE000
1FC000
3DE000
3DF000
3CF000
3CF000
787800
787800
783C00
783E00
F03E00
F03E00
001E00
001C00
001C00
003C00
003C00
003800
ENDCHAR
STARTCHAR 049B
ENCODING 1179
SWIDTH 480 0
DWIDTH 16 0
BBX 17 20 2 -4
BITMAP
0F0F80
1E1F00
1E3E00
1E7C00
1EF800
3DF000
3FE000
3FC000
3FC000
7BE000
79E000
79F000
78F000
F0FC00
F07C00
F07C00
003800
003800
007800
007800
ENDCHAR
STARTCHAR 049C
ENCODING 1180
SWIDTH 480 0
DWIDTH 16 0
BBX 19 21 1 0
BITMAP
0F01E0
0F01E0
0F03C0
0E03C0
1EE780
1EEF00
1ECE00
1CDE00
3CFC00
3FF800
3FF000
3FF800
39F800
7BB800
7B3C00
7B3C00
701C00
F01E00
F01E00
F01E00
E01E00
ENDCHAR
STARTCHAR 049D
ENCODING 1181
SWIDTH 480 0
DWIDTH 16 0
BBX 18 16 1 0
BITMAP
1E03C0
1E03C0
1E0780
1CCF00
3CDE00
3DFC00
3DF800
3FF000
7FF800
7BF800
7B3C00
733C00
733C00
F01C00
F01E00
F01E00
ENDCHAR
STARTCHAR 049E
ENCODING 1182
SWIDTH 480 0
DWIDTH 16 0
BBX 18 22 2 0
BITMAP
078000
0783C0
1FC7C0
3FCF80
3FCF00
0F1E00
0E3C00
1E7800
1EF800
1FF000
1FE000
3FC000
3FE000
3DE000
3DF000
78F000
78F800
787800
787800
F03C00
F03C00
F03C00
ENDCHAR
STARTCHAR 049F
ENCODING 1183
SWIDTH 480 0
DWIDTH 16 0
BBX 17 17 2 0
BITMAP
0F0000
3F8F80
3F8F00
7F9E00
1E7C00
1EF800
3DF000
3FE000
3FC000
3FC000
7BE000
79E000
78F000
78F000
F0F800
F07800
F07C00
ENDCHAR
STARTCHAR 04A0
ENCODING 1184
SWIDTH 480 0
DWIDTH 16 0
BBX 17 21 3 0
BITMAP
3F8780
3F0F80
7F0F00
7F1E00
0F3C00
1E7C00
1E7800
1EF000
1FE000
3FC000
3FC000
3FC000
3FE000
79E000
79E000
78F000
78F000
70F000
F07800
F07800
F07800
ENDCHAR
STARTCHAR 04A1
ENCODING 1185
SWIDTH 480 0
DWIDTH 16 0
BBX 16 16 3 0
BITMAP
7E1F
7E3E
FE3C
FE78
3CF0
3DE0
3FC0
3F80
3FC0
7BC0
79E0
79E0
71F0
F0F0
F0F0
F0F8
ENDCHAR
STARTCHAR 04A2
ENCODING 1186
SWIDTH 480 0
DWIDTH 16 0
BBX 18 27 1 -6
BITMAP
0783C0
0787C0
0F0780
0F0780
0F0780
0F0F80
1E0F00
1E0F00
1FFF00
1FFF00
3FFE00
3FFE00
3C1E00
3C1E00
7C3C00
783C00
783C00
783C00
F87E00
F07E00
F07C00
003C00
003C00
003C00
003800
007800
007800
ENDCHAR
STARTCHAR 04A3
ENCODING 1187
SWIDTH 480 0
DWIDTH 16 0
BBX 16 20 1 -4
BITMAP
0F0F
0F0F
0F0F
1E0F
1E1E
1E1E
1FFE
3FFE
3FFC
3FFC
3C3C
783C
787C
787E
787C
F87C
003C
003C
0038
0038
ENDCHAR
STARTCHAR 04A4
ENCODING 1188
SWIDTH 480 0
DWIDTH 16 0
BBX 20 21 1 0
BITMAP
0787F0
0787F0
0F07E0
0F0FE0
0F0F00
0F0F00
1E0F00
1E1F00
1FFE00
1FFE00
3FFE00
3FFE00
3C3C00
3C3C00
7C3C00
783C00
787800
787800
F87800
F07800
F0F000
ENDCHAR
STARTCHAR 04A5
ENCODING 1189
SWIDTH 480 0
DWIDTH 16 0
BBX 18 16 1 0
BITMAP
0F1FC0
0F1FC0
0F1FC0
1E3F80
1E3C00
1E3C00
1FFC00
3FFC00
3FF800
3FF800
3C7800
7CF800
78F000
78F000
78F000
F8F000
ENDCHAR
STARTCHAR 04A6
ENCODING 1190
SWIDTH 480 0
DWIDTH 16 0
BBX 16 26 1 -6
BITMAP
0FF8
0FF8
0FF8
0E70
1E70
1C70
1CF0
1CE0
3CFC
38FE
39FF
39CF
39CF
79C7
73CF
738F
738F
F38E
E78E
E71E
E71C
003C
0038
01F8
01F0
01E0
ENDCHAR
STARTCHAR 04A7
ENCODING 1191
SWIDTH 480 0
DWIDTH 16 0
BBX 16 22 0 -6
BITMAP
0FC0
1FE0
1FF0
1CF0
1C70
3C70
38FC
38FF
38FF
78EF
70E7
71E7
71C7
F1C7
E1C7
E3C7
000E
001E
00FC
00FC
00F0
0080
ENDCHAR
STARTCHAR 04A8
ENCODING 1192
SWIDTH 480 0
DWIDTH 16 0
BBX 16 26 2 -5
BITMAP
00FE
03FE
07FE
0FEC
1F00
3E00
3C3C
787E
78FF
F1FF
F3CF
F38F
F38F
F78F
E78E
F71E
F73C
F77C
7FF8
3FF0
1FC0
0780
07C0
03F8
01F0
00F0
ENDCHAR
STARTCHAR 04A9
ENCODING 1193
SWIDTH 480 0
DWIDTH 16 0
BBX 15 21 2 -5
BITMAP
03F8
0FF8
1FF8
3F10
3C00
7830
70FC
F1FE
F3DE
F38E
F78E
F79C
F73C
7FF8
3FF0
1FE0
0780
03E0
01F0
00F0
0010
ENDCHAR
STARTCHAR 04AA
ENCODING 1194
SWIDTH 480 0
DWIDTH 16 0
BBX 16 27 3 -6
BITMAP
00FC
03FF
0FFF
1FDE
1F02
3E00
3C00
7800
7800
F800
F000
F000
F000
F000
F000
F000
F800
FC30
7FF0
3FF0
1FE0
0E00
0F00
0700
3F00
3F00
1C00
ENDCHAR
STARTCHAR 04AB
ENCODING 1195
SWIDTH 480 0
DWIDTH 16 0
BBX 14 22 3 -6
BITMAP
03FC
0FFC
1FFC
3FFC
7C00
7800
F000
F000
F000
F000
F000
F000
FC30
FFF0
7FF0
3FF0
0700
0F00
0380
3F80
3F00
1C00
ENDCHAR
STARTCHAR 04AC
ENCODING 1196
SWIDTH 480 0
DWIDTH 16 0
BBX 16 27 4 -6
BITMAP
7FFF
7FFF
7FFF
FFFE
03C0
0780
0780
0780
0780
0F00
0F00
0F00
0F00
1F00
1E00
1E00
1E00
3E00
3F00
3F00
3F00
0F00
0E00
1E00
1E00
1E00
1C00
ENDCHAR
STARTCHAR 04AD
ENCODING 1197
SWIDTH 480 0
DWIDTH 16 0
BBX 16 20 1 -4
BITMAP
078E
1FFF
1FFF
1CE7
3CE7
38E7
39E7
39CF
79CE
79CE
700E
701E
701C
F01E
E01E
E03E
001E
001C
001C
001C
ENDCHAR
STARTCHAR 04AE
ENCODING 1198
SWIDTH 480 0
DWIDTH 16 0
BBX 16 21 5 0
BITMAP
F01F
F01E
F03C
F07C
F078
70F0
79F0
79E0
7BC0
7FC0
3F80
3F00
3E00
3E00
3C00
3C00
3C00
3C00
7800
7800
7800
ENDCHAR
STARTCHAR 04AF
ENCODING 1199
SWIDTH 480 0
DWIDTH 16 0
BBX 14 22 4 -6
BITMAP
F03C
F03C
F07C
F078
F0F8
F0F0
F1F0
F1E0
F3E0
F3C0
7F80
7F80
7F00
7E00
3E00
3C00
7C00
7800
7800
7800
F800
F000
ENDCHAR
STARTCHAR 04B0
ENCODING 1200
SWIDTH 480 0
DWIDTH 16 0
BBX 18 21 3 0
BITMAP
3C07C0
3C0780
3C0F00
3C1F00
3C1E00
1C3C00
1E7C00
1E7800
1EF000
0FE000
0FE000
0FC000
0F8000
FFF800
FFF800
FFF000
0F0000
0F0000
1E0000
1E0000
1E0000
ENDCHAR
STARTCHAR 04B1
ENCODING 1201
SWIDTH 480 0
DWIDTH 16 0
BBX 16 22 2 -6
BITMAP
3C0F
3C0F
3C1F
3C1E
3C3E
3C3C
3C7C
3C78
3CF8
1CF0
1FE0
1FE0
1FC0
FFF0
FFF0
FFF0
1F00
1E00
1E00
1E00
3E00
3C00
ENDCHAR
STARTCHAR 04B2
ENCODING 1202
SWIDTH 480 0
DWIDTH 16 0
BBX 17 23 1 -5
BITMAP
070780
078F00
078E00
039E00
03BC00
03F800
01F000
01E000
01E000
03E000
07F000
07F000
0F7000
1E7800
3C7800
3C7E00
783C00
F03C00
003C00
003C00
003800
003800
007800
ENDCHAR
STARTCHAR 04B3
ENCODING 1203
SWIDTH 480 0
DWIDTH 16 0
BBX 17 20 1 -4
BITMAP
1E0F80
1E0F00
0F1E00
0F3C00
0F7C00
07F800
07F000
03E000
07E000
07E000
0FF000
1EF000
3CF800
7C7E00
787E00
F03C00
003C00
003C00
003C00
003800
ENDCHAR
STARTCHAR 04B4
ENCODING 1204
SWIDTH 480 0
DWIDTH 16 0
BBX 17 27 2 -6
BITMAP
1FF380
3FE780
3FE780
3FE780
0F0700
0F0F00
0E0F00
0E0F00
1E0E00
1E1E00
1E1E00
1C1E00
3C1C00
3C1C00
3C3C00
383C00
783800
783800
7FFC00
7FFC00
FFFC00
003C00
003800
003800
007800
007800
007000
ENDCHAR
STARTCHAR 04B5
ENCODING 1205
SWIDTH 480 0
DWIDTH 16 0
BBX 14 20 3 -4
BITMAP
FF9C
FF9C
FF3C
FF3C
3838
3838
7838
7878
7070
7070
7070
F0F0
F0F0
7FF8
7FF8
3F38
0070
0070
0070
0070
ENDCHAR
STARTCHAR 04B6
ENCODING 1206
SWIDTH 480 0
DWIDTH 16 0
BBX 15 27 4 -6
BITMAP
7C1E
783E
783C
783C
F83C
F07C
F078
F078
F078
F0F8
F8F0
FFF0
7FF0
3FF0
01E0
01E0
01E0
01E0
03F0
03F0
03E0
01E0
01E0
01E0
01C0
03C0
03C0
ENDCHAR
STARTCHAR 04B7
ENCODING 1207
SWIDTH 480 0
DWIDTH 16 0
BBX 14 20 3 -4
BITMAP
3C3C
7C3C
783C
787C
7878
7878
F878
FCF8
7FF0
7FF0
3FF0
00F0
01E0
01F8
01F0
01F0
00F0
00F0
00E0
01E0
ENDCHAR
STARTCHAR 04B8
ENCODING 1208
SWIDTH 480 0
DWIDTH 16 0
BBX 16 21 4 0
BITMAP
7C0F
781E
781E
781E
F81E
F03C
F03C
F33C
F33C
F77C
FE78
FFF8
7FF8
3FF8
0CF0
0CF0
0CF0
1DF0
01E0
01E0
01E0
ENDCHAR
STARTCHAR 04B9
ENCODING 1209
SWIDTH 480 0
DWIDTH 16 0
BBX 15 16 3 0
BITMAP
7C1E
781E
781E
783E
783C
F33C
F33C
FF7C
FFF8
7FF8
3FF8
06F8
0EF0
0CF0
00F0
00F0
ENDCHAR
STARTCHAR 04BA
ENCODING 1210
SWIDTH 480 0
DWIDTH 16 0
BBX 16 21 1 0
BITMAP
0780
0780
0780
0F00
0F00
0F00
0F00
1FF0
1FFC
1FFE
1FFE
3E1F
3C1F
3C1E
3C1E
7C1E
781E
783E
783C
F83C
F03C
ENDCHAR
STARTCHAR 04BB
ENCODING 1211
SWIDTH 480 0
DWIDTH 16 0
BBX 15 23 2 0
BITMAP
0780
0780
0F00
0F00
0F00
0F00
1F00
1FF0
1FFC
1FFC
3FFC
3C3E
3C3E
3C3C
7C3C
783C
783C
7878
7878
F078
F078
F0F0
F0F0
ENDCHAR
STARTCHAR 04BC
ENCODING 1212
SWIDTH 480 0
DWIDTH 16 0
BBX 16 21 3 0
BITMAP
007C
01FE
01FE
03CF
078F
E78F
E70F
EF0F
FF0E
FFFE
7FFE
1FFE
1E00
1C00
1C00
1C00
1E00
1E10
1FF0
0FF0
07F0
ENDCHAR
STARTCHAR 04BD
ENCODING 1213
SWIDTH 480 0
DWIDTH 16 0
BBX 16 16 2 0
BITMAP
007C
01FE
03FF
03CF
E787
EF0F
EF0E
FE7E
FFFC
3FF0
1E00
1E00
0F00
0FF8
0FFC
03F8
ENDCHAR
STARTCHAR 04BE
ENCODING 1214
SWIDTH 480 0
DWIDTH 16 0
BBX 16 25 3 -4
BITMAP
007C
01FE
01FE
03CF
078F
E78F
E70F
EF0F
FF0E
FFFE
7FFE
1FFE
1E00
1C00
1C00
1C00
1E00
1E10
1FF0
0FF0
07F0
0380
0780
0700
0700
ENDCHAR
STARTCHAR 04BF
ENCODING 1215
SWIDTH 480 0
DWIDTH 16 0
BBX 16 20 2 -4
BITMAP
007C
01FE
03FF
03CF
E787
EF0F
EF0E
FE7E
FFFC
3FF0
1E00
1E00
0F00
0FF8
0FFC
03F8
03C0
0380
0380
0380
ENDCHAR
STARTCHAR 04C0
ENCODING 1216
SWIDTH 480 0
DWIDTH 16 0
BBX 18 21 1 0
BITMAP
07FFC0
07FFC0
07FFC0
0FFF80
007800
00F800
00F000
00F000
00F000
01F000
01E000
01E000
01E000
03E000
03C000
03C000
03C000
03C000
7FFC00
FFFC00
FFF800
ENDCHAR
STARTCHAR 04C1
ENCODING 1217
SWIDTH 480 0
DWIDTH 16 0
BBX 21 27 0 0
BITMAP
0070E0
007BE0
007FC0
003F80
000400
000000
071C78
071C70
071CF0
073CE0
0739C0
03B9C0
03BB80
03FF00
03FF00
03FE00
03FC00
07FE00
0FEE00
0EEE00
1CEE00
3DEF00
39C700
79C700
71C700
F1C700
E38700
ENDCHAR
STARTCHAR 04C2
ENCODING 1218
SWIDTH 480 0
DWIDTH 16 0
BBX 19 23 0 0
BITMAP
006100
00E3C0
00FF80
00FF00
007E00
000000
000000
1C38E0
1C31E0
1E33E0
0E7380
0E7700
0E6700
0E6600
0FFE00
0FFE00
0CEE00
1CCE00
1DCE00
3DCE00
F9CF00
F98F00
F38700
ENDCHAR
STARTCHAR 04C3
ENCODING 1219
SWIDTH 480 0
DWIDTH 16 0
BBX 20 27 1 -6
BITMAP
0781F0
0783E0
0F87C0
0F0F80
0F1F00
0F3E00
1F7C00
1EF800
1FF000
1FF000
1FFC00
3FFC00
3C7E00
3C1E00
3C1F00
780F00
780F00
780F00
781E00
F81E00
F03E00
003C00
00FC00
0FF800
0FF000
0FC000
0E0000
ENDCHAR
STARTCHAR 04C4
ENCODING 1220
SWIDTH 480 0
DWIDTH 16 0
BBX 17 22 2 -6
BITMAP
1E0F80
1E1F00
1E3E00
3E7C00
3CF000
3DE000
3FC000
7FF000
7FF800
7FF800
787C00
783C00
F03C00
F03C00
F03C00
F07800
00F800
01F000
0FF000
1FE000
1F8000
180000
ENDCHAR
STARTCHAR 04C5
ENCODING 1221
SWIDTH 480 0
DWIDTH 16 0
BBX 19 26 0 -5
BITMAP
007FE0
007FC0
00FFC0
00FFC0
00E3C0
00E7C0
01E780
01E780
01C780
01C780
03CF00
03CF00
038F00
078F00
071E00
0F1E00
1F1E00
7E1F00
FC3F00
F83F00
703E00
001E00
001C00
003C00
007800
003000
ENDCHAR
STARTCHAR 04C6
ENCODING 1222
SWIDTH 480 0
DWIDTH 16 0
BBX 18 20 0 -5
BITMAP
01FFC0
01FFC0
01FF80
03FF80
03C780
03C780
038F00
078F00
078F00
0F0F00
0F1E00
1E1E00
3E1F80
FC1F00
F83F00
703F00
000E00
001E00
003C00
003800
ENDCHAR
STARTCHAR 04C7
ENCODING 1223
SWIDTH 480 0
DWIDTH 16 0
BBX 19 27 1 -6
BITMAP
0783E0
0783C0
0F03C0
0F03C0
0F07C0
0F0780
1E0780
1E0780
1FFF80
1FFF00
3FFF00
3FFF00
3C0F00
3C1E00
7C1E00
781E00
781E00
783C00
F83C00
F03C00
F03C00
007800
007800
07F800
07F000
07E000
010000
ENDCHAR
STARTCHAR 04C8
ENCODING 1224
SWIDTH 480 0
DWIDTH 16 0
BBX 17 22 1 -6
BITMAP
0F0780
0F0F80
0F0F00
1E0F00
1E0F00
1E1F00
1FFE00
3FFE00
3FFE00
3FFE00
3C3C00
7C3C00
783C00
783C00
787800
F87800
007800
00F800
07F000
07F000
07E000
010000
ENDCHAR
STARTCHAR 04C9
ENCODING 1225
SWIDTH 480 0
DWIDTH 16 0
BBX 18 26 1 -5
BITMAP
0783C0
078780
0F0780
0F0780
0F0780
0F0F00
1E0F00
1E0F00
1FFF00
1FFE00
3FFE00
3FFE00
3C1E00
3C3E00
7C3C00
783C00
783C00
787E00
F87E00
F07E00
F07C00
003C00
003800
007800
00F000
00E000
ENDCHAR
STARTCHAR 04CA
ENCODING 1226
SWIDTH 480 0
DWIDTH 16 0
BBX 17 20 1 -5
BITMAP
0F0780
0F0F80
0F0F00
1E0F00
1E0F00
1E1F00
1FFE00
3FFE00
3FFE00
3FFE00
3C3C00
7C3C00
783F00
783E00
787E00
F87E00
001C00
003C00
007800
007000
ENDCHAR
STARTCHAR 04CB
ENCODING 1227
SWIDTH 480 0
DWIDTH 16 0
BBX 15 27 4 -6
BITMAP
3C1E
781E
781E
783C
783C
F83C
F03C
F07C
F078
F078
F8F8
FFF8
7FF0
3FF0
00F0
01F0
01E0
01E0
07E0
07E0
07C0
0F00
0F00
0F00
0F00
1E00
1E00
ENDCHAR
STARTCHAR 04CC
ENCODING 1228
SWIDTH 480 0
DWIDTH 16 0
BBX 14 20 3 -4
BITMAP
783C
783C
783C
783C
F078
F078
F078
FC78
FFF8
7FF0
3FF0
00F0
01F0
03E0
07E0
07E0
0780
0700
0F00
0F00
ENDCHAR
STARTCHAR 04CD
ENCODING 1229
SWIDTH 480 0
DWIDTH 16 0
BBX 19 26 0 -5
BITMAP
03C1E0
03C3C0
07C3C0
07C7C0
07C7C0
07CFC0
0ECDC0
0EDFC0
0EDB80
1EFB80
1CF380
1CF780
1CE780
3CE700
380700
380F00
780F00
780F00
780F00
701F00
F01E00
001E00
001C00
003C00
007800
007000
ENDCHAR
STARTCHAR 04CE
ENCODING 1230
SWIDTH 480 0
DWIDTH 16 0
BBX 17 20 0 -5
BITMAP
070780
0F0780
0F0F80
0F8F80
1F9F80
1F9F00
1FBF00
1FB700
3BF700
39EF00
39EF00
79CE00
79CF80
701F80
701F00
F01F00
000F00
001E00
003C00
001800
ENDCHAR
STARTCHAR 04CF
ENCODING 1231
SWIDTH 480 0
DWIDTH 16 0
BBX 18 21 1 0
BITMAP
07FFC0
07FFC0
07FFC0
0FFF80
007800
00F800
00F000
00F000
00F000
01F000
01E000
01E000
01E000
03E000
03C000
03C000
03C000
03C000
7FFC00
FFFC00
FFF800
ENDCHAR
STARTCHAR 04D0
ENCODING 1232
SWIDTH 480 0
DWIDTH 16 0
BBX 19 27 0 0
BITMAP
0071E0
007BC0
007FC0
003F80
000C00
000000
003E00
003E00
007E00
007E00
00FE00
01EE00
01EE00
03CE00
03CE00
078F00
078F00
0F0F00
0F0F00
1FFF00
1FFF00
3FFF00
3C0F00
780F00
780F00
F80F00
F00F00
ENDCHAR
STARTCHAR 04D1
ENCODING 1233
SWIDTH 480 0
DWIDTH 16 0
BBX 17 23 2 0
BITMAP
00C200
03C780
01FF00
01FE00
00FC00
000000
000000
01FC00
07FE00
1FFE00
3FBE00
3C1E00
7C3C00
783C00
F83C00
F03C00
F07800
F07800
F07800
F8F800
7FF800
7FF800
3F3C00
ENDCHAR
STARTCHAR 04D2
ENCODING 1234
SWIDTH 480 0
DWIDTH 16 0
BBX 19 27 0 0
BITMAP
0071C0
00F3E0
00F3E0
00F1C0
000000
000000
003E00
003E00
007E00
007E00
00FE00
01EE00
01EE00
03CE00
03CE00
078F00
078F00
0F0F00
0F0F00
1FFF00
1FFF00
3FFF00
3C0F00
780F00
780F00
F80F00
F00F00
ENDCHAR
STARTCHAR 04D3
ENCODING 1235
SWIDTH 480 0
DWIDTH 16 0
BBX 17 22 2 0
BITMAP
03C780
03CF80
03CF80
038700
000000
000000
01FC00
07FE00
1FFE00
3FBE00
3C1E00
7C3C00
783C00
F83C00
F03C00
F07800
F07800
F07800
F8F800
7FF800
7FF800
3F3C00
ENDCHAR
STARTCHAR 04D4
ENCODING 1236
SWIDTH 480 0
DWIDTH 16 0
BBX 20 21 0 0
BITMAP
001FF0
003FF0
007FF0
007FE0
00EE00
01EE00
01DE00
03DE00
039F80
079F80
073F80
0F3F80
0E3C00
1FF800
1FF800
3FF800
3C7800
787000
78FF00
F0FF00
F0FF00
ENDCHAR
STARTCHAR 04D5
ENCODING 1237
SWIDTH 480 0
DWIDTH 16 0
BBX 17 16 1 0
BITMAP
1F0F00
3F9F80
3FBF80
21F380
01E380
01E380
07C700
1FDF00
3FFE00
71F800
E3C000
E3C000
E7C000
FEFE00
FEFE00
7C7E00
ENDCHAR
STARTCHAR 04D6
ENCODING 1238
SWIDTH 480 0
DWIDTH 16 0
BBX 17 27 2 0
BITMAP
01C380
01FF80
00FF00
00FE00
001000
000000
07FF80
0FFF80
0FFF00
0FFF00
0F0000
1F0000
1E0000
1E0000
1FFC00
1FFC00
3FF800
3FF800
3C0000
3C0000
780000
780000
780000
780000
FFF800
FFF800
FFF800
ENDCHAR
STARTCHAR 04D7
ENCODING 1239
SWIDTH 480 0
DWIDTH 16 0
BBX 16 23 2 0
BITMAP
0084
038F
03FE
01FE
00F8
0000
0000
01F8
07FC
0FFE
1F3E
3C1E
781E
783E
7BFC
7FF8
FFE0
7800
7800
7C08
7FF8
3FF8
1FF8
ENDCHAR
STARTCHAR 04D8
ENCODING 1240
SWIDTH 480 0
DWIDTH 16 0
BBX 16 21 2 0
BITMAP
07F0
1FFC
1FFE
0EFE
001F
000F
000F
000F
000F
7FFF
7FFF
FFFF
FFFE
F01E
F01E
F03C
F07C
78F8
7FF0
3FE0
1FC0
ENDCHAR
STARTCHAR 04D9
ENCODING 1241
SWIDTH 480 0
DWIDTH 16 0
BBX 15 16 2 0
BITMAP
0FE0
3FF8
3FFC
387C
003C
003E
07FE
1FFE
7FFC
F83C
F03C
F078
F0F8
FFF0
FFE0
3F80
ENDCHAR
STARTCHAR 04DA
ENCODING 1242
SWIDTH 480 0
DWIDTH 16 0
BBX 16 27 2 0
BITMAP
038E
078F
078F
078E
0000
0000
07F0
1FFC
1FFE
0EFE
001F
000F
000F
000F
000F
7FFF
7FFF
FFFF
FFFE
F01E
F01E
F03C
F07C
78F8
7FF0
3FE0
1FC0
ENDCHAR
STARTCHAR 04DB
ENCODING 1243
SWIDTH 480 0
DWIDTH 16 0
BBX 15 22 2 0
BITMAP
071E
0F9E
0F1E
071C
0000
0000
0FE0
3FF8
3FFC
387C
003C
003E
07FE
1FFE
7FFC
F83C
F03C
F078
F0F8
FFF0
FFE0
3F80
ENDCHAR
STARTCHAR 04DC
ENCODING 1244
SWIDTH 480 0
DWIDTH 16 0
BBX 21 27 0 0
BITMAP
0070E0
00F9E0
00F9E0
00F1E0
000000
000000
071C78
071C70
071CF0
073CE0
0739C0
03B9C0
03BB80
03FF00
03FF00
03FE00
03FC00
07FE00
0FEE00
0EEE00
1CEE00
3DEF00
39C700
79C700
71C700
F1C700
E38700
ENDCHAR
STARTCHAR 04DD
ENCODING 1245
SWIDTH 480 0
DWIDTH 16 0
BBX 19 22 0 0
BITMAP
01E3C0
01E7C0
01E7C0
01C380
000000
000000
1C38E0
1C31E0
1E33E0
0E7380
0E7700
0E6700
0E6600
0FFE00
0FFE00
0CEE00
1CCE00
1DCE00
3DCE00
F9CF00
F98F00
F38700
ENDCHAR
STARTCHAR 04DE
ENCODING 1246
SWIDTH 480 0
DWIDTH 16 0
BBX 18 27 0 0
BITMAP
00E1C0
01F3C0
01F3C0
01E3C0
000000
000000
01FE00
07FF00
07FF80
03DF80
0007C0
000780
000780
000F80
003F00
03FE00
03FC00
07FE00
001F00
000F00
000F00
000F00
001F00
303E00
7FFE00
FFFC00
3FF000
ENDCHAR
STARTCHAR 04DF
ENCODING 1247
SWIDTH 480 0
DWIDTH 16 0
BBX 17 22 1 0
BITMAP
03C780
03C780
03CF80
038700
000000
000000
07F800
0FFE00
0FFE00
0C3E00
001E00
001E00
007C00
07F800
07F800
07FC00
003C00
003C00
007C00
7FFC00
7FF800
FFE000
ENDCHAR
STARTCHAR 04E0
ENCODING 1248
SWIDTH 480 0
DWIDTH 16 0
BBX 18 22 1 -1
BITMAP
07FFC0
07FFC0
07FFC0
07FF80
000F00
001E00
003C00
007800
00F000
01F800
03FC00
00FE00
001E00
001E00
001E00
001E00
003E00
707C00
7FFC00
FFF800
7FE000
030000
ENDCHAR
STARTCHAR 04E1
ENCODING 1249
SWIDTH 480 0
DWIDTH 16 0
BBX 17 22 0 -6
BITMAP
07FF80
07FF80
0FFF80
0FFF00
001E00
003C00
007800
00F000
01E000
03F000
03F800
01FC00
003C00
003C00
003C00
003C00
003C00
60FC00
7FF800
FFF000
FFC000
040000
ENDCHAR
STARTCHAR 04E2
ENCODING 1250
SWIDTH 480 0
DWIDTH 16 0
BBX 18 26 1 0
BITMAP
00FFC0
00FFC0
00FF80
000000
000000
0701C0
0703C0
0F07C0
0F0FC0
0E0FC0
0E1F80
1E3F80
1E3F80
1E7780
1CE700
3DEF00
3DCF00
3F8F00
3B8E00
7F1E00
7E1E00
7E1E00
7C1C00
F83C00
F83C00
F03C00
ENDCHAR
STARTCHAR 04E3
ENCODING 1251
SWIDTH 480 0
DWIDTH 16 0
BBX 14 22 3 0
BITMAP
07FC
0FFC
0FFC
0000
0000
0000
3C3C
3C3C
783C
783C
787C
7878
F878
F078
F0F8
F0F0
F0F0
F0F0
F3F0
FFF0
FFF0
7E78
ENDCHAR
STARTCHAR 04E4
ENCODING 1252
SWIDTH 480 0
DWIDTH 16 0
BBX 18 27 1 0
BITMAP
00E380
01E3C0
01E7C0
01E380
000000
000000
0701C0
0703C0
0F07C0
0F0FC0
0E0FC0
0E1F80
1E3F80
1E3F80
1E7780
1CE700
3DEF00
3DCF00
3F8F00
3B8E00
7F1E00
7E1E00
7E1E00
7C1C00
F83C00
F83C00
F03C00
ENDCHAR
STARTCHAR 04E5
ENCODING 1253
SWIDTH 480 0
DWIDTH 16 0
BBX 14 22 3 0
BITMAP
0F1C
1F3C
1F3C
0E38
0000
0000
3C3C
3C3C
783C
783C
787C
7878
F878
F078
F0F8
F0F0
F0F0
F0F0
F3F0
FFF0
FFF0
7E78
ENDCHAR
STARTCHAR 04E6
ENCODING 1254
SWIDTH 480 0
DWIDTH 16 0
BBX 17 27 2 0
BITMAP
018700
03CF80
03CF80
038F00
000000
000000
01F800
07FC00
0FFE00
0FFF00
1F1F00
3E0F00
3C0F00
3C0F00
780F00
780F00
781F00
781E00
F01E00
F01E00
F03C00
F03C00
F87C00
78F800
7FF000
3FE000
1FC000
ENDCHAR
STARTCHAR 04E7
ENCODING 1255
SWIDTH 480 0
DWIDTH 16 0
BBX 15 22 2 0
BITMAP
078E
0F9E
0F9E
070C
0000
0000
03F0
0FF8
1FFC
3F7E
3C3E
781E
781E
781E
F03E
F03C
F03C
F87C
F8F8
7FF0
7FE0
3FC0
ENDCHAR
STARTCHAR 04E8
ENCODING 1256
SWIDTH 480 0
DWIDTH 16 0
BBX 16 21 2 0
BITMAP
01F8
07FC
0FFE
0FFF
1F0F
3E0F
3C0F
3C0F
780F
7FFF
7FFF
7FFE
F81E
F01E
F03E
F03C
F87C
78F8
7FF0
3FE0
1FC0
ENDCHAR
STARTCHAR 04E9
ENCODING 1257
SWIDTH 480 0
DWIDTH 16 0
BBX 15 16 2 0
BITMAP
03F0
0FF8
1FFC
3F7C
3C3E
781E
781E
FFFE
FFFE
F03C
F03C
F07C
F8F8
7FF0
7FE0
1FC0
ENDCHAR
STARTCHAR 04EA
ENCODING 1258
SWIDTH 480 0
DWIDTH 16 0
BBX 17 27 2 0
BITMAP
018700
03CF80
03CF80
038F00
000000
000000
01F800
07FC00
0FFE00
0FFF00
1F0F00
3E0F00
3C0F00
3C0F00
780F00
7FFF00
7FFF00
7FFE00
F81E00
F01E00
F03E00
F03C00
F87C00
78F800
7FF000
3FE000
1FC000
ENDCHAR
STARTCHAR 04EB
ENCODING 1259
SWIDTH 480 0
DWIDTH 16 0
BBX 15 22 2 0
BITMAP
078E
0F9E
0F9E
070C
0000
0000
03F0
0FF8
1FFC
3F7C
3C3E
781E
781E
FFFE
FFFE
F03C
F03C
F07C
F8F8
7FF0
7FE0
1FC0
ENDCHAR
STARTCHAR 04EC
ENCODING 1260
SWIDTH 480 0
DWIDTH 16 0
BBX 18 27 1 0
BITMAP
01C380
01E7C0
01E7C0
01C780
000000
000000
03F800
0FFC00
0FFE00
07FE00
001F00
000F00
000F00
000F00
000F00
03FF00
03FF00
03FF00
000F00
001F00
001E00
003E00
007C00
60FC00
7FF800
FFF000
7FC000
ENDCHAR
STARTCHAR 04ED
ENCODING 1261
SWIDTH 480 0
DWIDTH 16 0
BBX 16 22 2 0
BITMAP
078E
079F
079F
070E
0000
0000
0FE0
1FF0
1FF8
1FFC
003C
003C
003C
0FFC
0FFC
0FFC
003C
0078
41F8
FFF0
FFE0
FF80
ENDCHAR
STARTCHAR 04EE
ENCODING 1262
SWIDTH 480 0
DWIDTH 16 0
BBX 21 26 0 0
BITMAP
007FC0
007FC0
00FFC0
000000
000000
0F80F8
0781F0
0781F0
0783E0
07C3C0
03C7C0
03C780
03CF80
03CF00
01FF00
01FE00
01FC00
00FC00
00F800
00F800
00F000
01E000
27C000
7FC000
7F8000
FE0000
ENDCHAR
STARTCHAR 04EF
ENCODING 1263
SWIDTH 480 0
DWIDTH 16 0
BBX 19 28 -1 -6
BITMAP
007FC0
00FFC0
00FFC0
000000
000000
000000
0781E0
0781E0
0783C0
0783C0
0787C0
078780
078780
07CF00
03CF00
03DE00
03DE00
03FC00
03FC00
01F800
01F000
01F000
03E000
07C000
FF8000
FF0000
FE0000
300000
ENDCHAR
STARTCHAR 04F0
ENCODING 1264
SWIDTH 480 0
DWIDTH 16 0
BBX 21 27 0 0
BITMAP
0070E0
00F9E0
00F9E0
00F1E0
000000
000000
0F80F8
0781F0
0781F0
0783E0
07C3C0
03C7C0
03C780
03CF80
03CF00
01FF00
01FE00
01FC00
00FC00
00F800
00F800
00F000
01E000
27C000
7FC000
7F8000
FE0000
ENDCHAR
STARTCHAR 04F1
ENCODING 1265
SWIDTH 480 0
DWIDTH 16 0
BBX 19 28 -1 -6
BITMAP
00E3C0
01E3C0
01E3C0
00E380
000000
000000
0781E0
0781E0
0783C0
0783C0
0787C0
078780
078780
07CF00
03CF00
03DE00
03DE00
03FC00
03FC00
01F800
01F000
01F000
03E000
07C000
FF8000
FF0000
FE0000
300000
ENDCHAR
STARTCHAR 04F2
ENCODING 1266
SWIDTH 480 0
DWIDTH 16 0
BBX 21 27 0 1
BITMAP
000C38
001E78
007CF8
00F9E0
0060C0
000000
0F80F8
0781F0
0781F0
0783E0
07C3C0
03C7C0
03C780
03CF80
03CF00
01FF00
01FE00
01FC00
00FC00
00F800
00F800
00F000
01E000
27C000
7FC000
7F8000
FE0000
ENDCHAR
STARTCHAR 04F3
ENCODING 1267
SWIDTH 480 0
DWIDTH 16 0
BBX 21 29 -1 -6
BITMAP
000810
001C30
003EF8
0079F0
00F1C0
004080
000000
0781E0
0781E0
0783C0
0783C0
0787C0
078780
078780
07CF00
03CF00
03DE00
03DE00
03FC00
03FC00
01F800
01F000
01F000
03E000
07C000
FF8000
FF0000
FE0000
300000
ENDCHAR
STARTCHAR 04F4
ENCODING 1268
SWIDTH 480 0
DWIDTH 16 0
BBX 15 27 4 0
BITMAP
0E1C
1F3C
1F3C
1E3C
0000
0000
3C1E
781E
781E
783C
783C
F83C
F03C
F07C
F078
F078
F8F8
FFF8
7FF0
3FF0
00F0
01F0
01E0
01E0
01E0
03E0
03C0
ENDCHAR
STARTCHAR 04F5
ENCODING 1269
SWIDTH 480 0
DWIDTH 16 0
BBX 15 22 3 0
BITMAP
0F1C
0F3E
0F3C
0E1C
0000
0000
783C
783C
783C
783C
F078
F078
F078
FC78
FFF8
7FF0
3FF0
00F0
01F0
01E0
01E0
01E0
ENDCHAR
STARTCHAR 04F6
ENCODING 1270
SWIDTH 480 0
DWIDTH 16 0
BBX 19 27 1 -6
BITMAP
01FFE0
01FFE0
01FFE0
01FFC0
03E000
03C000
03C000
03C000
07C000
078000
078000
078000
0F8000
0F0000
0F0000
0F0000
0F0000
1E0000
FFF000
FFE000
FFE000
01E000
01E000
01C000
03C000
03C000
03C000
ENDCHAR
STARTCHAR 04F7
ENCODING 1271
SWIDTH 480 0
DWIDTH 16 0
BBX 14 20 2 -4
BITMAP
07F0
1FFC
1FFC
1C7C
003C
003C
00FC
0FF8
3FF0
7F80
7C00
F800
F808
7FF8
7FF0
3FF0
00F0
00F0
00E0
01E0
ENDCHAR
STARTCHAR 04F8
ENCODING 1272
SWIDTH 480 0
DWIDTH 16 0
BBX 19 27 1 0
BITMAP
00C380
01E7C0
01E7C0
01C780
000000
000000
0F00E0
0E00E0
0E01C0
0E01C0
1E01C0
1C01C0
1C03C0
1F0380
3FC380
3FC380
39E780
38E700
78E700
70E700
70EF00
71EE00
F1CE00
E3CE00
FF9E00
FF1C00
FE1C00
ENDCHAR
STARTCHAR 04F9
ENCODING 1273
SWIDTH 480 0
DWIDTH 16 0
BBX 18 22 1 0
BITMAP
03C700
03CF80
03CF80
038700
000000
000000
1C03C0
1C0380
1C0380
1C0380
380780
380700
3F8700
3FC700
7FCF00
71CE00
71CE00
71CE00
F1CE00
FF9C00
FF9C00
FE1C00
ENDCHAR
STARTCHAR 1E80
ENCODING 7808
SWIDTH 480 0
DWIDTH 16 0
BBX 19 27 1 1
BITMAP
007000
007800
00FC00
003E00
000E00
000000
0F00E0
0F01E0
0E01E0
1E01C0
1E01C0
1E03C0
1C03C0
1C0380
3CE380
3DE780
39E780
3BE700
3BF700
7F7700
767E00
7E7E00
7C7E00
7C7C00
783C00
F83C00
F03C00
ENDCHAR
STARTCHAR 1E81
ENCODING 7809
SWIDTH 480 0
DWIDTH 16 0
BBX 17 23 2 0
BITMAP
010000
01C000
03E000
03F000
00F800
003000
000000
780380
780780
780780
71C700
71C700
73CF00
73CE00
77CE00
F7DE00
EEDC00
EEDC00
FCF800
F8F800
F8F800
F0F000
F0F000
ENDCHAR
STARTCHAR 1E82
ENCODING 7810
SWIDTH 480 0
DWIDTH 16 0
BBX 19 28 1 0
BITMAP
000200
000600
000F00
003F80
003E00
003800
000000
0F00E0
0F01E0
0E01E0
1E01C0
1E01C0
1E03C0
1C03C0
1C0380
3CE380
3DE780
39E780
3BE700
3BF700
7F7700
767E00
7E7E00
7C7E00
7C7C00
783C00
F83C00
F03C00
ENDCHAR
STARTCHAR 1E83
ENCODING 7811
SWIDTH 480 0
DWIDTH 16 0
BBX 17 23 2 0
BITMAP
001800
003800
007C00
01FC00
01F000
00C000
000000
780380
780780
780780
71C700
71C700
73CF00
73CE00
77CE00
F7DE00
EEDC00
EEDC00
FCF800
F8F800
F8F800
F0F000
F0F000
ENDCHAR
STARTCHAR 1E84
ENCODING 7812
SWIDTH 480 0
DWIDTH 16 0
BBX 19 27 1 0
BITMAP
00E1C0
01F3C0
01F3C0
01E3C0
000000
000000
0F00E0
0F01E0
0E01E0
1E01C0
1E01C0
1E03C0
1C03C0
1C0380
3CE380
3DE780
39E780
3BE700
3BF700
7F7700
767E00
7E7E00
7C7E00
7C7C00
783C00
F83C00
F03C00
ENDCHAR
STARTCHAR 1E85
ENCODING 7813
SWIDTH 480 0
DWIDTH 16 0
BBX 17 22 2 0
BITMAP
078F00
078F00
078F00
070E00
000000
000000
780380
780780
780780
71C700
71C700
73CF00
73CE00
77CE00
F7DE00
EEDC00
EEDC00
FCF800
F8F800
F8F800
F0F000
F0F000
ENDCHAR
STARTCHAR 1EF2
ENCODING 7922
SWIDTH 480 0
DWIDTH 16 0
BBX 16 27 5 1
BITMAP
0600
0F80
0FC0
03E0
01C0
0000
F01F
F01E
F03C
F07C
F078
70F0
79F0
79E0
7BC0
7FC0
3F80
3F00
3E00
3E00
3C00
3C00
3C00
3C00
7800
7800
7800
ENDCHAR
STARTCHAR 1EF3
ENCODING 7923
SWIDTH 480 0
DWIDTH 16 0
BBX 19 29 -1 -6
BITMAP
002000
007000
007C00
007E00
001E00
000600
000000
0781E0
0781E0
0783C0
0783C0
0787C0
078780
078780
07CF00
03CF00
03DE00
03DE00
03FC00
03FC00
01F800
01F000
01F000
03E000
07C000
FF8000
FF0000
FE0000
300000
ENDCHAR
STARTCHAR 1F00
ENCODING 7936
SWIDTH 480 0
DWIDTH 16 0
BBX 15 25 2 0
BITMAP
0018
003C
007C
003C
0038
0070
00E0
0040
0000
01F8
07FE
1FFE
3FBE
3C3E
7C3C
783C
F83C
F03C
F078
F078
F078
F8F8
7FFC
7FFC
3FB8
ENDCHAR
STARTCHAR 1F01
ENCODING 7937
SWIDTH 480 0
DWIDTH 16 0
BBX 15 25 2 0
BITMAP
0030
0078
0078
0070
0060
0030
0038
0010
0000
01F8
07FE
1FFE
3FBE
3C3E
7C3C
783C
F83C
F03C
F078
F078
F078
F8F8
7FFC
7FFC
3FB8
ENDCHAR
STARTCHAR 1F02
ENCODING 7938
SWIDTH 480 0
DWIDTH 16 0
BBX 17 25 2 0
BITMAP
018200
03CE00
03CE00
03C700
01C700
038300
070380
000000
000000
01F800
07FE00
1FFE00
3FBE00
3C3E00
7C3C00
783C00
F83C00
F03C00
F07800
F07800
F07800
F8F800
7FFC00
7FFC00
3FB800
ENDCHAR
STARTCHAR 1F03
ENCODING 7939
SWIDTH 480 0
DWIDTH 16 0
BBX 16 25 2 0
BITMAP
0304
079C
079C
079E
070E
030E
0187
0004
0000
01F8
07FE
1FFE
3FBE
3C3E
7C3C
783C
F83C
F03C
F078
F078
F078
F8F8
7FFC
7FFC
3FB8
ENDCHAR
STARTCHAR 1F04
ENCODING 7940
SWIDTH 480 0
DWIDTH 16 0
BBX 18 25 2 0
BITMAP
00C000
01E180
01E3C0
01E780
00E700
01CE00
038C00
000000
000000
01F800
07FE00
1FFE00
3FBE00
3C3E00
7C3C00
783C00
F83C00
F03C00
F07800
F07800
F07800
F8F800
7FFC00
7FFC00
3FB800
ENDCHAR
STARTCHAR 1F05
ENCODING 7941
SWIDTH 480 0
DWIDTH 16 0
BBX 17 25 2 0
BITMAP
018000
03C300
07C780
078F00
030E00
039C00
01D800
000000
000000
01F800
07FE00
1FFE00
3FBE00
3C3E00
7C3C00
783C00
F83C00
F03C00
F07800
F07800
F07800
F8F800
7FFC00
7FFC00
3FB800
ENDCHAR
STARTCHAR 1F06
ENCODING 7942
SWIDTH 480 0
DWIDTH 16 0
BBX 16 27 2 0
BITMAP
007E
00FF
01E7
01C3
0038
0038
0038
0038
0070
0040
0000
01F8
07FE
1FFE
3FBE
3C3E
7C3C
783C
F83C
F03C
F078
F078
F078
F8F8
7FFC
7FFC
3FB8
ENDCHAR
STARTCHAR 1F07
ENCODING 7943
SWIDTH 480 0
DWIDTH 16 0
BBX 16 27 2 0
BITMAP
007E
00FF
01C7
0183
0038
0038
0078
0030
0018
0000
0000
01F8
07FE
1FFE
3FBE
3C3E
7C3C
783C
F83C
F03C
F078
F078
F078
F8F8
7FFC
7FFC
3FB8
ENDCHAR
STARTCHAR 1F08
ENCODING 7944
SWIDTH 480 0
DWIDTH 16 0
BBX 16 21 0 0
BITMAP
0E3E
1F3E
1F7E
0E7E
0CFE
39EE
11EE
03CE
03CE
078F
078F
0F0F
0F0F
1FFF
1FFF
3FFF
3C0F
780F
780F
F80F
F00F
ENDCHAR
STARTCHAR 1F09
ENCODING 7945
SWIDTH 480 0
DWIDTH 16 0
BBX 16 21 0 0
BITMAP
3C3E
3C3E
3C7E
387E
38FE
1DEE
09EE
03CE
03CE
078F
078F
0F0F
0F0F
1FFF
1FFF
3FFF
3C0F
780F
780F
F80F
F00F
ENDCHAR
STARTCHAR 1F0A
ENCODING 7946
SWIDTH 480 0
DWIDTH 16 0
BBX 21 21 -5 0
BITMAP
78C1F0
7BC1F0
79C3F0
39E3F0
70E7F0
E0EF70
C06F70
001E70
001E70
003C78
003C78
007878
007878
00FFF8
00FFF8
01FFF8
01E078
03C078
03C078
07C078
078078
ENDCHAR
STARTCHAR 1F0B
ENCODING 7947
SWIDTH 480 0
DWIDTH 16 0
BBX 20 21 -4 0
BITMAP
F103E0
F783E0
F387E0
C387E0
E1CFE0
71DEE0
209EE0
003CE0
003CE0
0078F0
0078F0
00F0F0
00F0F0
01FFF0
01FFF0
03FFF0
03C0F0
0780F0
0780F0
0F80F0
0F00F0
ENDCHAR
STARTCHAR 1F0C
ENCODING 7948
SWIDTH 480 0
DWIDTH 16 0
BBX 20 21 -4 0
BITMAP
7863E0
78F3E0
78E7E0
39C7E0
73CFE0
E79EE0
C31EE0
003CE0
003CE0
0078F0
0078F0
00F0F0
00F0F0
01FFF0
01FFF0
03FFF0
03C0F0
0780F0
0780F0
0F80F0
0F00F0
ENDCHAR
STARTCHAR 1F0D
ENCODING 7949
SWIDTH 480 0
DWIDTH 16 0
BBX 20 21 -4 0
BITMAP
7063E0
F873E0
F8F7E0
61E7E0
73CFE0
339EE0
111EE0
003CE0
003CE0
0078F0
0078F0
00F0F0
00F0F0
01FFF0
01FFF0
03FFF0
03C0F0
0780F0
0780F0
0F80F0
0F00F0
ENDCHAR
STARTCHAR 1F0E
ENCODING 7950
SWIDTH 480 0
DWIDTH 16 0
BBX 17 24 -1 0
BITMAP
1E0000
7F8000
7F8000
E19F00
C19F00
1C3F00
1C3F00
1C7F00
18F700
30F700
01E700
01E700
03C780
03C780
078780
078780
0FFF80
0FFF80
1FFF80
1E0780
3C0780
3C0780
7C0780
780780
ENDCHAR
STARTCHAR 1F0F
ENCODING 7951
SWIDTH 480 0
DWIDTH 16 0
BBX 17 24 -1 0
BITMAP
1E0000
7F8000
7F8000
E19F00
C19F00
1C3F00
1C3F00
1C7F00
1CF700
0CF700
01E700
01E700
03C780
03C780
078780
078780
0FFF80
0FFF80
1FFF80
1E0780
3C0780
3C0780
7C0780
780780
ENDCHAR
STARTCHAR 1F10
ENCODING 7952
SWIDTH 480 0
DWIDTH 16 0
BBX 15 25 2 0
BITMAP
0018
003C
007C
003C
0038
0070
00E0
0040
0000
03FC
0FFE
1FFE
3F0C
3C00
3C00
1F00
0FE0
3FE0
7FE0
7800
F800
F808
7FF8
7FF8
3FF8
ENDCHAR
STARTCHAR 1F11
ENCODING 7953
SWIDTH 480 0
DWIDTH 16 0
BBX 15 25 2 0
BITMAP
0030
0078
0078
0070
0060
0030
0038
0010
0000
03FC
0FFE
1FFE
3F0C
3C00
3C00
1F00
0FE0
3FE0
7FE0
7800
F800
F808
7FF8
7FF8
3FF8
ENDCHAR
STARTCHAR 1F12
ENCODING 7954
SWIDTH 480 0
DWIDTH 16 0
BBX 17 25 2 0
BITMAP
018200
03CE00
03CE00
03C700
01C700
038300
070380
000000
000000
03FC00
0FFE00
1FFE00
3F0C00
3C0000
3C0000
1F0000
0FE000
3FE000
7FE000
780000
F80000
F80800
7FF800
7FF800
3FF800
ENDCHAR
STARTCHAR 1F13
ENCODING 7955
SWIDTH 480 0
DWIDTH 16 0
BBX 16 25 2 0
BITMAP
0304
079C
079C
079E
070E
030E
0187
0004
0000
03FC
0FFE
1FFE
3F0C
3C00
3C00
1F00
0FE0
3FE0
7FE0
7800
F800
F808
7FF8
7FF8
3FF8
ENDCHAR
STARTCHAR 1F14
ENCODING 7956
SWIDTH 480 0
DWIDTH 16 0
BBX 18 25 2 0
BITMAP
00C000
01E180
01E3C0
01E780
00E700
01CE00
038C00
000000
000000
03FC00
0FFE00
1FFE00
3F0C00
3C0000
3C0000
1F0000
0FE000
3FE000
7FE000
780000
F80000
F80800
7FF800
7FF800
3FF800
ENDCHAR
STARTCHAR 1F15
ENCODING 7957
SWIDTH 480 0
DWIDTH 16 0
BBX 17 25 2 0
BITMAP
018000
03C300
07C780
078F00
030E00
039C00
01D800
000000
000000
03FC00
0FFE00
1FFE00
3F0C00
3C0000
3C0000
1F0000
0FE000
3FE000
7FE000
780000
F80000
F80800
7FF800
7FF800
3FF800
ENDCHAR
STARTCHAR 1F18
ENCODING 7960
SWIDTH 480 0
DWIDTH 16 0
BBX 19 21 0 0
BITMAP
79FFE0
7BFFE0
7BFFC0
73FFC0
73C000
E7C000
C78000
078000
07FF00
07FF00
0FFE00
0FFE00
0F0000
0F0000
1E0000
1E0000
1E0000
1E0000
3FFE00
3FFE00
3FFE00
ENDCHAR
STARTCHAR 1F19
ENCODING 7961
SWIDTH 480 0
DWIDTH 16 0
BBX 19 21 0 0
BITMAP
F1FFE0
F3FFE0
F3FFC0
C3FFC0
E3C000
77C000
278000
078000
07FF00
07FF00
0FFE00
0FFE00
0F0000
0F0000
1E0000
1E0000
1E0000
1E0000
3FFE00
3FFE00
3FFE00
ENDCHAR
STARTCHAR 1F1A
ENCODING 7962
SWIDTH 480 0
DWIDTH 16 0
BBX 26 21 -7 0
BITMAP
7883FFC0
7BC7FFC0
79C7FF80
31C7FF80
70E78000
E0EF8000
C04F0000
000F0000
000FFE00
000FFE00
001FFC00
001FFC00
001E0000
001E0000
003C0000
003C0000
003C0000
003C0000
007FFC00
007FFC00
007FFC00
ENDCHAR
STARTCHAR 1F1B
ENCODING 7963
SWIDTH 480 0
DWIDTH 16 0
BBX 25 21 -6 0
BITMAP
F107FF80
F78FFF80
F38FFF00
C38FFF00
E1CF0000
71DF0000
209E0000
001E0000
001FFC00
001FFC00
003FF800
003FF800
003C0000
003C0000
00780000
00780000
00780000
00780000
00FFF800
00FFF800
00FFF800
ENDCHAR
STARTCHAR 1F1C
ENCODING 7964
SWIDTH 480 0
DWIDTH 16 0
BBX 26 21 -7 0
BITMAP
7863FFC0
78F7FFC0
78E7FF80
39C7FF80
73C78000
E78F8000
C30F0000
000F0000
000FFE00
000FFE00
001FFC00
001FFC00
001E0000
001E0000
003C0000
003C0000
003C0000
003C0000
007FFC00
007FFC00
007FFC00
ENDCHAR
STARTCHAR 1F1D
ENCODING 7965
SWIDTH 480 0
DWIDTH 16 0
BBX 26 21 -7 0
BITMAP
7043FFC0
F0F7FFC0
F1E7FF80
E1C7FF80
63878000
770F8000
330F0000
000F0000
000FFE00
000FFE00
001FFC00
001FFC00
001E0000
001E0000
003C0000
003C0000
003C0000
003C0000
007FFC00
007FFC00
007FFC00
ENDCHAR
STARTCHAR 1F20
ENCODING 7968
SWIDTH 480 0
DWIDTH 16 0
BBX 15 31 2 -6
BITMAP
0018
003C
007C
003C
0038
0070
00E0
0040
0000
07F0
1FFC
1FFC
3FFC
3C3E
3C3E
3C3C
7C3C
783C
783C
7878
7878
F078
F078
F0F0
F0F0
00F0
00F0
01F0
01E0
01E0
01E0
ENDCHAR
STARTCHAR 1F21
ENCODING 7969
SWIDTH 480 0
DWIDTH 16 0
BBX 15 31 2 -6
BITMAP
0030
0078
0078
0070
0060
0030
0038
0010
0000
07F0
1FFC
1FFC
3FFC
3C3E
3C3E
3C3C
7C3C
783C
783C
7878
7878
F078
F078
F0F0
F0F0
00F0
00F0
01F0
01E0
01E0
01E0
ENDCHAR
STARTCHAR 1F22
ENCODING 7970
SWIDTH 480 0
DWIDTH 16 0
BBX 17 31 2 -6
BITMAP
018200
03CE00
03CE00
03C700
01C700
038300
070380
000000
000000
07F000
1FFC00
1FFC00
3FFC00
3C3E00
3C3E00
3C3C00
7C3C00
783C00
783C00
787800
787800
F07800
F07800
F0F000
F0F000
00F000
00F000
01F000
01E000
01E000
01E000
ENDCHAR
STARTCHAR 1F23
ENCODING 7971
SWIDTH 480 0
DWIDTH 16 0
BBX 16 31 2 -6
BITMAP
0304
079C
079C
079E
070E
030E
0187
0004
0000
07F0
1FFC
1FFC
3FFC
3C3E
3C3E
3C3C
7C3C
783C
783C
7878
7878
F078
F078
F0F0
F0F0
00F0
00F0
01F0
01E0
01E0
01E0
ENDCHAR
STARTCHAR 1F24
ENCODING 7972
SWIDTH 480 0
DWIDTH 16 0
BBX 18 31 2 -6
BITMAP
00C000
01E180
01E3C0
01E780
00E700
01CE00
038C00
000000
000000
07F000
1FFC00
1FFC00
3FFC00
3C3E00
3C3E00
3C3C00
7C3C00
783C00
783C00
787800
787800
F07800
F07800
F0F000
F0F000
00F000
00F000
01F000
01E000
01E000
01E000
ENDCHAR
STARTCHAR 1F25
ENCODING 7973
SWIDTH 480 0
DWIDTH 16 0
BBX 17 31 2 -6
BITMAP
018000
03C300
07C780
078F00
030E00
039C00
01D800
000000
000000
07F000
1FFC00
1FFC00
3FFC00
3C3E00
3C3E00
3C3C00
7C3C00
783C00
783C00
787800
787800
F07800
F07800
F0F000
F0F000
00F000
00F000
01F000
01E000
01E000
01E000
ENDCHAR
STARTCHAR 1F26
ENCODING 7974
SWIDTH 480 0
DWIDTH 16 0
BBX 16 33 2 -6
BITMAP
007E
00FF
01C7
0183
0030
0078
0038
0030
0070
0040
0000
07F0
1FFC
1FFC
3FFC
3C3E
3C3E
3C3C
7C3C
783C
783C
7878
7878
F078
F078
F0F0
F0F0
00F0
00F0
01F0
01E0
01E0
01E0
ENDCHAR
STARTCHAR 1F27
ENCODING 7975
SWIDTH 480 0
DWIDTH 16 0
BBX 16 33 2 -6
BITMAP
007E
01FE
01C7
0187
0030
0078
0070
0070
0038
0010
0000
07F0
1FFC
1FFC
3FFC
3C3E
3C3E
3C3C
7C3C
783C
783C
7878
7878
F078
F078
F0F0
F0F0
00F0
00F0
01F0
01E0
01E0
01E0
ENDCHAR
STARTCHAR 1F28
ENCODING 7976
SWIDTH 480 0
DWIDTH 16 0
BBX 21 21 -1 0
BITMAP
79E0F8
79E0F0
7BC0F0
33C0F0
73C1F0
E3C1E0
C781E0
0781E0
07FFE0
07FFC0
0FFFC0
0FFFC0
0F03C0
0F0780
1F0780
1E0780
1E0780
1E0F00
3E0F00
3C0F00
3C0F00
ENDCHAR
STARTCHAR 1F29
ENCODING 7977
SWIDTH 480 0
DWIDTH 16 0
BBX 21 21 -1 0
BITMAP
F1E0F8
F1E0F0
F3C0F0
E3C0F0
E3C1F0
73C1E0
2781E0
0781E0
07FFE0
07FFC0
0FFFC0
0FFFC0
0F03C0
0F0780
1F0780
1E0780
1E0780
1E0F00
3E0F00
3C0F00
3C0F00
ENDCHAR
STARTCHAR 1F2A
ENCODING 7978
SWIDTH 480 0
DWIDTH 16 0
BBX 28 21 -8 0
BITMAP
7883C1F0
7BC3C1E0
79C781E0
39C781E0
70E783E0
E0E783C0
C04F03C0
000F03C0
000FFFC0
000FFF80
001FFF80
001FFF80
001E0780
001E0F00
003E0F00
003C0F00
003C0F00
003C1E00
007C1E00
00781E00
00781E00
ENDCHAR
STARTCHAR 1F2B
ENCODING 7979
SWIDTH 480 0
DWIDTH 16 0
BBX 27 21 -7 0
BITMAP
F10783E0
F78783C0
F38F03C0
C3CF03C0
E1CF07C0
71CF0780
209E0780
001E0780
001FFF80
001FFF00
003FFF00
003FFF00
003C0F00
003C1E00
007C1E00
00781E00
00781E00
00783C00
00F83C00
00F03C00
00F03C00
ENDCHAR
STARTCHAR 1F2C
ENCODING 7980
SWIDTH 480 0
DWIDTH 16 0
BBX 28 21 -8 0
BITMAP
7863C1F0
78F3C1E0
78E781E0
39C781E0
73C783E0
E78783C0
C30F03C0
000F03C0
000FFFC0
000FFF80
001FFF80
001FFF80
001E0780
001E0F00
003E0F00
003C0F00
003C0F00
003C1E00
007C1E00
00781E00
00781E00
ENDCHAR
STARTCHAR 1F2D
ENCODING 7981
SWIDTH 480 0
DWIDTH 16 0
BBX 28 21 -8 0
BITMAP
7063C1F0
F8F3C1E0
F0E781E0
61E781E0
73C783E0
378783C0
130F03C0
000F03C0
000FFFC0
000FFF80
001FFF80
001FFF80
001E0780
001E0F00
003E0F00
003C0F00
003C0F00
003C1E00
007C1E00
00781E00
00781E00
ENDCHAR
STARTCHAR 1F2E
ENCODING 7982
SWIDTH 480 0
DWIDTH 16 0
BBX 25 24 -5 0
BITMAP
1E000000
7F800000
FF800000
E19E0F80
C19E0F00
1C3C0F00
1C3C0F00
1C3C1F00
183C1E00
30781E00
00781E00
007FFE00
007FFC00
00FFFC00
00FFFC00
00F03C00
00F07800
01F07800
01E07800
01E07800
01E0F000
03E0F000
03C0F000
03C0F000
ENDCHAR
STARTCHAR 1F2F
ENCODING 7983
SWIDTH 480 0
DWIDTH 16 0
BBX 25 24 -5 0
BITMAP
1E000000
7F800000
FF800000
E19E0F80
C19E0F00
1C3C0F00
1C3C0F00
183C1F00
1C3C1E00
0C781E00
00781E00
007FFE00
007FFC00
00FFFC00
00FFFC00
00F03C00
00F07800
01F07800
01E07800
01E07800
01E0F000
03E0F000
03C0F000
03C0F000
ENDCHAR
STARTCHAR 1F30
ENCODING 7984
SWIDTH 480 0
DWIDTH 16 0
BBX 11 25 4 0
BITMAP
00C0
01E0
01E0
01E0
00C0
01C0
0380
0000
0000
FF80
FF80
FF00
FF00
0F00
0F00
1F00
1E00
1E00
1E00
3E00
3E00
3E20
1FE0
1FE0
0FE0
ENDCHAR
STARTCHAR 1F31
ENCODING 7985
SWIDTH 480 0
DWIDTH 16 0
BBX 11 25 4 0
BITMAP
0180
03C0
03C0
03C0
0380
01C0
00C0
0000
0000
FF80
FF80
FF00
FF00
0F00
0F00
1F00
1E00
1E00
1E00
3E00
3E00
3E20
1FE0
1FE0
0FE0
ENDCHAR
STARTCHAR 1F32
ENCODING 7986
SWIDTH 480 0
DWIDTH 16 0
BBX 14 25 4 0
BITMAP
0600
0F38
0F38
0F38
061C
0E1C
180C
0008
0000
FF80
FF80
FF00
FF00
0F00
0F00
1F00
1E00
1E00
1E00
3E00
3E00
3E20
1FE0
1FE0
0FE0
ENDCHAR
STARTCHAR 1F33
ENCODING 7987
SWIDTH 480 0
DWIDTH 16 0
BBX 13 25 4 0
BITMAP
0C00
1E70
1E70
1C70
1C38
0C38
0E18
0410
0000
FF80
FF80
FF00
FF00
0F00
0F00
1F00
1E00
1E00
1E00
3E00
3E00
3E20
1FE0
1FE0
0FE0
ENDCHAR
STARTCHAR 1F34
ENCODING 7988
SWIDTH 480 0
DWIDTH 16 0
BBX 16 25 4 0
BITMAP
0304
0786
078F
079E
073C
0E38
0C70
0000
0000
FF80
FF80
FF00
FF00
0F00
0F00
1F00
1E00
1E00
1E00
3E00
3E00
3E20
1FE0
1FE0
0FE0
ENDCHAR
STARTCHAR 1F35
ENCODING 7989
SWIDTH 480 0
DWIDTH 16 0
BBX 15 25 4 0
BITMAP
0C08
1E0C
1E1E
1E3C
1C78
0E70
06E0
0000
0000
FF80
FF80
FF00
FF00
0F00
0F00
1F00
1E00
1E00
1E00
3E00
3E00
3E20
1FE0
1FE0
0FE0
ENDCHAR
STARTCHAR 1F36
ENCODING 7990
SWIDTH 480 0
DWIDTH 16 0
BBX 14 27 4 0
BITMAP
03F0
07F8
071C
0E1C
00C0
01C0
01C0
00C0
0380
0000
0000
FF80
FF80
FF00
FF00
0F00
0F00
1F00
1E00
1E00
1E00
3E00
3E00
3E20
1FE0
1FE0
0FE0
ENDCHAR
STARTCHAR 1F37
ENCODING 7991
SWIDTH 480 0
DWIDTH 16 0
BBX 13 27 4 0
BITMAP
03F0
07F8
0F38
0E18
01C0
01C0
01C0
0180
00C0
0000
0000
FF80
FF80
FF00
FF00
0F00
0F00
1F00
1E00
1E00
1E00
3E00
3E00
3E20
1FE0
1FE0
0FE0
ENDCHAR
STARTCHAR 1F38
ENCODING 7992
SWIDTH 480 0
DWIDTH 16 0
BBX 20 21 -1 0
BITMAP
79FFF0
79FFF0
79FFF0
3BFFE0
701E00
E03E00
C03C00
003C00
003C00
007C00
007800
007800
007800
00F800
00F000
00F000
00F000
00F000
1FFF00
3FFF00
3FFE00
ENDCHAR
STARTCHAR 1F39
ENCODING 7993
SWIDTH 480 0
DWIDTH 16 0
BBX 20 21 -1 0
BITMAP
71FFF0
F9FFF0
F9FFF0
63FFE0
701E00
303E00
103C00
003C00
003C00
007C00
007800
007800
007800
00F800
00F000
00F000
00F000
00F000
1FFF00
3FFF00
3FFE00
ENDCHAR
STARTCHAR 1F3A
ENCODING 7994
SWIDTH 480 0
DWIDTH 16 0
BBX 27 21 -8 0
BITMAP
78C3FFE0
79C3FFE0
79E3FFE0
38E7FFC0
70E03C00
E0707C00
40607800
00007800
00007800
0000F800
0000F000
0000F000
0000F000
0001F000
0001E000
0001E000
0001E000
0001E000
003FFE00
007FFE00
007FFC00
ENDCHAR
STARTCHAR 1F3B
ENCODING 7995
SWIDTH 480 0
DWIDTH 16 0
BBX 25 21 -6 0
BITMAP
F18FFF80
F78FFF80
F38FFF80
E3DFFF00
E1C0F000
71C1F000
20C1E000
0001E000
0001E000
0003E000
0003C000
0003C000
0003C000
0007C000
00078000
00078000
00078000
00078000
00FFF800
01FFF800
01FFF000
ENDCHAR
STARTCHAR 1F3C
ENCODING 7996
SWIDTH 480 0
DWIDTH 16 0
BBX 27 21 -8 0
BITMAP
3863FFE0
7C73FFE0
78F3FFE0
39E7FFC0
73C03C00
E3807C00
41007800
00007800
00007800
0000F800
0000F000
0000F000
0000F000
0001F000
0001E000
0001E000
0001E000
0001E000
003FFE00
007FFE00
007FFC00
ENDCHAR
STARTCHAR 1F3D
ENCODING 7997
SWIDTH 480 0
DWIDTH 16 0
BBX 26 21 -7 0
BITMAP
F0C7FFC0
F0E7FFC0
F1E7FFC0
C3CFFF80
E7807800
7700F800
2200F000
0000F000
0000F000
0001F000
0001E000
0001E000
0001E000
0003E000
0003C000
0003C000
0003C000
0003C000
007FFC00
00FFFC00
00FFF800
ENDCHAR
STARTCHAR 1F3E
ENCODING 7998
SWIDTH 480 0
DWIDTH 16 0
BBX 24 24 -5 0
BITMAP
1F0000
3F8000
7F8000
E1DFFF
E1DFFF
1C1FFF
1E3FFE
1C01E0
1C03E0
3003C0
0003C0
0003C0
0007C0
000780
000780
000780
000F80
000F00
000F00
000F00
000F00
01FFF0
03FFF0
03FFE0
ENDCHAR
STARTCHAR 1F3F
ENCODING 7999
SWIDTH 480 0
DWIDTH 16 0
BBX 24 24 -5 0
BITMAP
1F0000
3F8000
7F8000
E1DFFF
E1DFFF
1C1FFF
1C3FFE
1C01E0
0C03E0
0403C0
0003C0
0003C0
0007C0
000780
000780
000780
000F80
000F00
000F00
000F00
000F00
01FFF0
03FFF0
03FFE0
ENDCHAR
STARTCHAR 1F40
ENCODING 8000
SWIDTH 480 0
DWIDTH 16 0
BBX 15 25 2 0
BITMAP
0018
003C
007C
003C
0038
0070
00E0
0040
0000
03F0
0FF8
1FFC
3F7E
3C3E
781E
781E
781E
F03E
F03C
F03C
F87C
F8F8
7FF0
7FE0
3FC0
ENDCHAR
STARTCHAR 1F41
ENCODING 8001
SWIDTH 480 0
DWIDTH 16 0
BBX 15 25 2 0
BITMAP
0030
0078
0078
0070
0060
0030
0038
0010
0000
03F0
0FF8
1FFC
3F7E
3C3E
781E
781E
781E
F03E
F03C
F03C
F87C
F8F8
7FF0
7FE0
3FC0
ENDCHAR
STARTCHAR 1F42
ENCODING 8002
SWIDTH 480 0
DWIDTH 16 0
BBX 17 25 2 0
BITMAP
018200
03CE00
03CE00
03C700
01C700
038300
070380
000000
000000
03F000
0FF800
1FFC00
3F7E00
3C3E00
781E00
781E00
781E00
F03E00
F03C00
F03C00
F87C00
F8F800
7FF000
7FE000
3FC000
ENDCHAR
STARTCHAR 1F43
ENCODING 8003
SWIDTH 480 0
DWIDTH 16 0
BBX 16 25 2 0
BITMAP
0304
079C
079C
079E
070E
030E
0187
0004
0000
03F0
0FF8
1FFC
3F7E
3C3E
781E
781E
781E
F03E
F03C
F03C
F87C
F8F8
7FF0
7FE0
3FC0
ENDCHAR
STARTCHAR 1F44
ENCODING 8004
SWIDTH 480 0
DWIDTH 16 0
BBX 18 25 2 0
BITMAP
00C000
01E180
01E3C0
01E780
00E700
01CE00
038C00
000000
000000
03F000
0FF800
1FFC00
3F7E00
3C3E00
781E00
781E00
781E00
F03E00
F03C00
F03C00
F87C00
F8F800
7FF000
7FE000
3FC000
ENDCHAR
STARTCHAR 1F45
ENCODING 8005
SWIDTH 480 0
DWIDTH 16 0
BBX 17 25 2 0
BITMAP
018000
03C300
07C780
078F00
030E00
039C00
01D800
000000
000000
03F000
0FF800
1FFC00
3F7E00
3C3E00
781E00
781E00
781E00
F03E00
F03C00
F03C00
F87C00
F8F800
7FF000
7FE000
3FC000
ENDCHAR
STARTCHAR 1F48
ENCODING 8008
SWIDTH 480 0
DWIDTH 16 0
BBX 19 21 -1 0
BITMAP
783F00
78FF80
79FFC0
39FFE0
73E3E0
E7C1E0
C781E0
0781E0
0F01E0
0F01E0
0F03E0
0F03C0
1E03C0
1E03C0
1E0780
1E0780
1F0F80
0F1F00
0FFE00
07FC00
03F800
ENDCHAR
STARTCHAR 1F49
ENCODING 8009
SWIDTH 480 0
DWIDTH 16 0
BBX 19 21 -1 0
BITMAP
F03F00
F0FF80
F1FFC0
C1FFE0
E3E3E0
77C1E0
2781E0
0781E0
0F01E0
0F01E0
0F03E0
0F03C0
1E03C0
1E03C0
1E0780
1E0780
1F0F80
0F1F00
0FFE00
07FC00
03F800
ENDCHAR
STARTCHAR 1F4A
ENCODING 8010
SWIDTH 480 0
DWIDTH 16 0
BBX 26 21 -8 0
BITMAP
71807E00
FB81FF00
F9C3FF80
71C3FFC0
70E7C7C0
E0EF83C0
804F03C0
000F03C0
001E03C0
001E03C0
001E07C0
001E0780
003C0780
003C0780
003C0F00
003C0F00
003E1F00
001E3E00
001FFC00
000FF800
0007F000
ENDCHAR
STARTCHAR 1F4B
ENCODING 8011
SWIDTH 480 0
DWIDTH 16 0
BBX 26 21 -8 0
BITMAP
78807E00
7BC1FF00
F9C3FF80
61C3FFC0
70E7C3C0
38EF83C0
104F03C0
000F03C0
001E03C0
001E03C0
001E03C0
001E0780
003C0780
003C0780
003C0F80
003C0F00
003E1F00
001E3E00
001FFC00
000FF800
0007F000
ENDCHAR
STARTCHAR 1F4C
ENCODING 8012
SWIDTH 480 0
DWIDTH 16 0
BBX 25 21 -7 0
BITMAP
7860FC00
78F3FE00
78E7FF00
39C7FF80
73CF8F80
E79F0780
C31E0780
001E0780
003C0780
003C0780
003C0F80
003C0F00
00780F00
00780F00
00781E00
00781E00
007C3E00
003C7C00
003FF800
001FF000
000FE000
ENDCHAR
STARTCHAR 1F4D
ENCODING 8013
SWIDTH 480 0
DWIDTH 16 0
BBX 24 21 -6 0
BITMAP
F041F8
F0E7FC
F1EFFE
C3CFFF
E39F1F
773E0F
223C0F
003C0F
00780F
00780F
00781F
00781E
00F01E
00F01E
00F03C
00F03C
00F87C
0078F8
007FF0
003FE0
001FC0
ENDCHAR
STARTCHAR 1F50
ENCODING 8016
SWIDTH 480 0
DWIDTH 16 0
BBX 15 25 3 0
BITMAP
0030
0078
00F8
0078
0070
00E0
01C0
0080
0000
3C1E
3C3C
7C3C
783C
783C
787C
7878
F078
F078
F0F8
F0F0
F0F0
F1F0
FFE0
FFC0
7F80
ENDCHAR
STARTCHAR 1F51
ENCODING 8017
SWIDTH 480 0
DWIDTH 16 0
BBX 15 25 3 0
BITMAP
00C0
01E0
01E0
01E0
01C0
00E0
0060
0000
0000
3C1E
3C3C
7C3C
783C
783C
787C
7878
F078
F078
F0F8
F0F0
F0F0
F1F0
FFE0
FFC0
7F80
ENDCHAR
STARTCHAR 1F52
ENCODING 8018
SWIDTH 480 0
DWIDTH 16 0
BBX 15 25 3 0
BITMAP
0300
0798
0FBC
079C
071C
0E0E
1C0E
0800
0000
3C1E
3C3C
7C3C
783C
783C
787C
7878
F078
F078
F0F8
F0F0
F0F0
F1F0
FFE0
FFC0
7F80
ENDCHAR
STARTCHAR 1F53
ENCODING 8019
SWIDTH 480 0
DWIDTH 16 0
BBX 15 25 3 0
BITMAP
0600
0F70
1F78
1E38
0C38
0E1C
071C
0000
0000
3C1E
3C3C
7C3C
783C
783C
787C
7878
F078
F078
F0F8
F0F0
F0F0
F1F0
FFE0
FFC0
7F80
ENDCHAR
STARTCHAR 1F54
ENCODING 8020
SWIDTH 480 0
DWIDTH 16 0
BBX 16 25 3 0
BITMAP
0380
07C7
07CF
038E
039E
073C
0E38
0410
0000
3C1E
3C3C
7C3C
783C
783C
787C
7878
F078
F078
F0F8
F0F0
F0F0
F1F0
FFE0
FFC0
7F80
ENDCHAR
STARTCHAR 1F55
ENCODING 8021
SWIDTH 480 0
DWIDTH 16 0
BBX 16 25 3 0
BITMAP
0604
0F06
0F0F
0F1E
0E3C
0738
0370
0000
0000
3C1E
3C3C
7C3C
783C
783C
787C
7878
F078
F078
F0F8
F0F0
F0F0
F1F0
FFE0
FFC0
7F80
ENDCHAR
ENDFONT
